SourceSerif_0.ufo
<glyph name="ampersand" format="2">
	<unicode hex="0026"/>
	<advance width="711"/>
	<outline>
		<contour>
			<point x="254" y="-13" type="curve" smooth="yes"/>
			<point x="358" y="-13"/>
			<point x="427" y="36"/>
			<point x="481" y="103" type="curve"/>
			<point x="487" y="103" type="line"/>
			<point x="469" y="115" type="line"/>
			<point x="409" y="44"/>
			<point x="345" y="10"/>
			<point x="255" y="10" type="curve" smooth="yes"/>
			<point x="148" y="10"/>
			<point x="80" y="92"/>
			<point x="80" y="176" type="curve" smooth="yes"/>
			<point x="80" y="256"/>
			<point x="132" y="320"/>
			<point x="234" y="380" type="curve"/>
			<point x="227" y="397" type="line"/>
			<point x="227" y="394" type="line"/>
			<point x="104" y="331"/>
			<point x="52" y="262"/>
			<point x="52" y="170" type="curve" smooth="yes"/>
			<point x="52" y="72"/>
			<point x="130" y="-13"/>
		</contour>
		<contour>
			<point x="485" y="109" type="line"/>
			<point x="562" y="210"/>
			<point x="584" y="284"/>
			<point x="603" y="420" type="curve"/>
			<point x="577" y="420" type="line"/>
			<point x="562" y="285"/>
			<point x="541" y="218"/>
			<point x="473" y="120" type="curve"/>
			<point x="468" y="120" type="line"/>
		</contour>
		<contour>
			<point x="581" y="394" type="line"/>
			<point x="590" y="394" type="line"/>
			<point x="670" y="400" type="line"/>
			<point x="670" y="420" type="line"/>
			<point x="487" y="420" type="line"/>
			<point x="487" y="400" type="line"/>
		</contour>
		<contour>
			<point x="623" y="-5" type="curve" smooth="yes"/>
			<point x="641" y="-5"/>
			<point x="659" y="-3"/>
			<point x="673" y="0" type="curve"/>
			<point x="674" y="15" type="line"/>
			<point x="558" y="27" type="line"/>
			<point x="593" y="10" type="line"/>
			<point x="472" y="139"/>
			<point x="400" y="215"/>
			<point x="333" y="289" type="curve" smooth="yes"/>
			<point x="292" y="334"/>
			<point x="257" y="371"/>
			<point x="204" y="433" type="curve" smooth="yes"/>
			<point x="157" y="487"/>
			<point x="147" y="516"/>
			<point x="147" y="557" type="curve" smooth="yes"/>
			<point x="147" y="626"/>
			<point x="203" y="669"/>
			<point x="266" y="669" type="curve" smooth="yes"/>
			<point x="331" y="669"/>
			<point x="371" y="628"/>
			<point x="371" y="566" type="curve" smooth="yes"/>
			<point x="371" y="491"/>
			<point x="319" y="450"/>
			<point x="232" y="397" type="curve"/>
			<point x="239" y="379" type="line"/>
			<point x="239" y="382" type="line"/>
			<point x="330" y="432"/>
			<point x="397" y="485"/>
			<point x="397" y="565" type="curve" smooth="yes"/>
			<point x="397" y="633"/>
			<point x="353" y="689"/>
			<point x="266" y="689" type="curve" smooth="yes"/>
			<point x="187" y="689"/>
			<point x="123" y="638"/>
			<point x="123" y="556" type="curve" smooth="yes"/>
			<point x="123" y="507"/>
			<point x="144" y="465"/>
			<point x="186" y="418" type="curve" smooth="yes"/>
			<point x="252" y="344"/>
			<point x="272" y="322"/>
			<point x="316" y="272" type="curve" smooth="yes"/>
			<point x="388" y="191"/>
			<point x="457" y="117"/>
			<point x="541" y="21" type="curve" smooth="yes"/>
			<point x="559" y="1"/>
			<point x="584" y="-5"/>
		</contour>
	</outline>
</glyph>
<glyph name="asterisk" format="2">
	<unicode hex="002A"/>
	<advance width="445"/>
	<outline>
		<contour>
			<point x="217" y="548" type="line"/>
			<point x="228" y="548" type="line"/>
			<point x="234" y="618" type="line" smooth="yes"/>
			<point x="239" y="672"/>
			<point x="244" y="714"/>
			<point x="244" y="734" type="curve" smooth="yes"/>
			<point x="244" y="749"/>
			<point x="235" y="758"/>
			<point x="223" y="758" type="curve" smooth="yes"/>
			<point x="211" y="758"/>
			<point x="202" y="749"/>
			<point x="202" y="734" type="curve" smooth="yes"/>
			<point x="202" y="712"/>
			<point x="206" y="672"/>
			<point x="211" y="618" type="curve" smooth="yes"/>
		</contour>
		<contour>
			<point x="221" y="554" type="line"/>
			<point x="225" y="543" type="line"/>
			<point x="293" y="559" type="line" smooth="yes"/>
			<point x="399" y="584"/>
			<point x="424" y="584"/>
			<point x="424" y="607" type="curve" smooth="yes"/>
			<point x="424" y="617"/>
			<point x="416" y="627"/>
			<point x="403" y="627" type="curve" smooth="yes"/>
			<point x="384" y="627"/>
			<point x="345" y="606"/>
			<point x="286" y="581" type="curve" smooth="yes"/>
		</contour>
		<contour>
			<point x="219" y="545" type="line"/>
			<point x="255" y="485" type="line" smooth="yes"/>
			<point x="296" y="416"/>
			<point x="315" y="374"/>
			<point x="334" y="374" type="curve" smooth="yes"/>
			<point x="347" y="374"/>
			<point x="355" y="384"/>
			<point x="355" y="394" type="curve" smooth="yes"/>
			<point x="355" y="416"/>
			<point x="320" y="446"/>
			<point x="274" y="498" type="curve" smooth="yes"/>
			<point x="228" y="552" type="line"/>
		</contour>
		<contour>
			<point x="221" y="542" type="line"/>
			<point x="225" y="553" type="line"/>
			<point x="160" y="580" type="line" smooth="yes"/>
			<point x="100" y="607"/>
			<point x="60" y="627"/>
			<point x="43" y="627" type="curve" smooth="yes"/>
			<point x="30" y="627"/>
			<point x="22" y="617"/>
			<point x="22" y="607" type="curve" smooth="yes"/>
			<point x="22" y="579"/>
			<point x="70" y="577"/>
			<point x="153" y="558" type="curve" smooth="yes"/>
		</contour>
		<contour>
			<point x="228" y="544" type="line"/>
			<point x="219" y="551" type="line"/>
			<point x="173" y="498" type="line" smooth="yes"/>
			<point x="125" y="443"/>
			<point x="91" y="414"/>
			<point x="91" y="394" type="curve" smooth="yes"/>
			<point x="91" y="384"/>
			<point x="99" y="374"/>
			<point x="112" y="374" type="curve" smooth="yes"/>
			<point x="132" y="374"/>
			<point x="152" y="419"/>
			<point x="192" y="484" type="curve" smooth="yes"/>
		</contour>
	</outline>
</glyph>
<glyph name="comma" format="2">
	<unicode hex="002C"/>
	<advance width="300"/>
	<outline>
		<contour>
			<point x="77" y="-150" type="line"/>
			<point x="147" y="-111"/>
			<point x="185" y="-66"/>
			<point x="185" y="5" type="curve" smooth="yes"/>
			<point x="185" y="23"/>
			<point x="182" y="30"/>
			<point x="178" y="42" type="curve"/>
			<point x="170" y="50"/>
			<point x="160" y="53"/>
			<point x="148" y="53" type="curve" smooth="yes"/>
			<point x="130" y="53"/>
			<point x="120" y="40"/>
			<point x="120" y="25" type="curve" smooth="yes"/>
			<point x="120" y="9"/>
			<point x="129" y="-2"/>
			<point x="145" y="-13" type="curve" smooth="yes"/>
			<point x="171" y="-32" type="line"/>
			<point x="163" y="-5" type="line"/>
			<point x="157" y="-72"/>
			<point x="129" y="-97"/>
			<point x="68" y="-132" type="curve"/>
		</contour>
	</outline>
</glyph>
<glyph name="slash" format="2">
	<unicode hex="002F"/>
	<advance width="290"/>
	<outline>
		<contour>
			<point x="0" y="-160" type="line"/>
			<point x="23" y="-160" type="line"/>
			<point x="290" y="710" type="line"/>
			<point x="269" y="710" type="line"/>
		</contour>
	</outline>
</glyph>
<glyph name="one" format="2">
	<unicode hex="0031"/>
	<advance width="490"/>
	<outline>
		<contour>
			<point x="83" y="0" type="line"/>
			<point x="427" y="0" type="line"/>
			<point x="427" y="20" type="line"/>
			<point x="267" y="26" type="line"/>
			<point x="253" y="26" type="line"/>
			<point x="83" y="20" type="line"/>
		</contour>
		<contour>
			<point x="243" y="0" type="curve"/>
			<point x="277" y="0" type="line"/>
			<point x="275" y="72"/>
			<point x="274" y="143"/>
			<point x="274" y="213" type="curve" smooth="yes"/>
			<point x="274" y="506" type="line"/>
			<point x="278" y="652" type="line"/>
			<point x="264" y="664" type="line"/>
			<point x="91" y="615" type="line"/>
			<point x="91" y="595" type="line"/>
			<point x="246" y="630" type="line"/>
			<point x="246" y="213" type="line" smooth="yes"/>
			<point x="246" y="143"/>
			<point x="245" y="72"/>
		</contour>
	</outline>
</glyph>
<glyph name="two" format="2">
	<unicode hex="0032"/>
	<advance width="490"/>
	<outline>
		<contour>
			<point x="49" y="0" type="line"/>
			<point x="442" y="0" type="line"/>
			<point x="442" y="28" type="line"/>
			<point x="73" y="28" type="line"/>
			<point x="73" y="40" type="line"/>
			<point x="68" y="17" type="line"/>
			<point x="145" y="104"/>
			<point x="221" y="192"/>
			<point x="246" y="221" type="curve" smooth="yes"/>
			<point x="367" y="362"/>
			<point x="407" y="429"/>
			<point x="407" y="503" type="curve" smooth="yes"/>
			<point x="407" y="610"/>
			<point x="341" y="667"/>
			<point x="230" y="667" type="curve" smooth="yes"/>
			<point x="155" y="667"/>
			<point x="77" y="624"/>
			<point x="53" y="545" type="curve"/>
			<point x="54" y="531"/>
			<point x="61" y="524"/>
			<point x="72" y="524" type="curve" smooth="yes"/>
			<point x="85" y="524"/>
			<point x="91" y="530"/>
			<point x="96" y="544" type="curve" smooth="yes"/>
			<point x="125" y="632" type="line"/>
			<point x="101" y="600" type="line"/>
			<point x="149" y="636"/>
			<point x="181" y="647"/>
			<point x="226" y="647" type="curve" smooth="yes"/>
			<point x="322" y="647"/>
			<point x="375" y="597"/>
			<point x="375" y="504" type="curve" smooth="yes"/>
			<point x="375" y="430"/>
			<point x="328" y="353"/>
			<point x="240" y="247" type="curve" smooth="yes"/>
			<point x="195" y="193"/>
			<point x="122" y="107"/>
			<point x="49" y="22" type="curve"/>
		</contour>
	</outline>
</glyph>
<glyph name="four" format="2">
	<unicode hex="0034"/>
	<advance width="490"/>
	<outline>
		<contour>
			<point x="327" y="-20" type="line"/>
			<point x="355" y="-20" type="line"/>
			<point x="355" y="663" type="line"/>
			<point x="337" y="663" type="line"/>
			<point x="34" y="199" type="line"/>
			<point x="34" y="179" type="line"/>
			<point x="476" y="179" type="line"/>
			<point x="476" y="205" type="line"/>
			<point x="56" y="205" type="line"/>
			<point x="56" y="215" type="line"/>
			<point x="49" y="188" type="line"/>
			<point x="192" y="408" type="line"/>
			<point x="335" y="628" type="line"/>
			<point x="320" y="623" type="line"/>
			<point x="327" y="623" type="line"/>
			<point x="327" y="194" type="line"/>
			<point x="327" y="185" type="line"/>
		</contour>
	</outline>
</glyph>
<glyph name="six" format="2">
	<unicode hex="0036"/>
	<advance width="490"/>
	<outline>
		<contour>
			<point x="246" y="-13" type="curve" smooth="yes"/>
			<point x="354" y="-13"/>
			<point x="437" y="70"/>
			<point x="437" y="198" type="curve" smooth="yes"/>
			<point x="437" y="319"/>
			<point x="370" y="395"/>
			<point x="261" y="395" type="curve" smooth="yes"/>
			<point x="184" y="395"/>
			<point x="124" y="359"/>
			<point x="69" y="281" type="curve"/>
			<point x="66" y="281" type="line"/>
			<point x="79" y="272" type="line"/>
			<point x="140" y="347"/>
			<point x="191" y="375"/>
			<point x="256" y="375" type="curve" smooth="yes"/>
			<point x="348" y="375"/>
			<point x="405" y="310"/>
			<point x="405" y="195" type="curve" smooth="yes"/>
			<point x="405" y="74"/>
			<point x="336" y="7"/>
			<point x="250" y="7" type="curve" smooth="yes"/>
			<point x="146" y="7"/>
			<point x="84" y="95"/>
			<point x="84" y="241" type="curve" smooth="yes"/>
			<point x="84" y="438"/>
			<point x="212" y="611"/>
			<point x="435" y="651" type="curve"/>
			<point x="432" y="667" type="line"/>
			<point x="198" y="635"/>
			<point x="53" y="446"/>
			<point x="53" y="244" type="curve" smooth="yes"/>
			<point x="53" y="88"/>
			<point x="119" y="-13"/>
		</contour>
	</outline>
</glyph>
<glyph name="eight" format="2">
	<unicode hex="0038"/>
	<advance width="490"/>
	<outline>
		<contour>
			<point x="242" y="-13" type="curve" smooth="yes"/>
			<point x="359" y="-13"/>
			<point x="438" y="49"/>
			<point x="438" y="146" type="curve" smooth="yes"/>
			<point x="438" y="227"/>
			<point x="391" y="287"/>
			<point x="251" y="346" type="curve" smooth="yes"/>
			<point x="142" y="391"/>
			<point x="103" y="445"/>
			<point x="103" y="512" type="curve" smooth="yes"/>
			<point x="103" y="595"/>
			<point x="170" y="647"/>
			<point x="244" y="647" type="curve" smooth="yes"/>
			<point x="334" y="647"/>
			<point x="381" y="584"/>
			<point x="381" y="513" type="curve" smooth="yes"/>
			<point x="381" y="436"/>
			<point x="335" y="387"/>
			<point x="235" y="341" type="curve"/>
			<point x="250" y="329" type="line"/>
			<point x="250" y="334" type="line"/>
			<point x="367" y="379"/>
			<point x="409" y="445"/>
			<point x="409" y="513" type="curve" smooth="yes"/>
			<point x="409" y="605"/>
			<point x="344" y="667"/>
			<point x="244" y="667" type="curve" smooth="yes"/>
			<point x="151" y="667"/>
			<point x="75" y="604"/>
			<point x="75" y="511" type="curve" smooth="yes"/>
			<point x="75" y="436"/>
			<point x="117" y="374"/>
			<point x="228" y="327" type="curve" smooth="yes"/>
			<point x="363" y="270"/>
			<point x="410" y="212"/>
			<point x="410" y="143" type="curve" smooth="yes"/>
			<point x="410" y="61"/>
			<point x="347" y="7"/>
			<point x="242" y="7" type="curve" smooth="yes"/>
			<point x="138" y="7"/>
			<point x="80" y="62"/>
			<point x="80" y="145" type="curve" smooth="yes"/>
			<point x="80" y="221"/>
			<point x="129" y="273"/>
			<point x="245" y="329" type="curve"/>
			<point x="228" y="342" type="line"/>
			<point x="228" y="337" type="line"/>
			<point x="113" y="285"/>
			<point x="52" y="228"/>
			<point x="52" y="143" type="curve" smooth="yes"/>
			<point x="52" y="52"/>
			<point x="117" y="-13"/>
		</contour>
	</outline>
</glyph>
<glyph name="at" format="2">
	<unicode hex="0040"/>
	<advance width="815"/>
	<outline>
		<contour>
			<point x="346" y="58" type="curve" smooth="yes"/>
			<point x="401" y="58"/>
			<point x="445" y="91"/>
			<point x="496" y="163" type="curve"/>
			<point x="498" y="163" type="line"/>
			<point x="489" y="173" type="line"/>
			<point x="427" y="99"/>
			<point x="389" y="83"/>
			<point x="354" y="83" type="curve" smooth="yes"/>
			<point x="308" y="83"/>
			<point x="272" y="123"/>
			<point x="272" y="196" type="curve" smooth="yes"/>
			<point x="272" y="292"/>
			<point x="346" y="447"/>
			<point x="453" y="447" type="curve" smooth="yes"/>
			<point x="491" y="447"/>
			<point x="518" y="431"/>
			<point x="538" y="392" type="curve"/>
			<point x="553" y="421" type="line"/>
			<point x="525" y="455"/>
			<point x="498" y="470"/>
			<point x="460" y="470" type="curve" smooth="yes"/>
			<point x="332" y="470"/>
			<point x="242" y="302"/>
			<point x="242" y="183" type="curve" smooth="yes"/>
			<point x="242" y="101"/>
			<point x="284" y="58"/>
		</contour>
		<contour>
			<point x="557" y="58" type="curve" smooth="yes"/>
			<point x="662" y="58"/>
			<point x="780" y="163"/>
			<point x="780" y="344" type="curve" smooth="yes"/>
			<point x="780" y="532"/>
			<point x="655" y="664"/>
			<point x="468" y="664" type="curve" smooth="yes"/>
			<point x="214" y="664"/>
			<point x="35" y="443"/>
			<point x="35" y="192" type="curve" smooth="yes"/>
			<point x="35" y="-25"/>
			<point x="174" y="-155"/>
			<point x="378" y="-155" type="curve" smooth="yes"/>
			<point x="451" y="-155"/>
			<point x="511" y="-141"/>
			<point x="567" y="-112" type="curve"/>
			<point x="561" y="-97" type="line"/>
			<point x="506" y="-123"/>
			<point x="457" y="-135"/>
			<point x="383" y="-135" type="curve" smooth="yes"/>
			<point x="202" y="-135"/>
			<point x="63" y="-10"/>
			<point x="63" y="198" type="curve" smooth="yes"/>
			<point x="63" y="442"/>
			<point x="238" y="644"/>
			<point x="462" y="644" type="curve" smooth="yes"/>
			<point x="640" y="644"/>
			<point x="760" y="529"/>
			<point x="760" y="346" type="curve" smooth="yes"/>
			<point x="760" y="179"/>
			<point x="652" y="78"/>
			<point x="568" y="78" type="curve" smooth="yes"/>
			<point x="515" y="78"/>
			<point x="498" y="107"/>
			<point x="510" y="165" type="curve" smooth="yes"/>
			<point x="568" y="455" type="line"/>
			<point x="555" y="460" type="line"/>
			<point x="535" y="424" type="line"/>
			<point x="481" y="159" type="line"/>
			<point x="482" y="151" type="line"/>
			<point x="475" y="89"/>
			<point x="503" y="58"/>
		</contour>
	</outline>
</glyph>
<glyph name="A" format="2">
	<unicode hex="0041"/>
	<advance width="653"/>
	<outline>
		<contour>
			<point x="12" y="0" type="line"/>
			<point x="210" y="0" type="line"/>
			<point x="210" y="20" type="line"/>
			<point x="113" y="26" type="line"/>
			<point x="99" y="26" type="line"/>
			<point x="12" y="20" type="line"/>
		</contour>
		<contour>
			<point x="85" y="0" type="line"/>
			<point x="114" y="0" type="line"/>
			<point x="320" y="653" type="line"/>
			<point x="324" y="665" type="line"/>
			<point x="306" y="665" type="line"/>
			<point x="524" y="0" type="line"/>
			<point x="556" y="0" type="line"/>
			<point x="327" y="684" type="line"/>
			<point x="307" y="684" type="line"/>
		</contour>
		<contour>
			<point x="181" y="247" type="line"/>
			<point x="456" y="247" type="line"/>
			<point x="456" y="267" type="line"/>
			<point x="181" y="267" type="line"/>
		</contour>
		<contour>
			<point x="403" y="0" type="line"/>
			<point x="651" y="0" type="line"/>
			<point x="651" y="20" type="line"/>
			<point x="537" y="26" type="line"/>
			<point x="523" y="26" type="line"/>
			<point x="403" y="20" type="line"/>
		</contour>
	</outline>
	<anchor name="aboveUC" x="317" y="696"/>
	<anchor name="belowLC" x="308" y="-20"/>
	<anchor name="ogonek" x="536" y="0"/>
</glyph>
<glyph name="C" format="2">
	<unicode hex="0043"/>
	<advance width="644"/>
	<outline>
		<contour>
			<point x="388" y="-13" type="curve" smooth="yes"/>
			<point x="460" y="-13"/>
			<point x="517" y="-1"/>
			<point x="584" y="40" type="curve"/>
			<point x="588" y="179" type="line"/>
			<point x="564" y="179" type="line"/>
			<point x="546" y="40" type="line"/>
			<point x="563" y="44" type="line"/>
			<point x="563" y="60" type="line"/>
			<point x="508" y="23"/>
			<point x="453" y="9"/>
			<point x="386" y="9" type="curve" smooth="yes"/>
			<point x="219" y="9"/>
			<point x="96" y="135"/>
			<point x="96" y="338" type="curve" smooth="yes"/>
			<point x="96" y="537"/>
			<point x="212" y="667"/>
			<point x="392" y="667" type="curve" smooth="yes"/>
			<point x="465" y="667"/>
			<point x="505" y="650"/>
			<point x="561" y="613" type="curve"/>
			<point x="561" y="633" type="line"/>
			<point x="540" y="642" type="line"/>
			<point x="558" y="497" type="line"/>
			<point x="582" y="497" type="line"/>
			<point x="578" y="636" type="line"/>
			<point x="518" y="671"/>
			<point x="469" y="689"/>
			<point x="389" y="689" type="curve" smooth="yes"/>
			<point x="199" y="689"/>
			<point x="64" y="548"/>
			<point x="64" y="338" type="curve" smooth="yes"/>
			<point x="64" y="129"/>
			<point x="193" y="-13"/>
		</contour>
	</outline>
	<anchor name="aboveUC" x="383" y="696"/>
	<anchor name="baseLC" x="381" y="0"/>
	<anchor name="belowLC" x="386" y="-20"/>
</glyph>
<glyph name="D" format="2">
	<unicode hex="0044"/>
	<advance width="709"/>
	<outline>
		<contour>
			<point x="58" y="0" type="line"/>
			<point x="182" y="0" type="line"/>
			<point x="182" y="27" type="line"/>
			<point x="175" y="27" type="line"/>
			<point x="58" y="20" type="line"/>
		</contour>
		<contour>
			<point x="165" y="0" type="curve"/>
			<point x="199" y="0" type="line"/>
			<point x="197" y="102"/>
			<point x="197" y="206"/>
			<point x="197" y="340" type="curve" smooth="yes"/>
			<point x="197" y="355" type="line" smooth="yes"/>
			<point x="197" y="471"/>
			<point x="197" y="575"/>
			<point x="199" y="677" type="curve"/>
			<point x="165" y="677" type="line"/>
			<point x="167" y="575"/>
			<point x="167" y="471"/>
			<point x="167" y="355" type="curve" smooth="yes"/>
			<point x="167" y="340" type="line" smooth="yes"/>
			<point x="167" y="206"/>
			<point x="167" y="102"/>
		</contour>
		<contour>
			<point x="182" y="0" type="line"/>
			<point x="306" y="0" type="line" smooth="yes"/>
			<point x="527" y="0"/>
			<point x="645" y="135"/>
			<point x="645" y="338" type="curve" smooth="yes"/>
			<point x="645" y="555"/>
			<point x="525" y="677"/>
			<point x="315" y="677" type="curve" smooth="yes"/>
			<point x="182" y="677" type="line"/>
			<point x="182" y="655" type="line"/>
			<point x="308" y="655" type="line" smooth="yes"/>
			<point x="508" y="655"/>
			<point x="613" y="544"/>
			<point x="613" y="338" type="curve" smooth="yes"/>
			<point x="613" y="146"/>
			<point x="510" y="22"/>
			<point x="293" y="22" type="curve" smooth="yes"/>
			<point x="182" y="22" type="line"/>
		</contour>
		<contour>
			<point x="58" y="657" type="line"/>
			<point x="175" y="650" type="line"/>
			<point x="182" y="650" type="line"/>
			<point x="182" y="677" type="line"/>
			<point x="58" y="677" type="line"/>
		</contour>
	</outline>
	<anchor name="aboveUC" x="331" y="682"/>
	<anchor name="belowLC" x="333" y="-22"/>
</glyph>
<glyph name="H" format="2">
	<unicode hex="0048"/>
	<advance width="794"/>
	<outline>
		<contour>
			<point x="58" y="0" type="line"/>
			<point x="306" y="0" type="line"/>
			<point x="306" y="20" type="line"/>
			<point x="189" y="27" type="line"/>
			<point x="175" y="27" type="line"/>
			<point x="58" y="20" type="line"/>
		</contour>
		<contour>
			<point x="165" y="0" type="curve"/>
			<point x="199" y="0" type="line"/>
			<point x="197" y="102"/>
			<point x="197" y="206"/>
			<point x="197" y="352" type="curve" smooth="yes"/>
			<point x="197" y="367" type="line" smooth="yes"/>
			<point x="197" y="471"/>
			<point x="197" y="574"/>
			<point x="199" y="676" type="curve"/>
			<point x="165" y="676" type="line"/>
			<point x="167" y="574"/>
			<point x="167" y="471"/>
			<point x="167" y="367" type="curve" smooth="yes"/>
			<point x="167" y="310" type="line" smooth="yes"/>
			<point x="167" y="206"/>
			<point x="167" y="102"/>
		</contour>
		<contour>
			<point x="182" y="348" type="line"/>
			<point x="613" y="348" type="line"/>
			<point x="613" y="370" type="line"/>
			<point x="182" y="370" type="line"/>
		</contour>
		<contour>
			<point x="488" y="0" type="line"/>
			<point x="736" y="0" type="line"/>
			<point x="736" y="20" type="line"/>
			<point x="620" y="27" type="line"/>
			<point x="606" y="27" type="line"/>
			<point x="488" y="20" type="line"/>
		</contour>
		<contour>
			<point x="595" y="0" type="curve"/>
			<point x="629" y="0" type="line"/>
			<point x="627" y="102"/>
			<point x="627" y="206"/>
			<point x="627" y="310" type="curve" smooth="yes"/>
			<point x="627" y="367" type="line" smooth="yes"/>
			<point x="627" y="471"/>
			<point x="627" y="574"/>
			<point x="629" y="676" type="curve"/>
			<point x="595" y="676" type="line"/>
			<point x="597" y="574"/>
			<point x="597" y="471"/>
			<point x="597" y="367" type="curve" smooth="yes"/>
			<point x="597" y="352" type="line" smooth="yes"/>
			<point x="597" y="206"/>
			<point x="597" y="102"/>
		</contour>
		<contour>
			<point x="58" y="656" type="line"/>
			<point x="175" y="649" type="line"/>
			<point x="189" y="649" type="line"/>
			<point x="306" y="656" type="line"/>
			<point x="306" y="676" type="line"/>
			<point x="58" y="676" type="line"/>
		</contour>
		<contour>
			<point x="488" y="656" type="line"/>
			<point x="606" y="649" type="line"/>
			<point x="620" y="649" type="line"/>
			<point x="736" y="656" type="line"/>
			<point x="736" y="676" type="line"/>
			<point x="488" y="676" type="line"/>
		</contour>
	</outline>
	<anchor name="aboveUC" x="397" y="696"/>
	<anchor name="belowLC" x="397" y="-20"/>
</glyph>
<glyph name="J" format="2">
	<unicode hex="004A"/>
	<advance width="356"/>
	<outline>
		<contour>
			<point x="-25" y="-141"/>
			<point x="-6" y="-147"/>
			<point x="25" y="-147" type="curve" smooth="yes"/>
			<point x="69" y="-147"/>
			<point x="108" y="-130"/>
			<point x="140" y="-98" type="curve" smooth="yes"/>
			<point x="191" y="-47"/>
			<point x="210" y="3"/>
			<point x="210" y="167" type="curve" smooth="yes"/>
			<point x="210" y="362" type="line" smooth="yes"/>
			<point x="210" y="469"/>
			<point x="210" y="574"/>
			<point x="212" y="677" type="curve"/>
			<point x="177" y="677" type="line"/>
			<point x="182" y="154"/>
			<point x="179" y="124"/>
			<point x="179" y="95" type="curve" smooth="yes"/>
			<point x="179" y="-60"/>
			<point x="106" y="-114"/>
			<point x="59" y="-128" type="curve"/>
			<point x="56" y="-135" type="line"/>
			<point x="67" y="-136" type="line"/>
			<point x="82" y="-129" type="line"/>
			<point x="65" y="-119" type="line" smooth="yes"/>
			<point x="42" y="-106"/>
			<point x="26" y="-102"/>
			<point x="7" y="-102" type="curve" smooth="yes"/>
			<point x="-12" y="-102"/>
			<point x="-29" y="-110"/>
			<point x="-33" y="-126" type="curve"/>
		</contour>
		<contour>
			<point x="60" y="657" type="line"/>
			<point x="187" y="650" type="line"/>
			<point x="201" y="650" type="line"/>
			<point x="318" y="657" type="line"/>
			<point x="318" y="677" type="line"/>
			<point x="60" y="677" type="line"/>
		</contour>
	</outline>
	<anchor name="aboveUC" x="188" y="682"/>
	<anchor name="belowLC" x="80" y="-162"/>
</glyph>
<glyph name="M" format="2">
	<unicode hex="004D"/>
	<advance width="897"/>
	<outline>
		<contour>
			<point x="46" y="0" type="line"/>
			<point x="264" y="0" type="line"/>
			<point x="264" y="20" type="line"/>
			<point x="157" y="27" type="line"/>
			<point x="143" y="27" type="line"/>
			<point x="46" y="20" type="line"/>
		</contour>
		<contour>
			<point x="36" y="657" type="line"/>
			<point x="153" y="650" type="line"/>
			<point x="157" y="650" type="line"/>
			<point x="157" y="677" type="line"/>
			<point x="36" y="677" type="line"/>
		</contour>
		<contour>
			<point x="138" y="0" type="line"/>
			<point x="162" y="0" type="line"/>
			<point x="162" y="380" type="line"/>
			<point x="157" y="677" type="line"/>
			<point x="138" y="677" type="line"/>
		</contour>
		<contour>
			<point x="427" y="0" type="line"/>
			<point x="439" y="0" type="line"/>
			<point x="722" y="677" type="line"/>
			<point x="696" y="677" type="line"/>
			<point x="430" y="40" type="line"/>
			<point x="439" y="40" type="line"/>
			<point x="171" y="677" type="line"/>
			<point x="138" y="677" type="line"/>
		</contour>
		<contour>
			<point x="591" y="0" type="line"/>
			<point x="839" y="0" type="line"/>
			<point x="839" y="20" type="line"/>
			<point x="722" y="27" type="line"/>
			<point x="708" y="27" type="line"/>
			<point x="591" y="20" type="line"/>
		</contour>
		<contour>
			<point x="698" y="0" type="curve"/>
			<point x="732" y="0" type="line"/>
			<point x="730" y="102"/>
			<point x="730" y="206"/>
			<point x="730" y="310" type="curve" smooth="yes"/>
			<point x="730" y="367" type="line" smooth="yes"/>
			<point x="730" y="471"/>
			<point x="730" y="575"/>
			<point x="732" y="677" type="curve"/>
			<point x="703" y="677" type="line"/>
			<point x="700" y="300" type="line" smooth="yes"/>
			<point x="699" y="206"/>
			<point x="700" y="102"/>
		</contour>
		<contour>
			<point x="715" y="650" type="line"/>
			<point x="722" y="650" type="line"/>
			<point x="839" y="657" type="line"/>
			<point x="839" y="677" type="line"/>
			<point x="715" y="677" type="line"/>
		</contour>
	</outline>
	<anchor name="aboveUC" x="440" y="682"/>
	<anchor name="belowLC" x="432" y="-22"/>
</glyph>
<glyph name="N" format="2">
	<unicode hex="004E"/>
	<advance width="732"/>
	<outline>
		<contour>
			<point x="48" y="0" type="line"/>
			<point x="276" y="0" type="line"/>
			<point x="276" y="20" type="line"/>
			<point x="159" y="27" type="line"/>
			<point x="145" y="27" type="line"/>
			<point x="48" y="20" type="line"/>
		</contour>
		<contour>
			<point x="139" y="0" type="line"/>
			<point x="163" y="0" type="line"/>
			<point x="163" y="654" type="line"/>
			<point x="139" y="654" type="line"/>
		</contour>
		<contour>
			<point x="466" y="657" type="line"/>
			<point x="583" y="650" type="line"/>
			<point x="597" y="650" type="line"/>
			<point x="694" y="657" type="line"/>
			<point x="694" y="677" type="line"/>
			<point x="466" y="677" type="line"/>
		</contour>
		<contour>
			<point x="582" y="-7" type="line"/>
			<point x="602" y="-7" type="line"/>
			<point x="602" y="677" type="line"/>
			<point x="578" y="677" type="line"/>
			<point x="578" y="48" type="line"/>
			<point x="155" y="677" type="line"/>
			<point x="38" y="677" type="line"/>
			<point x="38" y="657" type="line"/>
			<point x="137" y="653" type="line"/>
		</contour>
	</outline>
	<anchor name="aboveUC" x="362" y="682"/>
	<anchor name="belowLC" x="374" y="-22"/>
</glyph>
<glyph name="Q" format="2">
	<unicode hex="0051"/>
	<advance width="706"/>
	<outline>
		<contour>
			<point x="492" y="-198" type="curve" smooth="yes"/>
			<point x="525" y="-198"/>
			<point x="566" y="-190"/>
			<point x="598" y="-170" type="curve"/>
			<point x="592" y="-156" type="line"/>
			<point x="562" y="-169"/>
			<point x="533" y="-176"/>
			<point x="494" y="-176" type="curve" smooth="yes"/>
			<point x="412" y="-176"/>
			<point x="358" y="-106"/>
			<point x="364" y="0" type="curve"/>
			<point x="335" y="0" type="line"/>
			<point x="335" y="-12" type="line" smooth="yes"/>
			<point x="335" y="-103"/>
			<point x="375" y="-198"/>
		</contour>
		<component base="O"/>
	</outline>
	<anchor name="aboveUC" x="353" y="696"/>
</glyph>
<glyph name="T" format="2">
	<unicode hex="0054"/>
	<advance width="594"/>
	<outline>
		<contour>
			<point x="163" y="0" type="line"/>
			<point x="431" y="0" type="line"/>
			<point x="431" y="20" type="line"/>
			<point x="304" y="27" type="line"/>
			<point x="290" y="27" type="line"/>
			<point x="163" y="20" type="line"/>
		</contour>
		<contour>
			<point x="280" y="0" type="curve"/>
			<point x="314" y="0" type="line"/>
			<point x="312" y="102"/>
			<point x="312" y="206"/>
			<point x="312" y="310" type="curve" smooth="yes"/>
			<point x="312" y="367" type="line" smooth="yes"/>
			<point x="312" y="471"/>
			<point x="312" y="574"/>
			<point x="314" y="676" type="curve"/>
			<point x="280" y="676" type="line"/>
			<point x="282" y="574"/>
			<point x="282" y="471"/>
			<point x="282" y="367" type="curve" smooth="yes"/>
			<point x="282" y="310" type="line" smooth="yes"/>
			<point x="282" y="206"/>
			<point x="282" y="102"/>
		</contour>
		<contour>
			<point x="20" y="513" type="line"/>
			<point x="44" y="513" type="line"/>
			<point x="63" y="676" type="line"/>
			<point x="49" y="654" type="line"/>
			<point x="545" y="654" type="line"/>
			<point x="531" y="676" type="line"/>
			<point x="550" y="513" type="line"/>
			<point x="574" y="513" type="line"/>
			<point x="564" y="676" type="line"/>
			<point x="30" y="676" type="line"/>
		</contour>
	</outline>
	<anchor name="aboveUC" x="297" y="696"/>
	<anchor name="baseLC" x="297" y="0"/>
	<anchor name="belowLC" x="297" y="-20"/>
</glyph>
<glyph name="U" format="2">
	<unicode hex="0055"/>
	<advance width="737"/>
	<outline>
		<contour>
			<point x="370" y="-13" type="curve" smooth="yes"/>
			<point x="528" y="-13"/>
			<point x="599" y="82"/>
			<point x="599" y="248" type="curve" smooth="yes"/>
			<point x="599" y="676" type="line"/>
			<point x="575" y="676" type="line"/>
			<point x="575" y="274" type="line" smooth="yes"/>
			<point x="575" y="87"/>
			<point x="515" y="13"/>
			<point x="370" y="13" type="curve" smooth="yes"/>
			<point x="254" y="13"/>
			<point x="178" y="80"/>
			<point x="178" y="256" type="curve" smooth="yes"/>
			<point x="178" y="361" type="line" smooth="yes"/>
			<point x="178" y="469"/>
			<point x="178" y="572"/>
			<point x="180" y="676" type="curve"/>
			<point x="146" y="676" type="line"/>
			<point x="148" y="572"/>
			<point x="148" y="467"/>
			<point x="148" y="361" type="curve" smooth="yes"/>
			<point x="148" y="249" type="line" smooth="yes"/>
			<point x="148" y="61"/>
			<point x="234" y="-13"/>
		</contour>
		<contour>
			<point x="50" y="656" type="line"/>
			<point x="157" y="649" type="line"/>
			<point x="171" y="649" type="line"/>
			<point x="288" y="656" type="line"/>
			<point x="288" y="676" type="line"/>
			<point x="50" y="676" type="line"/>
		</contour>
		<contour>
			<point x="453" y="656" type="line"/>
			<point x="580" y="649" type="line"/>
			<point x="594" y="649" type="line"/>
			<point x="689" y="656" type="line"/>
			<point x="689" y="676" type="line"/>
			<point x="453" y="676" type="line"/>
		</contour>
	</outline>
	<anchor name="aboveUC" x="380" y="696"/>
	<anchor name="belowLC" x="376" y="-20"/>
	<anchor name="hornLC" x="599" y="614"/>
	<anchor name="ogonek" x="458" y="0"/>
</glyph>
<glyph name="V" format="2">
	<unicode hex="0056"/>
	<advance width="648"/>
	<outline>
		<contour>
			<point x="316" y="-7" type="line"/>
			<point x="336" y="-7" type="line"/>
			<point x="557" y="677" type="line"/>
			<point x="531" y="677" type="line"/>
			<point x="320" y="7" type="line"/>
			<point x="338" y="8" type="line"/>
			<point x="117" y="677" type="line"/>
			<point x="86" y="677" type="line"/>
		</contour>
		<contour>
			<point x="0" y="657" type="line"/>
			<point x="105" y="650" type="line"/>
			<point x="115" y="650" type="line"/>
			<point x="238" y="657" type="line"/>
			<point x="238" y="677" type="line"/>
			<point x="0" y="677" type="line"/>
		</contour>
		<contour>
			<point x="410" y="657" type="line"/>
			<point x="528" y="650" type="line"/>
			<point x="542" y="650" type="line"/>
			<point x="638" y="657" type="line"/>
			<point x="638" y="677" type="line"/>
			<point x="410" y="677" type="line"/>
		</contour>
	</outline>
	<anchor name="aboveUC" x="322" y="682"/>
	<anchor name="belowLC" x="330" y="-22"/>
</glyph>
<glyph name="X" format="2">
	<unicode hex="0058"/>
	<advance width="637"/>
	<outline>
		<contour>
			<point x="20" y="0" type="line"/>
			<point x="248" y="0" type="line"/>
			<point x="248" y="20" type="line"/>
			<point x="128" y="27" type="line"/>
			<point x="114" y="27" type="line"/>
			<point x="20" y="20" type="line"/>
		</contour>
		<contour>
			<point x="89" y="0" type="line"/>
			<point x="119" y="0" type="line"/>
			<point x="317" y="328" type="line"/>
			<point x="305" y="349" type="line"/>
		</contour>
		<contour>
			<point x="389" y="0" type="line"/>
			<point x="617" y="0" type="line"/>
			<point x="617" y="20" type="line"/>
			<point x="517" y="27" type="line"/>
			<point x="503" y="27" type="line"/>
			<point x="389" y="20" type="line"/>
		</contour>
		<contour>
			<point x="329" y="342" type="line"/>
			<point x="533" y="677" type="line"/>
			<point x="504" y="677" type="line"/>
			<point x="318" y="362" type="line"/>
		</contour>
		<contour>
			<point x="509" y="0" type="line"/>
			<point x="541" y="0" type="line"/>
			<point x="137" y="677" type="line"/>
			<point x="105" y="677" type="line"/>
		</contour>
		<contour>
			<point x="33" y="657" type="line"/>
			<point x="130" y="650" type="line"/>
			<point x="144" y="650" type="line"/>
			<point x="261" y="657" type="line"/>
			<point x="261" y="677" type="line"/>
			<point x="33" y="677" type="line"/>
		</contour>
		<contour>
			<point x="382" y="657" type="line"/>
			<point x="499" y="650" type="line"/>
			<point x="513" y="650" type="line"/>
			<point x="610" y="657" type="line"/>
			<point x="610" y="677" type="line"/>
			<point x="382" y="677" type="line"/>
		</contour>
	</outline>
	<anchor name="aboveUC" x="323" y="682"/>
	<anchor name="belowLC" x="327" y="-22"/>
</glyph>
<glyph name="Y" format="2">
	<unicode hex="0059"/>
	<advance width="635"/>
	<outline>
		<contour>
			<point x="184" y="0" type="line"/>
			<point x="452" y="0" type="line"/>
			<point x="452" y="20" type="line"/>
			<point x="325" y="27" type="line"/>
			<point x="311" y="27" type="line"/>
			<point x="184" y="20" type="line"/>
		</contour>
		<contour>
			<point x="301" y="0" type="curve"/>
			<point x="335" y="0" type="line"/>
			<point x="333" y="97"/>
			<point x="333" y="115"/>
			<point x="333" y="289" type="curve"/>
			<point x="303" y="289" type="line"/>
			<point x="303" y="115"/>
			<point x="303" y="97"/>
		</contour>
		<contour>
			<point x="313" y="253" type="line"/>
			<point x="323" y="253" type="line"/>
			<point x="536" y="676" type="line"/>
			<point x="510" y="676" type="line"/>
			<point x="317" y="286" type="line"/>
			<point x="313" y="279" type="line"/>
			<point x="330" y="279" type="line"/>
			<point x="131" y="676" type="line"/>
			<point x="99" y="676" type="line"/>
		</contour>
		<contour>
			<point x="31" y="656" type="line"/>
			<point x="123" y="649" type="line"/>
			<point x="137" y="649" type="line"/>
			<point x="254" y="656" type="line"/>
			<point x="254" y="676" type="line"/>
			<point x="31" y="676" type="line"/>
		</contour>
		<contour>
			<point x="386" y="656" type="line"/>
			<point x="502" y="649" type="line"/>
			<point x="516" y="649" type="line"/>
			<point x="609" y="656" type="line"/>
			<point x="609" y="676" type="line"/>
			<point x="386" y="676" type="line"/>
		</contour>
	</outline>
	<anchor name="aboveUC" x="328" y="696"/>
	<anchor name="belowLC" x="317" y="-20"/>
</glyph>
<glyph name="Z" format="2">
	<unicode hex="005A"/>
	<advance width="555"/>
	<outline>
		<contour>
			<point x="30" y="0" type="line"/>
			<point x="515" y="0" type="line"/>
			<point x="525" y="163" type="line"/>
			<point x="503" y="163" type="line"/>
			<point x="481" y="10" type="line"/>
			<point x="498" y="22" type="line"/>
			<point x="280" y="22" type="line"/>
			<point x="63" y="22" type="line"/>
			<point x="63" y="30" type="line"/>
			<point x="57" y="9" type="line"/>
			<point x="506" y="656" type="line"/>
			<point x="506" y="676" type="line"/>
			<point x="53" y="676" type="line"/>
			<point x="45" y="513" type="line"/>
			<point x="67" y="513" type="line"/>
			<point x="88" y="668" type="line"/>
			<point x="68" y="654" type="line"/>
			<point x="272" y="654" type="line"/>
			<point x="475" y="654" type="line"/>
			<point x="475" y="646" type="line"/>
			<point x="480" y="666" type="line"/>
			<point x="30" y="20" type="line"/>
		</contour>
	</outline>
	<anchor name="aboveUC" x="272" y="696"/>
	<anchor name="belowLC" x="290" y="-20"/>
</glyph>
<glyph name="underscore" format="2">
	<unicode hex="005F"/>
	<advance width="510"/>
	<outline>
		<contour>
			<point x="-5" y="-57" type="line"/>
			<point x="515" y="-57" type="line"/>
			<point x="515" y="-31" type="line"/>
			<point x="-5" y="-31" type="line"/>
		</contour>
	</outline>
</glyph>
<glyph name="grave" format="2">
	<unicode hex="0060"/>
	<advance width="400"/>
	<outline>
		<contour>
			<point x="247" y="572" type="line"/>
			<point x="211" y="621"/>
			<point x="174" y="671"/>
			<point x="146" y="707" type="curve" smooth="yes"/>
			<point x="128" y="730"/>
			<point x="122" y="738"/>
			<point x="112" y="738" type="curve" smooth="yes"/>
			<point x="103" y="738"/>
			<point x="95" y="732"/>
			<point x="95" y="721" type="curve" smooth="yes"/>
			<point x="95" y="711"/>
			<point x="104" y="702"/>
			<point x="124" y="681" type="curve" smooth="yes"/>
			<point x="153" y="651"/>
			<point x="194" y="607"/>
			<point x="236" y="563" type="curve"/>
		</contour>
	</outline>
</glyph>
<glyph name="e" format="2">
	<unicode hex="0065"/>
	<advance width="491"/>
	<outline>
		<contour>
			<point x="52" y="62"/>
			<point x="163" y="-13"/>
			<point x="273" y="-13" type="curve" smooth="yes"/>
			<point x="338" y="-13"/>
			<point x="401" y="16"/>
			<point x="441" y="66" type="curve"/>
			<point x="430" y="77" type="line"/>
			<point x="390" y="35"/>
			<point x="337" y="13"/>
			<point x="273" y="13" type="curve" smooth="yes"/>
			<point x="178" y="13"/>
			<point x="84" y="80"/>
			<point x="84" y="248" type="curve" smooth="yes"/>
			<point x="84" y="360"/>
			<point x="158" y="463"/>
			<point x="265" y="463" type="curve" smooth="yes"/>
			<point x="363" y="463"/>
			<point x="415" y="385"/>
			<point x="415" y="302" type="curve" smooth="yes"/>
			<point x="415" y="273"/>
			<point x="409" y="263"/>
			<point x="395" y="263" type="curve" smooth="yes"/>
			<point x="70" y="264" type="line"/>
			<point x="70" y="243" type="line"/>
			<point x="439" y="242" type="line"/>
			<point x="443" y="257"/>
			<point x="445" y="275"/>
			<point x="445" y="299" type="curve" smooth="yes"/>
			<point x="445" y="397"/>
			<point x="381" y="483"/>
			<point x="265" y="483" type="curve" smooth="yes"/>
			<point x="154" y="483"/>
			<point x="52" y="389"/>
			<point x="52" y="237" type="curve" smooth="yes"/>
		</contour>
	</outline>
	<anchor name="aboveLC" x="271" y="500"/>
	<anchor name="belowLC" x="276" y="-22"/>
	<anchor name="ogonek" x="353" y="0"/>
</glyph>
<glyph name="f" format="2">
	<unicode hex="0066"/>
	<advance width="354"/>
	<outline>
		<contour>
			<point x="33" y="0" type="line"/>
			<point x="271" y="0" type="line"/>
			<point x="271" y="20" type="line"/>
			<point x="152" y="26" type="line"/>
			<point x="143" y="26" type="line"/>
			<point x="33" y="20" type="line"/>
		</contour>
		<contour>
			<point x="131" y="0" type="curve"/>
			<point x="167" y="0" type="line"/>
			<point x="165" y="70"/>
			<point x="163" y="140"/>
			<point x="163" y="210" type="curve" smooth="yes"/>
			<point x="163" y="456" type="line"/>
			<point x="163" y="583"/>
			<point x="176" y="627"/>
			<point x="205" y="672" type="curve" smooth="yes"/>
			<point x="229" y="709"/>
			<point x="273" y="741"/>
			<point x="311" y="742" type="curve"/>
			<point x="311" y="752" type="line"/>
			<point x="295" y="752" type="line"/>
			<point x="295" y="745" type="line"/>
			<point x="310" y="734" type="line" smooth="yes"/>
			<point x="337" y="714"/>
			<point x="352" y="704"/>
			<point x="369" y="704" type="curve" smooth="yes"/>
			<point x="384" y="704"/>
			<point x="393" y="713"/>
			<point x="393" y="724" type="curve"/>
			<point x="387" y="742"/>
			<point x="355" y="758"/>
			<point x="318" y="758" type="curve" smooth="yes"/>
			<point x="280" y="758"/>
			<point x="240" y="741"/>
			<point x="210" y="712" type="curve" smooth="yes"/>
			<point x="160" y="665"/>
			<point x="134" y="591"/>
			<point x="134" y="468" type="curve" smooth="yes"/>
			<point x="134" y="465" type="line"/>
			<point x="147" y="471" type="line"/>
			<point x="34" y="466" type="line"/>
			<point x="34" y="446" type="line"/>
			<point x="135" y="446" type="line"/>
			<point x="135" y="210" type="line" smooth="yes"/>
			<point x="135" y="140"/>
			<point x="133" y="70"/>
		</contour>
		<contour>
			<point x="149" y="446" type="line"/>
			<point x="327" y="446" type="line"/>
			<point x="327" y="470" type="line"/>
			<point x="149" y="470" type="line"/>
		</contour>
	</outline>
	<anchor name="aboveLC" x="307" y="748"/>
	<anchor name="belowLC" x="150" y="-20"/>
</glyph>
<glyph name="g" format="2">
	<unicode hex="0067"/>
	<advance width="510"/>
	<outline>
		<contour>
			<point x="225" y="-245" type="curve" smooth="yes"/>
			<point x="387" y="-245"/>
			<point x="474" y="-168"/>
			<point x="474" y="-89" type="curve" smooth="yes"/>
			<point x="474" y="-14"/>
			<point x="422" y="24"/>
			<point x="331" y="24" type="curve" smooth="yes"/>
			<point x="185" y="24" type="line" smooth="yes"/>
			<point x="130" y="24"/>
			<point x="112" y="51"/>
			<point x="112" y="83" type="curve" smooth="yes"/>
			<point x="112" y="119"/>
			<point x="130" y="141"/>
			<point x="173" y="176" type="curve"/>
			<point x="154" y="186" type="line"/>
			<point x="154" y="179" type="line"/>
			<point x="110" y="145"/>
			<point x="85" y="117"/>
			<point x="85" y="77" type="curve" smooth="yes"/>
			<point x="85" y="37"/>
			<point x="105" y="10"/>
			<point x="150" y="0" type="curve"/>
			<point x="150" y="-2" type="line"/>
			<point x="168" y="-5"/>
			<point x="186" y="-6"/>
			<point x="204" y="-6" type="curve" smooth="yes"/>
			<point x="324" y="-6" type="line" smooth="yes"/>
			<point x="417" y="-6"/>
			<point x="444" y="-44"/>
			<point x="444" y="-90" type="curve" smooth="yes"/>
			<point x="444" y="-163"/>
			<point x="370" y="-221"/>
			<point x="227" y="-221" type="curve" smooth="yes"/>
			<point x="128" y="-221"/>
			<point x="80" y="-182"/>
			<point x="80" y="-115" type="curve" smooth="yes"/>
			<point x="80" y="-62"/>
			<point x="107" y="-34"/>
			<point x="174" y="3" type="curve"/>
			<point x="167" y="14" type="line"/>
			<point x="98" y="-14"/>
			<point x="50" y="-54"/>
			<point x="50" y="-120" type="curve" smooth="yes"/>
			<point x="50" y="-196"/>
			<point x="106" y="-245"/>
		</contour>
		<contour>
			<point x="238" y="152" type="curve" smooth="yes"/>
			<point x="334" y="152"/>
			<point x="403" y="218"/>
			<point x="403" y="318" type="curve" smooth="yes"/>
			<point x="403" y="371"/>
			<point x="384" y="415"/>
			<point x="350" y="444" type="curve"/>
			<point x="349" y="445" type="line"/>
			<point x="321" y="469"/>
			<point x="282" y="483"/>
			<point x="238" y="483" type="curve" smooth="yes"/>
			<point x="140" y="483"/>
			<point x="73" y="416"/>
			<point x="73" y="318" type="curve" smooth="yes"/>
			<point x="73" y="220"/>
			<point x="140" y="152"/>
		</contour>
		<contour>
			<point x="238" y="172" type="curve" smooth="yes"/>
			<point x="159" y="172"/>
			<point x="103" y="232"/>
			<point x="103" y="318" type="curve" smooth="yes"/>
			<point x="103" y="404"/>
			<point x="159" y="463"/>
			<point x="238" y="463" type="curve" smooth="yes"/>
			<point x="317" y="463"/>
			<point x="373" y="404"/>
			<point x="373" y="318" type="curve" smooth="yes"/>
			<point x="373" y="232"/>
			<point x="317" y="172"/>
		</contour>
		<contour>
			<point x="329" y="435" type="line"/>
			<point x="475" y="435" type="line"/>
			<point x="475" y="466" type="line"/>
			<point x="460" y="476" type="line"/>
			<point x="333" y="447" type="line"/>
			<point x="329" y="447" type="line"/>
		</contour>
	</outline>
	<anchor name="aboveLC" x="265" y="490"/>
	<anchor name="belowLC" x="251" y="-265"/>
</glyph>
<glyph name="h" format="2">
	<unicode hex="0068"/>
	<advance width="609"/>
	<outline>
		<contour>
			<point x="48" y="0" type="line"/>
			<point x="251" y="0" type="line"/>
			<point x="251" y="20" type="line"/>
			<point x="157" y="26" type="line"/>
			<point x="148" y="26" type="line"/>
			<point x="48" y="20" type="line"/>
		</contour>
		<contour>
			<point x="137" y="0" type="curve"/>
			<point x="171" y="0" type="line"/>
			<point x="169" y="45"/>
			<point x="168" y="148"/>
			<point x="168" y="210" type="curve" smooth="yes"/>
			<point x="168" y="350" type="line"/>
			<point x="168" y="359" type="line"/>
			<point x="168" y="598" type="line"/>
			<point x="170" y="740" type="line"/>
			<point x="154" y="748" type="line"/>
			<point x="49" y="736" type="line"/>
			<point x="49" y="716" type="line"/>
			<point x="140" y="716" type="line"/>
			<point x="140" y="210" type="line" smooth="yes"/>
			<point x="140" y="148"/>
			<point x="139" y="45"/>
		</contour>
		<contour>
			<point x="369" y="0" type="line"/>
			<point x="572" y="0" type="line"/>
			<point x="572" y="20" type="line"/>
			<point x="478" y="26" type="line"/>
			<point x="469" y="26" type="line"/>
			<point x="369" y="20" type="line"/>
		</contour>
		<contour>
			<point x="458" y="0" type="curve"/>
			<point x="492" y="0" type="line"/>
			<point x="490" y="45"/>
			<point x="489" y="146"/>
			<point x="489" y="210" type="curve" smooth="yes"/>
			<point x="489" y="314" type="line" smooth="yes"/>
			<point x="489" y="439"/>
			<point x="442" y="483"/>
			<point x="368" y="483" type="curve" smooth="yes"/>
			<point x="307" y="483"/>
			<point x="237" y="453"/>
			<point x="160" y="362" type="curve"/>
			<point x="154" y="362" type="line"/>
			<point x="161" y="337" type="line"/>
			<point x="245" y="435"/>
			<point x="318" y="455"/>
			<point x="361" y="455" type="curve" smooth="yes"/>
			<point x="420" y="455"/>
			<point x="461" y="417"/>
			<point x="461" y="315" type="curve" smooth="yes"/>
			<point x="461" y="210" type="line" smooth="yes"/>
			<point x="461" y="146"/>
			<point x="460" y="45"/>
		</contour>
	</outline>
	<anchor name="aboveLC" x="156" y="748"/>
	<anchor name="belowLC" x="310" y="-20"/>
</glyph>
<glyph name="i" format="2">
	<unicode hex="0069"/>
	<advance width="303"/>
	<outline>
		<contour>
			<point x="48" y="0" type="line"/>
			<point x="251" y="0" type="line"/>
			<point x="251" y="20" type="line"/>
			<point x="157" y="26" type="line"/>
			<point x="148" y="26" type="line"/>
			<point x="48" y="20" type="line"/>
		</contour>
		<contour>
			<point x="137" y="0" type="curve"/>
			<point x="171" y="0" type="line"/>
			<point x="169" y="45"/>
			<point x="168" y="148"/>
			<point x="168" y="210" type="curve" smooth="yes"/>
			<point x="168" y="356" type="line"/>
			<point x="170" y="472" type="line"/>
			<point x="160" y="478" type="line"/>
			<point x="44" y="466" type="line"/>
			<point x="44" y="446" type="line"/>
			<point x="137" y="446" type="line"/>
			<point x="139" y="395"/>
			<point x="140" y="329"/>
			<point x="140" y="259" type="curve" smooth="yes"/>
			<point x="140" y="210" type="line" smooth="yes"/>
			<point x="140" y="148"/>
			<point x="139" y="45"/>
		</contour>
		<contour>
			<point x="144" y="625" type="curve" smooth="yes"/>
			<point x="160" y="625"/>
			<point x="176" y="638"/>
			<point x="176" y="657" type="curve" smooth="yes"/>
			<point x="176" y="676"/>
			<point x="160" y="689"/>
			<point x="144" y="689" type="curve" smooth="yes"/>
			<point x="128" y="689"/>
			<point x="112" y="676"/>
			<point x="112" y="657" type="curve" smooth="yes"/>
			<point x="112" y="638"/>
			<point x="128" y="625"/>
		</contour>
	</outline>
	<anchor name="aboveLC" x="144" y="689"/>
	<anchor name="belowLC" x="156" y="-20"/>
	<anchor name="ogonek" x="181" y="0"/>
</glyph>
<glyph name="j" format="2">
	<unicode hex="006A"/>
	<advance width="279"/>
	<outline>
		<contour>
			<point x="5" y="-255" type="curve" smooth="yes"/>
			<point x="43" y="-255"/>
			<point x="72" y="-243"/>
			<point x="100" y="-215" type="curve" smooth="yes"/>
			<point x="159" y="-156"/>
			<point x="163" y="-79"/>
			<point x="163" y="116" type="curve" smooth="yes"/>
			<point x="163" y="356" type="line"/>
			<point x="165" y="472" type="line"/>
			<point x="155" y="478" type="line"/>
			<point x="39" y="466" type="line"/>
			<point x="39" y="446" type="line"/>
			<point x="132" y="446" type="line"/>
			<point x="134" y="395"/>
			<point x="135" y="329"/>
			<point x="135" y="259" type="curve" smooth="yes"/>
			<point x="135" y="75" type="line" smooth="yes"/>
			<point x="135" y="-44"/>
			<point x="129" y="-141"/>
			<point x="96" y="-187" type="curve" smooth="yes"/>
			<point x="81" y="-208"/>
			<point x="53" y="-227"/>
			<point x="30" y="-235" type="curve"/>
			<point x="30" y="-245" type="line"/>
			<point x="56" y="-245" type="line"/>
			<point x="56" y="-239" type="line"/>
			<point x="29" y="-227" type="line" smooth="yes"/>
			<point x="7" y="-217"/>
			<point x="-8" y="-214"/>
			<point x="-21" y="-214" type="curve" smooth="yes"/>
			<point x="-41" y="-214"/>
			<point x="-52" y="-222"/>
			<point x="-55" y="-236" type="curve"/>
			<point x="-51" y="-245"/>
			<point x="-33" y="-255"/>
		</contour>
		<contour>
			<point x="140" y="625" type="curve" smooth="yes"/>
			<point x="156" y="625"/>
			<point x="172" y="638"/>
			<point x="172" y="657" type="curve" smooth="yes"/>
			<point x="172" y="676"/>
			<point x="156" y="689"/>
			<point x="140" y="689" type="curve" smooth="yes"/>
			<point x="124" y="689"/>
			<point x="108" y="676"/>
			<point x="108" y="657" type="curve" smooth="yes"/>
			<point x="108" y="638"/>
			<point x="124" y="625"/>
		</contour>
	</outline>
	<anchor name="aboveLC" x="140" y="689"/>
	<anchor name="belowLC" x="49" y="-265"/>
</glyph>
<glyph name="l" format="2">
	<unicode hex="006C"/>
	<advance width="303"/>
	<outline>
		<contour>
			<point x="38" y="0" type="line"/>
			<point x="266" y="0" type="line"/>
			<point x="266" y="20" type="line"/>
			<point x="157" y="26" type="line"/>
			<point x="148" y="26" type="line"/>
			<point x="38" y="20" type="line"/>
		</contour>
		<contour>
			<point x="137" y="0" type="curve"/>
			<point x="171" y="0" type="line"/>
			<point x="169" y="45"/>
			<point x="168" y="148"/>
			<point x="168" y="210" type="curve" smooth="yes"/>
			<point x="168" y="598" type="line"/>
			<point x="170" y="740" type="line"/>
			<point x="156" y="748" type="line"/>
			<point x="49" y="736" type="line"/>
			<point x="49" y="716" type="line"/>
			<point x="140" y="716" type="line"/>
			<point x="140" y="210" type="line" smooth="yes"/>
			<point x="140" y="148"/>
			<point x="139" y="45"/>
		</contour>
	</outline>
	<anchor name="aboveLC" x="154" y="748"/>
	<anchor name="belowLC" x="152" y="-20"/>
</glyph>
<glyph name="m" format="2">
	<unicode hex="006D"/>
	<advance width="889"/>
	<outline>
		<contour>
			<point x="43" y="0" type="line"/>
			<point x="246" y="0" type="line"/>
			<point x="246" y="20" type="line"/>
			<point x="152" y="26" type="line"/>
			<point x="143" y="26" type="line"/>
			<point x="43" y="20" type="line"/>
		</contour>
		<contour>
			<point x="132" y="0" type="curve"/>
			<point x="166" y="0" type="line"/>
			<point x="164" y="45"/>
			<point x="163" y="148"/>
			<point x="163" y="210" type="curve" smooth="yes"/>
			<point x="163" y="365" type="line"/>
			<point x="163" y="366" type="line"/>
			<point x="161" y="472" type="line"/>
			<point x="151" y="478" type="line"/>
			<point x="39" y="466" type="line"/>
			<point x="39" y="446" type="line"/>
			<point x="132" y="446" type="line"/>
			<point x="134" y="395"/>
			<point x="135" y="329"/>
			<point x="135" y="259" type="curve" smooth="yes"/>
			<point x="135" y="210" type="line" smooth="yes"/>
			<point x="135" y="148"/>
			<point x="134" y="45"/>
		</contour>
		<contour>
			<point x="346" y="0" type="line"/>
			<point x="549" y="0" type="line"/>
			<point x="549" y="20" type="line"/>
			<point x="455" y="26" type="line"/>
			<point x="446" y="26" type="line"/>
			<point x="346" y="20" type="line"/>
		</contour>
		<contour>
			<point x="435" y="0" type="curve"/>
			<point x="469" y="0" type="line"/>
			<point x="467" y="45"/>
			<point x="466" y="146"/>
			<point x="466" y="210" type="curve" smooth="yes"/>
			<point x="466" y="314" type="line" smooth="yes"/>
			<point x="466" y="439"/>
			<point x="418" y="483"/>
			<point x="349" y="483" type="curve" smooth="yes"/>
			<point x="288" y="483"/>
			<point x="229" y="449"/>
			<point x="155" y="362" type="curve"/>
			<point x="149" y="362" type="line"/>
			<point x="156" y="337" type="line"/>
			<point x="239" y="435"/>
			<point x="301" y="455"/>
			<point x="347" y="455" type="curve" smooth="yes"/>
			<point x="396" y="455"/>
			<point x="438" y="416"/>
			<point x="438" y="315" type="curve" smooth="yes"/>
			<point x="438" y="210" type="line" smooth="yes"/>
			<point x="438" y="146"/>
			<point x="437" y="45"/>
		</contour>
		<contour>
			<point x="649" y="0" type="line"/>
			<point x="852" y="0" type="line"/>
			<point x="852" y="20" type="line"/>
			<point x="758" y="26" type="line"/>
			<point x="749" y="26" type="line"/>
			<point x="649" y="20" type="line"/>
		</contour>
		<contour>
			<point x="738" y="0" type="curve"/>
			<point x="772" y="0" type="line"/>
			<point x="770" y="45"/>
			<point x="769" y="146"/>
			<point x="769" y="210" type="curve" smooth="yes"/>
			<point x="769" y="314" type="line" smooth="yes"/>
			<point x="769" y="438"/>
			<point x="723" y="483"/>
			<point x="646" y="483" type="curve" smooth="yes"/>
			<point x="584" y="483"/>
			<point x="521" y="449"/>
			<point x="456" y="372" type="curve"/>
			<point x="450" y="372" type="line"/>
			<point x="458" y="348" type="line"/>
			<point x="532" y="435"/>
			<point x="597" y="455"/>
			<point x="644" y="455" type="curve" smooth="yes"/>
			<point x="700" y="455"/>
			<point x="741" y="417"/>
			<point x="741" y="315" type="curve" smooth="yes"/>
			<point x="741" y="210" type="line" smooth="yes"/>
			<point x="741" y="146"/>
			<point x="740" y="45"/>
		</contour>
	</outline>
	<anchor name="aboveLC" x="451" y="490"/>
	<anchor name="belowLC" x="450" y="-20"/>
</glyph>
<glyph name="o" format="2">
	<unicode hex="006F"/>
	<advance width="538"/>
	<outline>
		<contour>
			<point x="269" y="-13" type="curve" smooth="yes"/>
			<point x="376" y="-13"/>
			<point x="486" y="62"/>
			<point x="486" y="233" type="curve" smooth="yes"/>
			<point x="486" y="404"/>
			<point x="376" y="483"/>
			<point x="269" y="483" type="curve" smooth="yes"/>
			<point x="162" y="483"/>
			<point x="52" y="404"/>
			<point x="52" y="233" type="curve" smooth="yes"/>
			<point x="52" y="62"/>
			<point x="162" y="-13"/>
		</contour>
		<contour>
			<point x="269" y="7" type="curve" smooth="yes"/>
			<point x="158" y="7"/>
			<point x="84" y="92"/>
			<point x="84" y="233" type="curve" smooth="yes"/>
			<point x="84" y="374"/>
			<point x="158" y="463"/>
			<point x="269" y="463" type="curve" smooth="yes"/>
			<point x="380" y="463"/>
			<point x="454" y="374"/>
			<point x="454" y="233" type="curve" smooth="yes"/>
			<point x="454" y="92"/>
			<point x="380" y="7"/>
		</contour>
	</outline>
	<anchor name="aboveLC" x="269" y="490"/>
	<anchor name="belowLC" x="269" y="-20"/>
	<anchor name="hornLC" x="405" y="401"/>
	<anchor name="ogonek" x="345" y="0"/>
</glyph>
<glyph name="p" format="2">
	<unicode hex="0070"/>
	<advance width="575"/>
	<outline>
		<contour>
			<point x="43" y="-245" type="line"/>
			<point x="266" y="-245" type="line"/>
			<point x="266" y="-225" type="line"/>
			<point x="152" y="-219" type="line"/>
			<point x="143" y="-219" type="line"/>
			<point x="43" y="-225" type="line"/>
		</contour>
		<contour>
			<point x="132" y="-245" type="curve"/>
			<point x="166" y="-245" type="line"/>
			<point x="164" y="-200"/>
			<point x="163" y="-97"/>
			<point x="163" y="-35" type="curve" smooth="yes"/>
			<point x="163" y="66" type="line"/>
			<point x="163" y="74" type="line"/>
			<point x="163" y="387" type="line"/>
			<point x="163" y="392" type="line"/>
			<point x="161" y="472" type="line"/>
			<point x="151" y="478" type="line"/>
			<point x="39" y="466" type="line"/>
			<point x="39" y="446" type="line"/>
			<point x="132" y="446" type="line"/>
			<point x="134" y="395"/>
			<point x="135" y="325"/>
			<point x="135" y="255" type="curve" smooth="yes"/>
			<point x="135" y="-35" type="line" smooth="yes"/>
			<point x="135" y="-97"/>
			<point x="134" y="-200"/>
		</contour>
		<contour>
			<point x="324" y="-13" type="curve" smooth="yes"/>
			<point x="445" y="-13"/>
			<point x="523" y="86"/>
			<point x="523" y="242" type="curve" smooth="yes"/>
			<point x="523" y="383"/>
			<point x="447" y="483"/>
			<point x="329" y="483" type="curve" smooth="yes"/>
			<point x="274" y="483"/>
			<point x="208" y="459"/>
			<point x="158" y="392" type="curve"/>
			<point x="150" y="392" type="line"/>
			<point x="158" y="366" type="line"/>
			<point x="211" y="433"/>
			<point x="264" y="458"/>
			<point x="323" y="458" type="curve" smooth="yes"/>
			<point x="420" y="458"/>
			<point x="491" y="385"/>
			<point x="491" y="242" type="curve" smooth="yes"/>
			<point x="491" y="78"/>
			<point x="412" y="12"/>
			<point x="323" y="12" type="curve" smooth="yes"/>
			<point x="261" y="12"/>
			<point x="216" y="29"/>
			<point x="160" y="87" type="curve"/>
			<point x="150" y="63" type="line"/>
			<point x="159" y="63" type="line"/>
			<point x="209" y="2"/>
			<point x="270" y="-13"/>
		</contour>
	</outline>
	<anchor name="aboveLC" x="322" y="490"/>
	<anchor name="belowLC" x="148" y="-265"/>
</glyph>
<glyph name="q" format="2">
	<unicode hex="0071"/>
	<advance width="547"/>
	<outline>
		<contour>
			<point x="310" y="-245" type="line"/>
			<point x="533" y="-245" type="line"/>
			<point x="533" y="-225" type="line"/>
			<point x="433" y="-219" type="line"/>
			<point x="424" y="-219" type="line"/>
			<point x="310" y="-225" type="line"/>
		</contour>
		<contour>
			<point x="249" y="-13" type="curve" smooth="yes"/>
			<point x="309" y="-13"/>
			<point x="368" y="11"/>
			<point x="417" y="76" type="curve"/>
			<point x="426" y="76" type="line"/>
			<point x="417" y="104" type="line"/>
			<point x="366" y="38"/>
			<point x="316" y="12"/>
			<point x="252" y="12" type="curve" smooth="yes"/>
			<point x="158" y="12"/>
			<point x="84" y="85"/>
			<point x="84" y="227" type="curve" smooth="yes"/>
			<point x="84" y="385"/>
			<point x="164" y="458"/>
			<point x="264" y="458" type="curve" smooth="yes"/>
			<point x="325" y="458"/>
			<point x="371" y="430"/>
			<point x="417" y="374" type="curve"/>
			<point x="425" y="397" type="line"/>
			<point x="418" y="397" type="line"/>
			<point x="372" y="458"/>
			<point x="314" y="483"/>
			<point x="264" y="483" type="curve" smooth="yes"/>
			<point x="144" y="483"/>
			<point x="52" y="387"/>
			<point x="52" y="227" type="curve" smooth="yes"/>
			<point x="52" y="86"/>
			<point x="133" y="-13"/>
		</contour>
		<contour>
			<point x="409" y="-245" type="curve"/>
			<point x="443" y="-245" type="line"/>
			<point x="441" y="-175"/>
			<point x="440" y="-105"/>
			<point x="440" y="-35" type="curve" smooth="yes"/>
			<point x="440" y="335" type="line"/>
			<point x="443" y="470" type="line"/>
			<point x="424" y="473" type="line"/>
			<point x="412" y="394" type="line"/>
			<point x="412" y="392" type="line"/>
			<point x="412" y="86" type="line"/>
			<point x="412" y="83" type="line"/>
			<point x="412" y="-35" type="line" smooth="yes"/>
			<point x="412" y="-105"/>
			<point x="411" y="-175"/>
		</contour>
	</outline>
	<anchor name="aboveLC" x="270" y="490"/>
	<anchor name="belowLC" x="423" y="-265"/>
</glyph>
<glyph name="s" format="2">
	<unicode hex="0073"/>
	<advance width="426"/>
	<outline>
		<contour>
			<point x="201" y="-13" type="curve" smooth="yes"/>
			<point x="318" y="-13"/>
			<point x="371" y="46"/>
			<point x="371" y="115" type="curve" smooth="yes"/>
			<point x="371" y="175"/>
			<point x="339" y="210"/>
			<point x="250" y="243" type="curve" smooth="yes"/>
			<point x="199" y="262" type="line" smooth="yes"/>
			<point x="132" y="287"/>
			<point x="98" y="313"/>
			<point x="98" y="365" type="curve" smooth="yes"/>
			<point x="98" y="419"/>
			<point x="137" y="463"/>
			<point x="220" y="463" type="curve" smooth="yes"/>
			<point x="258" y="463"/>
			<point x="297" y="454"/>
			<point x="339" y="424" type="curve"/>
			<point x="339" y="450" type="line"/>
			<point x="323" y="450" type="line"/>
			<point x="332" y="354" type="line"/>
			<point x="354" y="354" type="line"/>
			<point x="356" y="443" type="line"/>
			<point x="310" y="471"/>
			<point x="277" y="483"/>
			<point x="223" y="483" type="curve" smooth="yes"/>
			<point x="125" y="483"/>
			<point x="70" y="434"/>
			<point x="70" y="362" type="curve" smooth="yes"/>
			<point x="70" y="296"/>
			<point x="117" y="260"/>
			<point x="188" y="234" type="curve" smooth="yes"/>
			<point x="235" y="217" type="line" smooth="yes"/>
			<point x="319" y="187"/>
			<point x="343" y="160"/>
			<point x="343" y="111" type="curve" smooth="yes"/>
			<point x="343" y="52"/>
			<point x="296" y="7"/>
			<point x="203" y="7" type="curve" smooth="yes"/>
			<point x="139" y="7"/>
			<point x="105" y="20"/>
			<point x="71" y="40" type="curve"/>
			<point x="71" y="16" type="line"/>
			<point x="92" y="16" type="line"/>
			<point x="77" y="119" type="line"/>
			<point x="55" y="119" type="line"/>
			<point x="58" y="18" type="line"/>
			<point x="106" y="-2"/>
			<point x="146" y="-13"/>
		</contour>
	</outline>
	<anchor name="aboveLC" x="221" y="490"/>
	<anchor name="baseLC" x="202" y="0"/>
	<anchor name="belowLC" x="203" y="-20"/>
</glyph>
<glyph name="t" format="2">
	<unicode hex="0074"/>
	<advance width="332"/>
	<outline>
		<contour>
			<point x="139" y="446" type="line"/>
			<point x="298" y="446" type="line"/>
			<point x="298" y="470" type="line"/>
			<point x="139" y="470" type="line"/>
		</contour>
		<contour>
			<point x="221" y="-13" type="curve" smooth="yes"/>
			<point x="256" y="-13"/>
			<point x="284" y="-4"/>
			<point x="307" y="15" type="curve"/>
			<point x="300" y="29" type="line"/>
			<point x="275" y="17"/>
			<point x="257" y="11"/>
			<point x="224" y="11" type="curve" smooth="yes"/>
			<point x="177" y="11"/>
			<point x="153" y="39"/>
			<point x="153" y="106" type="curve" smooth="yes"/>
			<point x="153" y="451" type="line"/>
			<point x="153" y="460" type="line"/>
			<point x="157" y="619" type="line"/>
			<point x="135" y="619" type="line"/>
			<point x="124" y="464" type="line"/>
			<point x="132" y="471" type="line"/>
			<point x="15" y="466" type="line"/>
			<point x="15" y="446" type="line"/>
			<point x="125" y="446" type="line"/>
			<point x="125" y="174" type="line" smooth="yes"/>
			<point x="125" y="147"/>
			<point x="124" y="131"/>
			<point x="124" y="103" type="curve" smooth="yes"/>
			<point x="124" y="28"/>
			<point x="148" y="-13"/>
		</contour>
	</outline>
	<anchor name="aboveLC" x="145" y="589"/>
	<anchor name="baseLC" x="208" y="0"/>
	<anchor name="belowLC" x="215" y="-20"/>
</glyph>
<glyph name="u" format="2">
	<unicode hex="0075"/>
	<advance width="604"/>
	<outline>
		<contour>
			<point x="261" y="-13" type="curve" smooth="yes"/>
			<point x="344" y="-13"/>
			<point x="404" y="39"/>
			<point x="452" y="103" type="curve"/>
			<point x="461" y="103" type="line"/>
			<point x="446" y="122" type="line"/>
			<point x="395" y="54"/>
			<point x="333" y="15"/>
			<point x="266" y="15" type="curve" smooth="yes"/>
			<point x="194" y="15"/>
			<point x="153" y="57"/>
			<point x="153" y="178" type="curve" smooth="yes"/>
			<point x="153" y="356" type="line"/>
			<point x="157" y="462" type="line"/>
			<point x="148" y="474" type="line"/>
			<point x="39" y="468" type="line"/>
			<point x="39" y="448" type="line"/>
			<point x="140" y="441" type="line"/>
			<point x="127" y="452" type="line"/>
			<point x="125" y="175" type="line" smooth="yes"/>
			<point x="124" y="33"/>
			<point x="168" y="-13"/>
		</contour>
		<contour>
			<point x="443" y="-6" type="line"/>
			<point x="553" y="0" type="line"/>
			<point x="553" y="20" type="line"/>
			<point x="474" y="25" type="line"/>
			<point x="474" y="356" type="line"/>
			<point x="478" y="462" type="line"/>
			<point x="469" y="474" type="line"/>
			<point x="360" y="468" type="line"/>
			<point x="360" y="447" type="line"/>
			<point x="446" y="442" type="line"/>
			<point x="446" y="111" type="line"/>
			<point x="446" y="110" type="line"/>
		</contour>
	</outline>
	<anchor name="aboveLC" x="292" y="490"/>
	<anchor name="belowLC" x="297" y="-20"/>
	<anchor name="hornLC" x="461" y="421"/>
	<anchor name="ogonek" x="508" y="0"/>
</glyph>
<glyph name="y" format="2">
	<unicode hex="0079"/>
	<advance width="492"/>
	<outline>
		<contour>
			<point x="51" y="-255" type="curve" smooth="yes"/>
			<point x="120" y="-255"/>
			<point x="187" y="-196"/>
			<point x="232" y="-75" type="curve" smooth="yes"/>
			<point x="434" y="470" type="line"/>
			<point x="408" y="470" type="line"/>
			<point x="326" y="241" type="line"/>
			<point x="243" y="13" type="line"/>
			<point x="242" y="9" type="line"/>
			<point x="211" y="-73" type="line" smooth="yes"/>
			<point x="174" y="-173"/>
			<point x="113" y="-236"/>
			<point x="51" y="-236" type="curve"/>
			<point x="68" y="-248" type="line"/>
			<point x="88" y="-244" type="line"/>
			<point x="65" y="-227" type="line" smooth="yes"/>
			<point x="47" y="-214"/>
			<point x="29" y="-205"/>
			<point x="13" y="-205" type="curve" smooth="yes"/>
			<point x="-3" y="-205"/>
			<point x="-16" y="-212"/>
			<point x="-19" y="-225" type="curve"/>
			<point x="-11" y="-247"/>
			<point x="21" y="-255"/>
		</contour>
		<contour>
			<point x="242" y="-26" type="line"/>
			<point x="256" y="6" type="line"/>
			<point x="252" y="17" type="line"/>
			<point x="83" y="470" type="line"/>
			<point x="50" y="470" type="line"/>
		</contour>
		<contour>
			<point x="-14" y="450" type="line"/>
			<point x="75" y="444" type="line"/>
			<point x="84" y="444" type="line"/>
			<point x="180" y="450" type="line"/>
			<point x="180" y="470" type="line"/>
			<point x="-14" y="470" type="line"/>
		</contour>
		<contour>
			<point x="310" y="450" type="line"/>
			<point x="406" y="444" type="line"/>
			<point x="415" y="444" type="line"/>
			<point x="493" y="450" type="line"/>
			<point x="493" y="470" type="line"/>
			<point x="310" y="470" type="line"/>
		</contour>
	</outline>
	<anchor name="aboveLC" x="248" y="490"/>
	<anchor name="belowLC" x="108" y="-255"/>
</glyph>
<glyph name="asciitilde" format="2">
	<unicode hex="007E"/>
	<advance width="530"/>
	<outline>
		<contour>
			<point x="280" y="351" type="curve" smooth="yes"/>
			<point x="249" y="382"/>
			<point x="216" y="404"/>
			<point x="171" y="404" type="curve" smooth="yes"/>
			<point x="109" y="404"/>
			<point x="68" y="360"/>
			<point x="63" y="297" type="curve"/>
			<point x="86" y="293" type="line"/>
			<point x="95" y="354"/>
			<point x="125" y="378"/>
			<point x="171" y="378" type="curve" smooth="yes"/>
			<point x="207" y="378"/>
			<point x="227" y="365"/>
			<point x="256" y="336" type="curve" smooth="yes"/>
			<point x="290" y="302"/>
			<point x="319" y="285"/>
			<point x="364" y="285" type="curve" smooth="yes"/>
			<point x="427" y="285"/>
			<point x="466" y="331"/>
			<point x="471" y="392" type="curve"/>
			<point x="448" y="396" type="line"/>
			<point x="439" y="337"/>
			<point x="410" y="311"/>
			<point x="365" y="311" type="curve" smooth="yes"/>
			<point x="331" y="311"/>
			<point x="309" y="322"/>
		</contour>
	</outline>
</glyph>
<glyph name="cent" format="2">
	<unicode hex="00A2"/>
	<advance width="490"/>
	<outline>
		<contour>
			<point x="278" y="-50" type="line"/>
			<point x="278" y="667" type="line"/>
			<point x="252" y="667" type="line"/>
			<point x="252" y="-50" type="line"/>
		</contour>
		<contour>
			<point x="274" y="544" type="curve" smooth="yes"/>
			<point x="315" y="544"/>
			<point x="349" y="532"/>
			<point x="392" y="499" type="curve"/>
			<point x="360" y="532" type="line"/>
			<point x="389" y="458" type="line" smooth="yes"/>
			<point x="394" y="445"/>
			<point x="402" y="439"/>
			<point x="415" y="439" type="curve" smooth="yes"/>
			<point x="426" y="439"/>
			<point x="434" y="446"/>
			<point x="437" y="459" type="curve"/>
			<point x="407" y="529"/>
			<point x="346" y="564"/>
			<point x="276" y="564" type="curve" smooth="yes"/>
			<point x="160" y="564"/>
			<point x="52" y="473"/>
			<point x="52" y="315" type="curve" smooth="yes"/>
			<point x="52" y="166"/>
			<point x="141" y="65"/>
			<point x="268" y="65" type="curve" smooth="yes"/>
			<point x="345" y="65"/>
			<point x="398" y="99"/>
			<point x="438" y="147" type="curve"/>
			<point x="427" y="157" type="line"/>
			<point x="384" y="113"/>
			<point x="329" y="91"/>
			<point x="270" y="91" type="curve" smooth="yes"/>
			<point x="162" y="91"/>
			<point x="84" y="183"/>
			<point x="84" y="316" type="curve" smooth="yes"/>
			<point x="84" y="452"/>
			<point x="167" y="544"/>
		</contour>
	</outline>
</glyph>
<glyph name="yen" format="2">
	<unicode hex="00A5"/>
	<advance width="490"/>
	<outline>
		<contour>
			<point x="251" y="244" type="line"/>
			<point x="436" y="654" type="line"/>
			<point x="411" y="654" type="line"/>
			<point x="246" y="280" type="line"/>
			<point x="241" y="269" type="line"/>
			<point x="256" y="269" type="line"/>
			<point x="83" y="654" type="line"/>
			<point x="55" y="654" type="line"/>
			<point x="242" y="241" type="line"/>
		</contour>
		<contour>
			<point x="75" y="627" type="line"/>
			<point x="89" y="627" type="line"/>
			<point x="196" y="634" type="line"/>
			<point x="196" y="654" type="line"/>
			<point x="-2" y="654" type="line"/>
			<point x="-2" y="634" type="line"/>
		</contour>
		<contour>
			<point x="238" y="27" type="line"/>
			<point x="121" y="20" type="line"/>
			<point x="121" y="0" type="line"/>
			<point x="369" y="0" type="line"/>
			<point x="369" y="20" type="line"/>
			<point x="252" y="27" type="line"/>
		</contour>
		<contour>
			<point x="231" y="166" type="line" smooth="yes"/>
			<point x="231" y="121"/>
			<point x="231" y="93"/>
			<point x="230" y="0" type="curve"/>
			<point x="261" y="0" type="line"/>
			<point x="259" y="93"/>
			<point x="259" y="121"/>
			<point x="259" y="166" type="curve" smooth="yes"/>
			<point x="259" y="278" type="line"/>
			<point x="231" y="278" type="line"/>
		</contour>
		<contour>
			<point x="405" y="627" type="line"/>
			<point x="419" y="627" type="line"/>
			<point x="492" y="634" type="line"/>
			<point x="492" y="654" type="line"/>
			<point x="299" y="654" type="line"/>
			<point x="299" y="634" type="line"/>
		</contour>
		<contour>
			<point x="59" y="144" type="line"/>
			<point x="426" y="144" type="line"/>
			<point x="426" y="168" type="line"/>
			<point x="59" y="168" type="line"/>
		</contour>
		<contour>
			<point x="59" y="262" type="line"/>
			<point x="426" y="262" type="line"/>
			<point x="426" y="286" type="line"/>
			<point x="59" y="286" type="line"/>
		</contour>
	</outline>
</glyph>
<glyph name="brokenbar" format="2">
	<unicode hex="00A6"/>
	<advance width="280"/>
	<outline>
		<contour>
			<point x="128" y="-250" type="line"/>
			<point x="154" y="-250" type="line"/>
			<point x="154" y="200" type="line"/>
			<point x="128" y="200" type="line"/>
		</contour>
		<contour>
			<point x="154" y="320" type="line"/>
			<point x="154" y="750" type="line"/>
			<point x="128" y="750" type="line"/>
			<point x="128" y="320" type="line"/>
		</contour>
	</outline>
</glyph>
<glyph name="section" format="2">
	<unicode hex="00A7"/>
	<advance width="480"/>
	<outline>
		<contour>
			<point x="225" y="-108" type="curve" smooth="yes"/>
			<point x="327" y="-108"/>
			<point x="378" y="-56"/>
			<point x="378" y="15" type="curve" smooth="yes"/>
			<point x="378" y="80"/>
			<point x="341" y="114"/>
			<point x="299" y="138" type="curve"/>
			<point x="299" y="141" type="line"/>
			<point x="279" y="153"/>
			<point x="246" y="169"/>
			<point x="212" y="184" type="curve" smooth="yes"/>
			<point x="108" y="228"/>
			<point x="89" y="260"/>
			<point x="89" y="313" type="curve" smooth="yes"/>
			<point x="89" y="369"/>
			<point x="115" y="410"/>
			<point x="207" y="440" type="curve"/>
			<point x="199" y="455" type="line"/>
			<point x="101" y="429"/>
			<point x="64" y="372"/>
			<point x="64" y="311" type="curve" smooth="yes"/>
			<point x="64" y="248"/>
			<point x="95" y="208"/>
			<point x="199" y="161" type="curve" smooth="yes"/>
			<point x="312" y="111"/>
			<point x="354" y="83"/>
			<point x="354" y="12" type="curve" smooth="yes"/>
			<point x="354" y="-51"/>
			<point x="307" y="-89"/>
			<point x="223" y="-89" type="curve" smooth="yes"/>
			<point x="175" y="-89"/>
			<point x="139" y="-75"/>
			<point x="106" y="-52" type="curve"/>
			<point x="134" y="-83" type="line"/>
			<point x="99" y="3" type="line" smooth="yes"/>
			<point x="94" y="14"/>
			<point x="87" y="19"/>
			<point x="78" y="19" type="curve" smooth="yes"/>
			<point x="66" y="19"/>
			<point x="58" y="11"/>
			<point x="58" y="0" type="curve"/>
			<point x="83" y="-74"/>
			<point x="143" y="-108"/>
		</contour>
		<contour>
			<point x="265" y="690" type="curve" smooth="yes"/>
			<point x="170" y="690"/>
			<point x="108" y="642"/>
			<point x="108" y="562" type="curve" smooth="yes"/>
			<point x="108" y="506"/>
			<point x="137" y="470"/>
			<point x="186" y="445" type="curve"/>
			<point x="186" y="442" type="line"/>
			<point x="208" y="428"/>
			<point x="239" y="413"/>
			<point x="269" y="400" type="curve" smooth="yes"/>
			<point x="383" y="351"/>
			<point x="397" y="319"/>
			<point x="397" y="271" type="curve" smooth="yes"/>
			<point x="397" y="208"/>
			<point x="367" y="174"/>
			<point x="279" y="144" type="curve"/>
			<point x="288" y="128" type="line"/>
			<point x="389" y="156"/>
			<point x="422" y="216"/>
			<point x="422" y="270" type="curve" smooth="yes"/>
			<point x="422" y="334"/>
			<point x="395" y="373"/>
			<point x="282" y="423" type="curve" smooth="yes"/>
			<point x="177" y="468"/>
			<point x="132" y="496"/>
			<point x="132" y="566" type="curve" smooth="yes"/>
			<point x="132" y="637"/>
			<point x="182" y="671"/>
			<point x="264" y="671" type="curve" smooth="yes"/>
			<point x="313" y="671"/>
			<point x="344" y="659"/>
			<point x="379" y="634" type="curve"/>
			<point x="347" y="665" type="line"/>
			<point x="382" y="579" type="line" smooth="yes"/>
			<point x="387" y="568"/>
			<point x="394" y="563"/>
			<point x="403" y="563" type="curve" smooth="yes"/>
			<point x="415" y="563"/>
			<point x="423" y="571"/>
			<point x="423" y="582" type="curve"/>
			<point x="395" y="661"/>
			<point x="335" y="690"/>
		</contour>
	</outline>
</glyph>
<glyph name="copyright" format="2">
	<unicode hex="00A9"/>
	<advance width="759"/>
	<outline>
		<contour>
			<point x="380" y="-13" type="curve" smooth="yes"/>
			<point x="570" y="-13"/>
			<point x="729" y="121"/>
			<point x="729" y="340" type="curve" smooth="yes"/>
			<point x="729" y="559"/>
			<point x="570" y="689"/>
			<point x="380" y="689" type="curve" smooth="yes"/>
			<point x="190" y="689"/>
			<point x="30" y="559"/>
			<point x="30" y="340" type="curve" smooth="yes"/>
			<point x="30" y="121"/>
			<point x="190" y="-13"/>
		</contour>
		<contour>
			<point x="380" y="8" type="curve" smooth="yes"/>
			<point x="198" y="8"/>
			<point x="56" y="133"/>
			<point x="56" y="340" type="curve" smooth="yes"/>
			<point x="56" y="543"/>
			<point x="198" y="667"/>
			<point x="380" y="667" type="curve" smooth="yes"/>
			<point x="562" y="667"/>
			<point x="704" y="542"/>
			<point x="704" y="340" type="curve" smooth="yes"/>
			<point x="704" y="138"/>
			<point x="563" y="8"/>
		</contour>
		<contour>
			<point x="394" y="128" type="curve" smooth="yes"/>
			<point x="437" y="128"/>
			<point x="472" y="136"/>
			<point x="512" y="160" type="curve"/>
			<point x="514" y="244" type="line"/>
			<point x="490" y="244" type="line"/>
			<point x="479" y="160" type="line"/>
			<point x="499" y="180" type="line"/>
			<point x="467" y="157"/>
			<point x="433" y="148"/>
			<point x="393" y="148" type="curve" smooth="yes"/>
			<point x="300" y="148"/>
			<point x="230" y="222"/>
			<point x="230" y="340" type="curve" smooth="yes"/>
			<point x="230" y="456"/>
			<point x="296" y="533"/>
			<point x="397" y="533" type="curve" smooth="yes"/>
			<point x="440" y="533"/>
			<point x="465" y="523"/>
			<point x="498" y="499" type="curve"/>
			<point x="475" y="524" type="line"/>
			<point x="486" y="437" type="line"/>
			<point x="511" y="437" type="line"/>
			<point x="508" y="521" type="line"/>
			<point x="472" y="542"/>
			<point x="443" y="553"/>
			<point x="395" y="553" type="curve" smooth="yes"/>
			<point x="281" y="553"/>
			<point x="200" y="466"/>
			<point x="200" y="340" type="curve" smooth="yes"/>
			<point x="200" y="215"/>
			<point x="277" y="128"/>
		</contour>
	</outline>
</glyph>
<glyph name="registered" format="2">
	<unicode hex="00AE"/>
	<advance width="458"/>
	<outline>
		<contour>
			<point x="326" y="431" type="line"/>
			<point x="293" y="433" type="line"/>
			<point x="304" y="423" type="line"/>
			<point x="282" y="486" type="line" smooth="yes"/>
			<point x="275" y="506"/>
			<point x="267" y="514"/>
			<point x="240" y="517" type="curve"/>
			<point x="242" y="515" type="line"/>
			<point x="277" y="517"/>
			<point x="300" y="540"/>
			<point x="300" y="569" type="curve" smooth="yes"/>
			<point x="300" y="603"/>
			<point x="276" y="622"/>
			<point x="229" y="622" type="curve" smooth="yes"/>
			<point x="193" y="622" type="line"/>
			<point x="193" y="610" type="line"/>
			<point x="225" y="610" type="line" smooth="yes"/>
			<point x="264" y="610"/>
			<point x="277" y="592"/>
			<point x="277" y="569" type="curve" smooth="yes"/>
			<point x="277" y="542"/>
			<point x="259" y="522"/>
			<point x="228" y="522" type="curve" smooth="yes"/>
			<point x="193" y="522" type="line"/>
			<point x="193" y="510" type="line"/>
			<point x="223" y="510" type="line" smooth="yes"/>
			<point x="246" y="510"/>
			<point x="253" y="501"/>
			<point x="259" y="483" type="curve" smooth="yes"/>
			<point x="276" y="433" type="line" smooth="yes"/>
			<point x="280" y="422"/>
			<point x="287" y="418"/>
			<point x="307" y="418" type="curve" smooth="yes"/>
			<point x="315" y="418"/>
			<point x="319" y="418"/>
			<point x="326" y="419" type="curve"/>
		</contour>
		<contour>
			<point x="191" y="433" type="line"/>
			<point x="154" y="431" type="line"/>
			<point x="154" y="419" type="line"/>
			<point x="232" y="419" type="line"/>
			<point x="232" y="431" type="line"/>
			<point x="195" y="433" type="line"/>
		</contour>
		<contour>
			<point x="191" y="608" type="line"/>
			<point x="193" y="613" type="line"/>
			<point x="193" y="622" type="line"/>
			<point x="154" y="622" type="line"/>
			<point x="154" y="610" type="line"/>
		</contour>
		<contour>
			<point x="52" y="516" type="curve" smooth="yes"/>
			<point x="52" y="620"/>
			<point x="137" y="692"/>
			<point x="229" y="692" type="curve" smooth="yes"/>
			<point x="321" y="692"/>
			<point x="406" y="620"/>
			<point x="406" y="516" type="curve" smooth="yes"/>
			<point x="406" y="412"/>
			<point x="322" y="338"/>
			<point x="229" y="338" type="curve" smooth="yes"/>
			<point x="136" y="338"/>
			<point x="52" y="412"/>
		</contour>
		<contour>
			<point x="181" y="419" type="line"/>
			<point x="205" y="419" type="line"/>
			<point x="205" y="622" type="line"/>
			<point x="181" y="622" type="line"/>
		</contour>
		<contour>
			<point x="30" y="516" type="curve" smooth="yes"/>
			<point x="30" y="398"/>
			<point x="127" y="318"/>
			<point x="229" y="318" type="curve" smooth="yes"/>
			<point x="331" y="318"/>
			<point x="428" y="398"/>
			<point x="428" y="516" type="curve" smooth="yes"/>
			<point x="428" y="634"/>
			<point x="332" y="712"/>
			<point x="229" y="712" type="curve" smooth="yes"/>
			<point x="126" y="712"/>
			<point x="30" y="634"/>
		</contour>
	</outline>
</glyph>
<glyph name="three.sups" format="2">
	<unicode hex="00B3"/>
	<advance width="339"/>
	<outline>
		<contour>
			<point x="163" y="421" type="curve" smooth="yes"/>
			<point x="239" y="421"/>
			<point x="295" y="467"/>
			<point x="295" y="535" type="curve" smooth="yes"/>
			<point x="295" y="595"/>
			<point x="252" y="635"/>
			<point x="173" y="639" type="curve"/>
			<point x="173" y="633" type="line"/>
			<point x="241" y="643"/>
			<point x="282" y="685"/>
			<point x="282" y="735" type="curve" smooth="yes"/>
			<point x="282" y="792"/>
			<point x="238" y="832"/>
			<point x="170" y="832" type="curve" smooth="yes"/>
			<point x="120" y="832"/>
			<point x="71" y="810"/>
			<point x="57" y="759" type="curve"/>
			<point x="59" y="749"/>
			<point x="66" y="744"/>
			<point x="74" y="744" type="curve" smooth="yes"/>
			<point x="86" y="744"/>
			<point x="91" y="751"/>
			<point x="96" y="768" type="curve"/>
			<point x="114" y="815" type="line"/>
			<point x="94" y="797" type="line"/>
			<point x="119" y="809"/>
			<point x="140" y="813"/>
			<point x="166" y="813" type="curve" smooth="yes"/>
			<point x="221" y="813"/>
			<point x="252" y="783"/>
			<point x="252" y="734" type="curve" smooth="yes"/>
			<point x="252" y="679"/>
			<point x="207" y="647"/>
			<point x="147" y="647" type="curve" smooth="yes"/>
			<point x="121" y="647" type="line"/>
			<point x="121" y="627" type="line"/>
			<point x="149" y="627" type="line" smooth="yes"/>
			<point x="227" y="627"/>
			<point x="265" y="593"/>
			<point x="265" y="534" type="curve" smooth="yes"/>
			<point x="265" y="478"/>
			<point x="227" y="440"/>
			<point x="157" y="440" type="curve" smooth="yes"/>
			<point x="127" y="440"/>
			<point x="106" y="445"/>
			<point x="85" y="456" type="curve"/>
			<point x="105" y="436" type="line"/>
			<point x="85" y="486" type="line"/>
			<point x="80" y="503"/>
			<point x="75" y="510"/>
			<point x="64" y="510" type="curve" smooth="yes"/>
			<point x="55" y="510"/>
			<point x="48" y="505"/>
			<point x="46" y="495" type="curve"/>
			<point x="61" y="445"/>
			<point x="104" y="421"/>
		</contour>
	</outline>
</glyph>
<glyph name="paragraph" format="2">
	<unicode hex="00B6"/>
	<advance width="603"/>
	<outline>
		<contour>
			<point x="342" y="178" type="curve"/>
			<point x="342" y="652" type="line"/>
			<point x="421" y="652" type="line"/>
			<point x="421" y="676" type="line"/>
			<point x="368" y="676" type="line" smooth="yes"/>
			<point x="174" y="676"/>
			<point x="60" y="576"/>
			<point x="60" y="426" type="curve" smooth="yes"/>
			<point x="60" y="267"/>
			<point x="186" y="177"/>
		</contour>
		<contour>
			<point x="408" y="-130" type="curve"/>
			<point x="438" y="-130" type="line"/>
			<point x="436" y="-28"/>
			<point x="436" y="76"/>
			<point x="436" y="180" type="curve" smooth="yes"/>
			<point x="436" y="366" type="line" smooth="yes"/>
			<point x="436" y="470"/>
			<point x="436" y="574"/>
			<point x="438" y="676" type="curve"/>
			<point x="410" y="676" type="line"/>
			<point x="410" y="180" type="line" smooth="yes"/>
			<point x="410" y="76"/>
			<point x="410" y="-28"/>
		</contour>
		<contour>
			<point x="421" y="649" type="line"/>
			<point x="428" y="649" type="line"/>
			<point x="545" y="656" type="line"/>
			<point x="545" y="676" type="line"/>
			<point x="421" y="676" type="line"/>
		</contour>
	</outline>
</glyph>
<glyph name="cedilla" format="2">
	<unicode hex="00B8"/>
	<advance width="400"/>
	<outline>
		<contour>
			<point x="151" y="-77" type="line"/>
			<point x="217" y="-77"/>
			<point x="240" y="-102"/>
			<point x="240" y="-138" type="curve" smooth="yes"/>
			<point x="240" y="-172"/>
			<point x="219" y="-195"/>
			<point x="173" y="-195" type="curve" smooth="yes"/>
			<point x="157" y="-195"/>
			<point x="139" y="-192"/>
			<point x="119" y="-188" type="curve"/>
			<point x="115" y="-203" type="line"/>
			<point x="136" y="-210"/>
			<point x="155" y="-214"/>
			<point x="177" y="-214" type="curve" smooth="yes"/>
			<point x="237" y="-214"/>
			<point x="270" y="-182"/>
			<point x="270" y="-137" type="curve" smooth="yes"/>
			<point x="270" y="-93"/>
			<point x="231" y="-60"/>
			<point x="166" y="-59" type="curve"/>
			<point x="174" y="-74" type="line"/>
			<point x="184" y="0" type="line"/>
			<point x="164" y="0" type="line"/>
		</contour>
	</outline>
</glyph>
<glyph name="onehalf" format="2">
	<unicode hex="00BD"/>
	<advance width="818"/>
	<outline>
		<contour>
			<point x="529" y="0" type="line"/>
			<point x="784" y="0" type="line"/>
			<point x="784" y="30" type="line"/>
			<point x="551" y="30" type="line"/>
			<point x="548" y="36" type="line"/>
			<point x="548" y="22" type="line"/>
			<point x="678" y="147" type="line" smooth="yes"/>
			<point x="736" y="210"/>
			<point x="762" y="250"/>
			<point x="762" y="298" type="curve" smooth="yes"/>
			<point x="762" y="361"/>
			<point x="722" y="402"/>
			<point x="648" y="402" type="curve" smooth="yes"/>
			<point x="593" y="402"/>
			<point x="545" y="373"/>
			<point x="528" y="321" type="curve"/>
			<point x="532" y="313"/>
			<point x="538" y="308"/>
			<point x="547" y="308" type="curve" smooth="yes"/>
			<point x="557" y="308"/>
			<point x="563" y="316"/>
			<point x="569" y="333" type="curve" smooth="yes"/>
			<point x="591" y="383" type="line"/>
			<point x="566" y="363" type="line"/>
			<point x="594" y="378"/>
			<point x="617" y="383"/>
			<point x="641" y="383" type="curve" smooth="yes"/>
			<point x="700" y="383"/>
			<point x="731" y="346"/>
			<point x="731" y="296" type="curve" smooth="yes"/>
			<point x="731" y="251"/>
			<point x="709" y="210"/>
			<point x="656" y="153" type="curve" smooth="yes"/>
			<point x="529" y="25" type="line"/>
		</contour>
		<contour>
			<point x="69" y="283" type="line"/>
			<point x="294" y="283" type="line"/>
			<point x="294" y="299" type="line"/>
			<point x="195" y="307" type="line"/>
			<point x="173" y="307" type="line"/>
			<point x="69" y="299" type="line"/>
		</contour>
		<contour>
			<point x="170" y="283" type="line"/>
			<point x="198" y="283" type="line"/>
			<point x="198" y="678" type="line"/>
			<point x="189" y="685" type="line"/>
			<point x="75" y="654" type="line"/>
			<point x="75" y="636" type="line"/>
			<point x="170" y="651" type="line"/>
		</contour>
		<component base="fraction" xOffset="339"/>
	</outline>
</glyph>
<glyph name="threequarters" format="2">
	<unicode hex="00BE"/>
	<advance width="788"/>
	<outline>
		<contour>
			<point x="664" y="0" type="line"/>
			<point x="692" y="0" type="line"/>
			<point x="692" y="399" type="line"/>
			<point x="674" y="399" type="line"/>
			<point x="481" y="147" type="line"/>
			<point x="481" y="127" type="line"/>
			<point x="767" y="127" type="line"/>
			<point x="767" y="151" type="line"/>
			<point x="501" y="151" type="line"/>
			<point x="501" y="159" type="line"/>
			<point x="497" y="142" type="line"/>
			<point x="588" y="260" type="line"/>
			<point x="679" y="378" type="line"/>
			<point x="660" y="366" type="line"/>
			<point x="664" y="366" type="line"/>
			<point x="664" y="144" type="line"/>
			<point x="664" y="136" type="line"/>
		</contour>
		<contour>
			<point x="163" y="274" type="curve" smooth="yes"/>
			<point x="239" y="274"/>
			<point x="295" y="320"/>
			<point x="295" y="388" type="curve" smooth="yes"/>
			<point x="295" y="448"/>
			<point x="252" y="488"/>
			<point x="173" y="492" type="curve"/>
			<point x="173" y="486" type="line"/>
			<point x="241" y="496"/>
			<point x="282" y="538"/>
			<point x="282" y="588" type="curve" smooth="yes"/>
			<point x="282" y="645"/>
			<point x="238" y="685"/>
			<point x="170" y="685" type="curve" smooth="yes"/>
			<point x="120" y="685"/>
			<point x="71" y="663"/>
			<point x="57" y="612" type="curve"/>
			<point x="59" y="602"/>
			<point x="66" y="597"/>
			<point x="74" y="597" type="curve" smooth="yes"/>
			<point x="86" y="597"/>
			<point x="91" y="604"/>
			<point x="96" y="621" type="curve"/>
			<point x="114" y="668" type="line"/>
			<point x="94" y="650" type="line"/>
			<point x="119" y="662"/>
			<point x="140" y="666"/>
			<point x="166" y="666" type="curve" smooth="yes"/>
			<point x="221" y="666"/>
			<point x="252" y="636"/>
			<point x="252" y="587" type="curve" smooth="yes"/>
			<point x="252" y="532"/>
			<point x="207" y="500"/>
			<point x="147" y="500" type="curve" smooth="yes"/>
			<point x="121" y="500" type="line"/>
			<point x="121" y="480" type="line"/>
			<point x="149" y="480" type="line" smooth="yes"/>
			<point x="227" y="480"/>
			<point x="265" y="446"/>
			<point x="265" y="387" type="curve" smooth="yes"/>
			<point x="265" y="331"/>
			<point x="227" y="293"/>
			<point x="157" y="293" type="curve" smooth="yes"/>
			<point x="127" y="293"/>
			<point x="106" y="298"/>
			<point x="85" y="309" type="curve"/>
			<point x="105" y="289" type="line"/>
			<point x="85" y="339" type="line"/>
			<point x="80" y="356"/>
			<point x="75" y="363"/>
			<point x="64" y="363" type="curve" smooth="yes"/>
			<point x="55" y="363"/>
			<point x="48" y="358"/>
			<point x="46" y="348" type="curve"/>
			<point x="61" y="298"/>
			<point x="104" y="274"/>
		</contour>
		<component base="fraction" xOffset="339"/>
	</outline>
</glyph>
<glyph name="Aacute" format="2">
	<unicode hex="00C1"/>
	<advance width="653"/>
	<outline>
		<contour>
			<point x="273" y="741" type="curve"/>
			<point x="281" y="730" type="line"/>
			<point x="320" y="754"/>
			<point x="359" y="779"/>
			<point x="396" y="802" type="curve" smooth="yes"/>
			<point x="429" y="822"/>
			<point x="441" y="830"/>
			<point x="441" y="842" type="curve" smooth="yes"/>
			<point x="441" y="852"/>
			<point x="433" y="859"/>
			<point x="423" y="859" type="curve" smooth="yes"/>
			<point x="413" y="859"/>
			<point x="404" y="852"/>
			<point x="376" y="829" type="curve" smooth="yes"/>
			<point x="345" y="803"/>
			<point x="309" y="772"/>
		</contour>
		<component base="A"/>
	</outline>
</glyph>
<glyph name="Acircumflex" format="2">
	<unicode hex="00C2"/>
	<advance width="653"/>
	<outline>
		<contour>
			<point x="324" y="842" type="line"/>
			<point x="310" y="842" type="line"/>
			<point x="180" y="730" type="line"/>
			<point x="188" y="720" type="line"/>
			<point x="326" y="811" type="line"/>
			<point x="308" y="811" type="line"/>
			<point x="446" y="720" type="line"/>
			<point x="454" y="730" type="line"/>
		</contour>
		<component base="A"/>
	</outline>
</glyph>
<glyph name="Adieresis" format="2">
	<unicode hex="00C4"/>
	<advance width="653"/>
	<outline>
		<contour>
			<point x="214" y="756" type="curve" smooth="yes"/>
			<point x="231" y="756"/>
			<point x="246" y="768"/>
			<point x="246" y="788" type="curve" smooth="yes"/>
			<point x="246" y="808"/>
			<point x="231" y="820"/>
			<point x="214" y="820" type="curve" smooth="yes"/>
			<point x="198" y="820"/>
			<point x="182" y="808"/>
			<point x="182" y="788" type="curve" smooth="yes"/>
			<point x="182" y="768"/>
			<point x="198" y="756"/>
		</contour>
		<contour>
			<point x="420" y="756" type="curve" smooth="yes"/>
			<point x="436" y="756"/>
			<point x="452" y="768"/>
			<point x="452" y="788" type="curve" smooth="yes"/>
			<point x="452" y="808"/>
			<point x="436" y="820"/>
			<point x="420" y="820" type="curve" smooth="yes"/>
			<point x="403" y="820"/>
			<point x="388" y="808"/>
			<point x="388" y="788" type="curve" smooth="yes"/>
			<point x="388" y="768"/>
			<point x="403" y="756"/>
		</contour>
		<component base="A"/>
	</outline>
</glyph>
<glyph name="Egrave" format="2">
	<unicode hex="00C8"/>
	<advance width="601"/>
	<outline>
		<contour>
			<point x="389" y="741" type="line"/>
			<point x="353" y="771"/>
			<point x="317" y="802"/>
			<point x="286" y="828" type="curve" smooth="yes"/>
			<point x="258" y="852"/>
			<point x="249" y="859"/>
			<point x="239" y="859" type="curve" smooth="yes"/>
			<point x="229" y="859"/>
			<point x="221" y="852"/>
			<point x="221" y="842" type="curve" smooth="yes"/>
			<point x="221" y="830"/>
			<point x="234" y="823"/>
			<point x="267" y="801" type="curve" smooth="yes"/>
			<point x="303" y="778"/>
			<point x="342" y="753"/>
			<point x="381" y="730" type="curve"/>
		</contour>
		<component base="E"/>
	</outline>
</glyph>
<glyph name="Eacute" format="2">
	<unicode hex="00C9"/>
	<advance width="601"/>
	<outline>
		<contour>
			<point x="301" y="741" type="curve"/>
			<point x="309" y="730" type="line"/>
			<point x="348" y="754"/>
			<point x="387" y="779"/>
			<point x="424" y="802" type="curve" smooth="yes"/>
			<point x="457" y="822"/>
			<point x="469" y="830"/>
			<point x="469" y="842" type="curve" smooth="yes"/>
			<point x="469" y="852"/>
			<point x="461" y="859"/>
			<point x="451" y="859" type="curve" smooth="yes"/>
			<point x="441" y="859"/>
			<point x="432" y="852"/>
			<point x="404" y="829" type="curve" smooth="yes"/>
			<point x="373" y="803"/>
			<point x="337" y="772"/>
		</contour>
		<component base="E"/>
	</outline>
</glyph>
<glyph name="Edieresis" format="2">
	<unicode hex="00CB"/>
	<advance width="601"/>
	<outline>
		<contour>
			<point x="242" y="756" type="curve" smooth="yes"/>
			<point x="259" y="756"/>
			<point x="274" y="768"/>
			<point x="274" y="788" type="curve" smooth="yes"/>
			<point x="274" y="808"/>
			<point x="259" y="820"/>
			<point x="242" y="820" type="curve" smooth="yes"/>
			<point x="226" y="820"/>
			<point x="210" y="808"/>
			<point x="210" y="788" type="curve" smooth="yes"/>
			<point x="210" y="768"/>
			<point x="226" y="756"/>
		</contour>
		<contour>
			<point x="448" y="756" type="curve" smooth="yes"/>
			<point x="464" y="756"/>
			<point x="480" y="768"/>
			<point x="480" y="788" type="curve" smooth="yes"/>
			<point x="480" y="808"/>
			<point x="464" y="820"/>
			<point x="448" y="820" type="curve" smooth="yes"/>
			<point x="431" y="820"/>
			<point x="416" y="808"/>
			<point x="416" y="788" type="curve" smooth="yes"/>
			<point x="416" y="768"/>
			<point x="431" y="756"/>
		</contour>
		<component base="E"/>
	</outline>
</glyph>
<glyph name="Iacute" format="2">
	<unicode hex="00CD"/>
	<advance width="364"/>
	<outline>
		<contour>
			<point x="138" y="741" type="curve"/>
			<point x="146" y="730" type="line"/>
			<point x="185" y="754"/>
			<point x="224" y="779"/>
			<point x="261" y="802" type="curve" smooth="yes"/>
			<point x="294" y="822"/>
			<point x="306" y="830"/>
			<point x="306" y="842" type="curve" smooth="yes"/>
			<point x="306" y="852"/>
			<point x="298" y="859"/>
			<point x="288" y="859" type="curve" smooth="yes"/>
			<point x="278" y="859"/>
			<point x="269" y="852"/>
			<point x="241" y="829" type="curve" smooth="yes"/>
			<point x="210" y="803"/>
			<point x="174" y="772"/>
		</contour>
		<component base="I"/>
	</outline>
</glyph>
<glyph name="Icircumflex" format="2">
	<unicode hex="00CE"/>
	<advance width="364"/>
	<outline>
		<contour>
			<point x="189" y="842" type="line"/>
			<point x="175" y="842" type="line"/>
			<point x="45" y="730" type="line"/>
			<point x="53" y="720" type="line"/>
			<point x="191" y="811" type="line"/>
			<point x="173" y="811" type="line"/>
			<point x="311" y="720" type="line"/>
			<point x="319" y="730" type="line"/>
		</contour>
		<component base="I"/>
	</outline>
</glyph>
<glyph name="Idieresis" format="2">
	<unicode hex="00CF"/>
	<advance width="364"/>
	<outline>
		<contour>
			<point x="92" y="756" type="curve" smooth="yes"/>
			<point x="109" y="756"/>
			<point x="124" y="768"/>
			<point x="124" y="788" type="curve" smooth="yes"/>
			<point x="124" y="808"/>
			<point x="109" y="820"/>
			<point x="92" y="820" type="curve" smooth="yes"/>
			<point x="76" y="820"/>
			<point x="60" y="808"/>
			<point x="60" y="788" type="curve" smooth="yes"/>
			<point x="60" y="768"/>
			<point x="76" y="756"/>
		</contour>
		<contour>
			<point x="272" y="756" type="curve" smooth="yes"/>
			<point x="288" y="756"/>
			<point x="304" y="768"/>
			<point x="304" y="788" type="curve" smooth="yes"/>
			<point x="304" y="808"/>
			<point x="288" y="820"/>
			<point x="272" y="820" type="curve" smooth="yes"/>
			<point x="255" y="820"/>
			<point x="240" y="808"/>
			<point x="240" y="788" type="curve" smooth="yes"/>
			<point x="240" y="768"/>
			<point x="255" y="756"/>
		</contour>
		<component base="I"/>
	</outline>
</glyph>
<glyph name="Ntilde" format="2">
	<unicode hex="00D1"/>
	<advance width="732"/>
	<outline>
		<contour>
			<point x="206" y="753" type="curve"/>
			<point x="222" y="748" type="line"/>
			<point x="236" y="796"/>
			<point x="258" y="822"/>
			<point x="294" y="822" type="curve" smooth="yes"/>
			<point x="324" y="822"/>
			<point x="341" y="807"/>
			<point x="361" y="783" type="curve" smooth="yes"/>
			<point x="380" y="761"/>
			<point x="403" y="741"/>
			<point x="442" y="741" type="curve" smooth="yes"/>
			<point x="492" y="741"/>
			<point x="525" y="779"/>
			<point x="534" y="832" type="curve"/>
			<point x="518" y="837" type="line"/>
			<point x="504" y="789"/>
			<point x="482" y="764"/>
			<point x="446" y="764" type="curve" smooth="yes"/>
			<point x="416" y="764"/>
			<point x="400" y="778"/>
			<point x="379" y="802" type="curve" smooth="yes"/>
			<point x="360" y="824"/>
			<point x="335" y="845"/>
			<point x="297" y="845" type="curve" smooth="yes"/>
			<point x="248" y="845"/>
			<point x="215" y="807"/>
		</contour>
		<component base="N"/>
	</outline>
</glyph>
<glyph name="Oacute" format="2">
	<unicode hex="00D3"/>
	<advance width="706"/>
	<outline>
		<contour>
			<point x="309" y="741" type="curve"/>
			<point x="317" y="730" type="line"/>
			<point x="356" y="754"/>
			<point x="395" y="779"/>
			<point x="432" y="802" type="curve" smooth="yes"/>
			<point x="465" y="822"/>
			<point x="477" y="830"/>
			<point x="477" y="842" type="curve" smooth="yes"/>
			<point x="477" y="852"/>
			<point x="469" y="859"/>
			<point x="459" y="859" type="curve" smooth="yes"/>
			<point x="449" y="859"/>
			<point x="440" y="852"/>
			<point x="412" y="829" type="curve" smooth="yes"/>
			<point x="381" y="803"/>
			<point x="345" y="772"/>
		</contour>
		<component base="O"/>
	</outline>
</glyph>
<glyph name="Otilde" format="2">
	<unicode hex="00D5"/>
	<advance width="706"/>
	<outline>
		<contour>
			<point x="189" y="753" type="curve"/>
			<point x="205" y="748" type="line"/>
			<point x="219" y="796"/>
			<point x="241" y="822"/>
			<point x="277" y="822" type="curve" smooth="yes"/>
			<point x="307" y="822"/>
			<point x="324" y="807"/>
			<point x="344" y="783" type="curve" smooth="yes"/>
			<point x="363" y="761"/>
			<point x="386" y="741"/>
			<point x="425" y="741" type="curve" smooth="yes"/>
			<point x="475" y="741"/>
			<point x="508" y="779"/>
			<point x="517" y="832" type="curve"/>
			<point x="501" y="837" type="line"/>
			<point x="487" y="789"/>
			<point x="465" y="764"/>
			<point x="429" y="764" type="curve" smooth="yes"/>
			<point x="399" y="764"/>
			<point x="383" y="778"/>
			<point x="362" y="802" type="curve" smooth="yes"/>
			<point x="343" y="824"/>
			<point x="318" y="845"/>
			<point x="280" y="845" type="curve" smooth="yes"/>
			<point x="231" y="845"/>
			<point x="198" y="807"/>
		</contour>
		<component base="O"/>
	</outline>
</glyph>
<glyph name="Odieresis" format="2">
	<unicode hex="00D6"/>
	<advance width="706"/>
	<outline>
		<contour>
			<point x="250" y="756" type="curve" smooth="yes"/>
			<point x="267" y="756"/>
			<point x="282" y="768"/>
			<point x="282" y="788" type="curve" smooth="yes"/>
			<point x="282" y="808"/>
			<point x="267" y="820"/>
			<point x="250" y="820" type="curve" smooth="yes"/>
			<point x="234" y="820"/>
			<point x="218" y="808"/>
			<point x="218" y="788" type="curve" smooth="yes"/>
			<point x="218" y="768"/>
			<point x="234" y="756"/>
		</contour>
		<contour>
			<point x="456" y="756" type="curve" smooth="yes"/>
			<point x="472" y="756"/>
			<point x="488" y="768"/>
			<point x="488" y="788" type="curve" smooth="yes"/>
			<point x="488" y="808"/>
			<point x="472" y="820"/>
			<point x="456" y="820" type="curve" smooth="yes"/>
			<point x="439" y="820"/>
			<point x="424" y="808"/>
			<point x="424" y="788" type="curve" smooth="yes"/>
			<point x="424" y="768"/>
			<point x="439" y="756"/>
		</contour>
		<component base="O"/>
	</outline>
</glyph>
<glyph name="Oslash" format="2">
	<unicode hex="00D8"/>
	<advance width="706"/>
	<outline>
		<contour>
			<point x="635" y="682" type="line"/>
			<point x="617" y="697" type="line"/>
			<point x="71" y="-1" type="line"/>
			<point x="89" y="-16" type="line"/>
		</contour>
		<contour>
			<point x="95" y="338" type="curve" smooth="yes"/>
			<point x="95" y="518"/>
			<point x="193" y="667"/>
			<point x="353" y="667" type="curve" smooth="yes"/>
			<point x="513" y="667"/>
			<point x="611" y="518"/>
			<point x="611" y="338" type="curve" smooth="yes"/>
			<point x="611" y="158"/>
			<point x="513" y="9"/>
			<point x="353" y="9" type="curve" smooth="yes"/>
			<point x="193" y="9"/>
			<point x="95" y="158"/>
		</contour>
		<contour>
			<point x="353" y="689" type="curve" smooth="yes"/>
			<point x="188" y="689"/>
			<point x="63" y="550"/>
			<point x="63" y="338" type="curve" smooth="yes"/>
			<point x="63" y="126"/>
			<point x="188" y="-13"/>
			<point x="353" y="-13" type="curve" smooth="yes"/>
			<point x="518" y="-13"/>
			<point x="643" y="126"/>
			<point x="643" y="338" type="curve" smooth="yes"/>
			<point x="643" y="550"/>
			<point x="518" y="689"/>
		</contour>
	</outline>
	<anchor name="aboveUC" x="353" y="696"/>
</glyph>
<glyph name="Uacute" format="2">
	<unicode hex="00DA"/>
	<advance width="737"/>
	<outline>
		<contour>
			<point x="336" y="741" type="curve"/>
			<point x="344" y="730" type="line"/>
			<point x="383" y="754"/>
			<point x="422" y="779"/>
			<point x="459" y="802" type="curve" smooth="yes"/>
			<point x="492" y="822"/>
			<point x="504" y="830"/>
			<point x="504" y="842" type="curve" smooth="yes"/>
			<point x="504" y="852"/>
			<point x="496" y="859"/>
			<point x="486" y="859" type="curve" smooth="yes"/>
			<point x="476" y="859"/>
			<point x="467" y="852"/>
			<point x="439" y="829" type="curve" smooth="yes"/>
			<point x="408" y="803"/>
			<point x="372" y="772"/>
		</contour>
		<component base="U"/>
	</outline>
</glyph>
<glyph name="Ucircumflex" format="2">
	<unicode hex="00DB"/>
	<advance width="737"/>
	<outline>
		<contour>
			<point x="387" y="842" type="line"/>
			<point x="373" y="842" type="line"/>
			<point x="243" y="730" type="line"/>
			<point x="251" y="720" type="line"/>
			<point x="389" y="811" type="line"/>
			<point x="371" y="811" type="line"/>
			<point x="509" y="720" type="line"/>
			<point x="517" y="730" type="line"/>
		</contour>
		<component base="U"/>
	</outline>
</glyph>
<glyph name="germandbls" format="2">
	<unicode hex="00DF"/>
	<advance width="570"/>
	<outline>
		<contour>
			<point x="33" y="0" type="line"/>
			<point x="147" y="0" type="line"/>
			<point x="147" y="26" type="line"/>
			<point x="143" y="26" type="line"/>
			<point x="33" y="20" type="line"/>
		</contour>
		<contour>
			<point x="131" y="0" type="curve"/>
			<point x="167" y="0" type="line"/>
			<point x="165" y="70"/>
			<point x="163" y="140"/>
			<point x="163" y="210" type="curve" smooth="yes"/>
			<point x="163" y="452" type="line" smooth="yes"/>
			<point x="163" y="593"/>
			<point x="183" y="649"/>
			<point x="225" y="691" type="curve" smooth="yes"/>
			<point x="258" y="724"/>
			<point x="301" y="738"/>
			<point x="351" y="738" type="curve" smooth="yes"/>
			<point x="431" y="738"/>
			<point x="457" y="689"/>
			<point x="457" y="635" type="curve" smooth="yes"/>
			<point x="457" y="587"/>
			<point x="429" y="552"/>
			<point x="380" y="503" type="curve" smooth="yes"/>
			<point x="337" y="460"/>
			<point x="296" y="417"/>
			<point x="296" y="359" type="curve" smooth="yes"/>
			<point x="296" y="299"/>
			<point x="338" y="259"/>
			<point x="392" y="231" type="curve" smooth="yes"/>
			<point x="473" y="189"/>
			<point x="495" y="150"/>
			<point x="495" y="108" type="curve" smooth="yes"/>
			<point x="495" y="47"/>
			<point x="459" y="7"/>
			<point x="385" y="7" type="curve" smooth="yes"/>
			<point x="337" y="7"/>
			<point x="300" y="19"/>
			<point x="268" y="36" type="curve"/>
			<point x="286" y="14" type="line"/>
			<point x="271" y="116" type="line"/>
			<point x="251" y="116" type="line"/>
			<point x="254" y="15" type="line"/>
			<point x="296" y="-3"/>
			<point x="337" y="-13"/>
			<point x="380" y="-13" type="curve" smooth="yes"/>
			<point x="473" y="-13"/>
			<point x="523" y="36"/>
			<point x="523" y="110" type="curve" smooth="yes"/>
			<point x="523" y="160"/>
			<point x="498" y="207"/>
			<point x="407" y="258" type="curve" smooth="yes"/>
			<point x="351" y="289"/>
			<point x="324" y="318"/>
			<point x="324" y="363" type="curve" smooth="yes"/>
			<point x="324" y="410"/>
			<point x="352" y="447"/>
			<point x="396" y="491" type="curve" smooth="yes"/>
			<point x="449" y="544"/>
			<point x="485" y="580"/>
			<point x="485" y="636" type="curve" smooth="yes"/>
			<point x="485" y="712"/>
			<point x="438" y="758"/>
			<point x="355" y="758" type="curve" smooth="yes"/>
			<point x="301" y="758"/>
			<point x="249" y="745"/>
			<point x="206" y="702" type="curve" smooth="yes"/>
			<point x="151" y="647"/>
			<point x="135" y="578"/>
			<point x="135" y="461" type="curve" smooth="yes"/>
			<point x="135" y="210" type="line" smooth="yes"/>
			<point x="135" y="140"/>
			<point x="133" y="70"/>
		</contour>
	</outline>
</glyph>
<glyph name="agrave" format="2">
	<unicode hex="00E0"/>
	<advance width="505"/>
	<outline>
		<contour>
			<point x="284" y="572" type="line"/>
			<point x="248" y="621"/>
			<point x="211" y="671"/>
			<point x="183" y="707" type="curve" smooth="yes"/>
			<point x="165" y="730"/>
			<point x="159" y="738"/>
			<point x="149" y="738" type="curve" smooth="yes"/>
			<point x="140" y="738"/>
			<point x="132" y="732"/>
			<point x="132" y="721" type="curve" smooth="yes"/>
			<point x="132" y="711"/>
			<point x="141" y="702"/>
			<point x="161" y="681" type="curve" smooth="yes"/>
			<point x="190" y="651"/>
			<point x="231" y="607"/>
			<point x="273" y="563" type="curve"/>
		</contour>
		<component base="a"/>
	</outline>
</glyph>
<glyph name="aacute" format="2">
	<unicode hex="00E1"/>
	<advance width="505"/>
	<outline>
		<contour>
			<point x="192" y="572" type="curve"/>
			<point x="203" y="563" type="line"/>
			<point x="245" y="606"/>
			<point x="286" y="650"/>
			<point x="315" y="681" type="curve" smooth="yes"/>
			<point x="335" y="702"/>
			<point x="344" y="711"/>
			<point x="344" y="721" type="curve" smooth="yes"/>
			<point x="344" y="732"/>
			<point x="336" y="738"/>
			<point x="327" y="738" type="curve" smooth="yes"/>
			<point x="317" y="738"/>
			<point x="311" y="730"/>
			<point x="294" y="707" type="curve" smooth="yes"/>
			<point x="266" y="671"/>
			<point x="229" y="621"/>
		</contour>
		<component base="a"/>
	</outline>
</glyph>
<glyph name="acircumflex" format="2">
	<unicode hex="00E2"/>
	<advance width="505"/>
	<outline>
		<contour>
			<point x="346" y="553" type="line"/>
			<point x="357" y="562" type="line"/>
			<point x="244" y="719" type="line"/>
			<point x="230" y="719" type="line"/>
			<point x="117" y="562" type="line"/>
			<point x="128" y="553" type="line"/>
			<point x="244" y="688" type="line"/>
			<point x="230" y="688" type="line"/>
		</contour>
		<component base="a"/>
	</outline>
</glyph>
<glyph name="atilde" format="2">
	<unicode hex="00E3"/>
	<advance width="505"/>
	<outline>
		<contour>
			<point x="89" y="600" type="curve"/>
			<point x="104" y="595" type="line"/>
			<point x="116" y="643"/>
			<point x="136" y="669"/>
			<point x="169" y="669" type="curve" smooth="yes"/>
			<point x="196" y="669"/>
			<point x="209" y="653"/>
			<point x="228" y="630" type="curve" smooth="yes"/>
			<point x="245" y="609"/>
			<point x="267" y="588"/>
			<point x="302" y="588" type="curve" smooth="yes"/>
			<point x="347" y="588"/>
			<point x="377" y="626"/>
			<point x="385" y="679" type="curve"/>
			<point x="370" y="684" type="line"/>
			<point x="358" y="636"/>
			<point x="338" y="611"/>
			<point x="305" y="611" type="curve" smooth="yes"/>
			<point x="279" y="611"/>
			<point x="265" y="623"/>
			<point x="247" y="648" type="curve" smooth="yes"/>
			<point x="230" y="671"/>
			<point x="205" y="692"/>
			<point x="172" y="692" type="curve" smooth="yes"/>
			<point x="127" y="692"/>
			<point x="97" y="654"/>
		</contour>
		<component base="a"/>
	</outline>
</glyph>
<glyph name="adieresis" format="2">
	<unicode hex="00E4"/>
	<advance width="505"/>
	<outline>
		<contour>
			<point x="143" y="644" type="curve" smooth="yes"/>
			<point x="158" y="644"/>
			<point x="172" y="655"/>
			<point x="172" y="674" type="curve" smooth="yes"/>
			<point x="172" y="692"/>
			<point x="158" y="703"/>
			<point x="143" y="703" type="curve" smooth="yes"/>
			<point x="128" y="703"/>
			<point x="114" y="692"/>
			<point x="114" y="674" type="curve" smooth="yes"/>
			<point x="114" y="655"/>
			<point x="128" y="644"/>
		</contour>
		<contour>
			<point x="331" y="644" type="curve" smooth="yes"/>
			<point x="346" y="644"/>
			<point x="360" y="655"/>
			<point x="360" y="674" type="curve" smooth="yes"/>
			<point x="360" y="692"/>
			<point x="346" y="703"/>
			<point x="331" y="703" type="curve" smooth="yes"/>
			<point x="316" y="703"/>
			<point x="302" y="692"/>
			<point x="302" y="674" type="curve" smooth="yes"/>
			<point x="302" y="655"/>
			<point x="316" y="644"/>
		</contour>
		<component base="a"/>
	</outline>
</glyph>
<glyph name="ae" format="2">
	<unicode hex="00E6"/>
	<advance width="791"/>
	<outline>
		<contour>
			<point x="185" y="-13" type="curve" smooth="yes"/>
			<point x="263" y="-13"/>
			<point x="307" y="28"/>
			<point x="390" y="120" type="curve"/>
			<point x="392" y="120" type="line"/>
			<point x="381" y="136" type="line"/>
			<point x="290" y="43"/>
			<point x="253" y="13"/>
			<point x="193" y="13" type="curve" smooth="yes"/>
			<point x="122" y="13"/>
			<point x="87" y="52"/>
			<point x="87" y="108" type="curve" smooth="yes"/>
			<point x="87" y="162"/>
			<point x="126" y="201"/>
			<point x="207" y="231" type="curve" smooth="yes"/>
			<point x="258" y="250"/>
			<point x="318" y="265"/>
			<point x="369" y="277" type="curve"/>
			<point x="369" y="295" type="line"/>
			<point x="318" y="283"/>
			<point x="262" y="272"/>
			<point x="206" y="254" type="curve" smooth="yes"/>
			<point x="108" y="222"/>
			<point x="57" y="176"/>
			<point x="57" y="104" type="curve" smooth="yes"/>
			<point x="57" y="27"/>
			<point x="108" y="-13"/>
		</contour>
		<contour>
			<point x="575" y="-13" type="curve" smooth="yes"/>
			<point x="643" y="-13"/>
			<point x="707" y="18"/>
			<point x="748" y="69" type="curve"/>
			<point x="737" y="80" type="line"/>
			<point x="696" y="37"/>
			<point x="642" y="13"/>
			<point x="577" y="13" type="curve" smooth="yes"/>
			<point x="467" y="13"/>
			<point x="384" y="82"/>
			<point x="384" y="244" type="curve" smooth="yes"/>
			<point x="384" y="358"/>
			<point x="458" y="463"/>
			<point x="564" y="463" type="curve" smooth="yes"/>
			<point x="662" y="463"/>
			<point x="715" y="385"/>
			<point x="715" y="302" type="curve" smooth="yes"/>
			<point x="715" y="273"/>
			<point x="709" y="263"/>
			<point x="695" y="263" type="curve" smooth="yes"/>
			<point x="370" y="263" type="line"/>
			<point x="370" y="242" type="line"/>
			<point x="739" y="242" type="line"/>
			<point x="743" y="257"/>
			<point x="745" y="275"/>
			<point x="745" y="299" type="curve" smooth="yes"/>
			<point x="745" y="397"/>
			<point x="680" y="483"/>
			<point x="564" y="483" type="curve" smooth="yes"/>
			<point x="480" y="483"/>
			<point x="407" y="429"/>
			<point x="374" y="339" type="curve"/>
			<point x="383" y="339" type="line"/>
			<point x="383" y="440"/>
			<point x="333" y="483"/>
			<point x="236" y="483" type="curve" smooth="yes"/>
			<point x="152" y="483"/>
			<point x="90" y="444"/>
			<point x="69" y="370" type="curve"/>
			<point x="72" y="358"/>
			<point x="81" y="351"/>
			<point x="93" y="351" type="curve" smooth="yes"/>
			<point x="103" y="351"/>
			<point x="115" y="357"/>
			<point x="118" y="370" type="curve" smooth="yes"/>
			<point x="132" y="441" type="line"/>
			<point x="107" y="415" type="line"/>
			<point x="147" y="449"/>
			<point x="187" y="463"/>
			<point x="234" y="463" type="curve" smooth="yes"/>
			<point x="314" y="463"/>
			<point x="355" y="435"/>
			<point x="355" y="324" type="curve" smooth="yes"/>
			<point x="355" y="244" type="line" smooth="yes"/>
			<point x="355" y="61"/>
			<point x="451" y="-13"/>
		</contour>
	</outline>
	<anchor name="aboveLC" x="385" y="490"/>
	<anchor name="belowLC" x="376" y="-20"/>
</glyph>
<glyph name="ccedilla" format="2">
	<unicode hex="00E7"/>
	<advance width="488"/>
	<outline>
		<contour>
			<point x="251" y="-77" type="line"/>
			<point x="317" y="-77"/>
			<point x="340" y="-102"/>
			<point x="340" y="-138" type="curve" smooth="yes"/>
			<point x="340" y="-172"/>
			<point x="319" y="-195"/>
			<point x="273" y="-195" type="curve" smooth="yes"/>
			<point x="257" y="-195"/>
			<point x="239" y="-192"/>
			<point x="219" y="-188" type="curve"/>
			<point x="215" y="-203" type="line"/>
			<point x="236" y="-210"/>
			<point x="255" y="-214"/>
			<point x="277" y="-214" type="curve" smooth="yes"/>
			<point x="337" y="-214"/>
			<point x="370" y="-182"/>
			<point x="370" y="-137" type="curve" smooth="yes"/>
			<point x="370" y="-93"/>
			<point x="331" y="-60"/>
			<point x="266" y="-59" type="curve"/>
			<point x="274" y="-74" type="line"/>
			<point x="284" y="0" type="line"/>
			<point x="264" y="0" type="line"/>
		</contour>
		<component base="c"/>
	</outline>
</glyph>
<glyph name="igrave" format="2">
	<unicode hex="00EC"/>
	<advance width="303"/>
	<outline>
		<contour>
			<point x="197" y="572" type="line"/>
			<point x="161" y="621"/>
			<point x="124" y="671"/>
			<point x="96" y="707" type="curve" smooth="yes"/>
			<point x="78" y="730"/>
			<point x="72" y="738"/>
			<point x="62" y="738" type="curve" smooth="yes"/>
			<point x="53" y="738"/>
			<point x="45" y="732"/>
			<point x="45" y="721" type="curve" smooth="yes"/>
			<point x="45" y="711"/>
			<point x="54" y="702"/>
			<point x="74" y="681" type="curve" smooth="yes"/>
			<point x="103" y="651"/>
			<point x="144" y="607"/>
			<point x="186" y="563" type="curve"/>
		</contour>
		<component base="dotlessi"/>
	</outline>
</glyph>
<glyph name="icircumflex" format="2">
	<unicode hex="00EE"/>
	<advance width="303"/>
	<outline>
		<contour>
			<point x="259" y="553" type="line"/>
			<point x="270" y="562" type="line"/>
			<point x="157" y="719" type="line"/>
			<point x="143" y="719" type="line"/>
			<point x="30" y="562" type="line"/>
			<point x="41" y="553" type="line"/>
			<point x="157" y="688" type="line"/>
			<point x="143" y="688" type="line"/>
		</contour>
		<component base="dotlessi"/>
	</outline>
</glyph>
<glyph name="ograve" format="2">
	<unicode hex="00F2"/>
	<advance width="538"/>
	<outline>
		<contour>
			<point x="316" y="572" type="line"/>
			<point x="280" y="621"/>
			<point x="243" y="671"/>
			<point x="215" y="707" type="curve" smooth="yes"/>
			<point x="197" y="730"/>
			<point x="191" y="738"/>
			<point x="181" y="738" type="curve" smooth="yes"/>
			<point x="172" y="738"/>
			<point x="164" y="732"/>
			<point x="164" y="721" type="curve" smooth="yes"/>
			<point x="164" y="711"/>
			<point x="173" y="702"/>
			<point x="193" y="681" type="curve" smooth="yes"/>
			<point x="222" y="651"/>
			<point x="263" y="607"/>
			<point x="305" y="563" type="curve"/>
		</contour>
		<component base="o"/>
	</outline>
</glyph>
<glyph name="oacute" format="2">
	<unicode hex="00F3"/>
	<advance width="538"/>
	<outline>
		<contour>
			<point x="224" y="572" type="curve"/>
			<point x="235" y="563" type="line"/>
			<point x="277" y="606"/>
			<point x="318" y="650"/>
			<point x="347" y="681" type="curve" smooth="yes"/>
			<point x="367" y="702"/>
			<point x="376" y="711"/>
			<point x="376" y="721" type="curve" smooth="yes"/>
			<point x="376" y="732"/>
			<point x="368" y="738"/>
			<point x="359" y="738" type="curve" smooth="yes"/>
			<point x="349" y="738"/>
			<point x="343" y="730"/>
			<point x="326" y="707" type="curve" smooth="yes"/>
			<point x="298" y="671"/>
			<point x="261" y="621"/>
		</contour>
		<component base="o"/>
	</outline>
</glyph>
<glyph name="ocircumflex" format="2">
	<unicode hex="00F4"/>
	<advance width="538"/>
	<outline>
		<contour>
			<point x="378" y="553" type="line"/>
			<point x="389" y="562" type="line"/>
			<point x="276" y="719" type="line"/>
			<point x="262" y="719" type="line"/>
			<point x="149" y="562" type="line"/>
			<point x="160" y="553" type="line"/>
			<point x="276" y="688" type="line"/>
			<point x="262" y="688" type="line"/>
		</contour>
		<component base="o"/>
	</outline>
</glyph>
<glyph name="otilde" format="2">
	<unicode hex="00F5"/>
	<advance width="538"/>
	<outline>
		<contour>
			<point x="121" y="600" type="curve"/>
			<point x="136" y="595" type="line"/>
			<point x="148" y="643"/>
			<point x="168" y="669"/>
			<point x="201" y="669" type="curve" smooth="yes"/>
			<point x="228" y="669"/>
			<point x="241" y="653"/>
			<point x="260" y="630" type="curve" smooth="yes"/>
			<point x="277" y="609"/>
			<point x="299" y="588"/>
			<point x="334" y="588" type="curve" smooth="yes"/>
			<point x="379" y="588"/>
			<point x="409" y="626"/>
			<point x="417" y="679" type="curve"/>
			<point x="402" y="684" type="line"/>
			<point x="390" y="636"/>
			<point x="370" y="611"/>
			<point x="337" y="611" type="curve" smooth="yes"/>
			<point x="311" y="611"/>
			<point x="297" y="623"/>
			<point x="279" y="648" type="curve" smooth="yes"/>
			<point x="262" y="671"/>
			<point x="237" y="692"/>
			<point x="204" y="692" type="curve" smooth="yes"/>
			<point x="159" y="692"/>
			<point x="129" y="654"/>
		</contour>
		<component base="o"/>
	</outline>
</glyph>
<glyph name="odieresis" format="2">
	<unicode hex="00F6"/>
	<advance width="538"/>
	<outline>
		<contour>
			<point x="175" y="644" type="curve" smooth="yes"/>
			<point x="190" y="644"/>
			<point x="204" y="655"/>
			<point x="204" y="674" type="curve" smooth="yes"/>
			<point x="204" y="692"/>
			<point x="190" y="703"/>
			<point x="175" y="703" type="curve" smooth="yes"/>
			<point x="160" y="703"/>
			<point x="146" y="692"/>
			<point x="146" y="674" type="curve" smooth="yes"/>
			<point x="146" y="655"/>
			<point x="160" y="644"/>
		</contour>
		<contour>
			<point x="363" y="644" type="curve" smooth="yes"/>
			<point x="378" y="644"/>
			<point x="392" y="655"/>
			<point x="392" y="674" type="curve" smooth="yes"/>
			<point x="392" y="692"/>
			<point x="378" y="703"/>
			<point x="363" y="703" type="curve" smooth="yes"/>
			<point x="348" y="703"/>
			<point x="334" y="692"/>
			<point x="334" y="674" type="curve" smooth="yes"/>
			<point x="334" y="655"/>
			<point x="348" y="644"/>
		</contour>
		<component base="o"/>
	</outline>
</glyph>
<glyph name="divide" format="2">
	<unicode hex="00F7"/>
	<advance width="530"/>
	<outline>
		<contour>
			<point x="265" y="115" type="curve" smooth="yes"/>
			<point x="284" y="115"/>
			<point x="296" y="130"/>
			<point x="296" y="145" type="curve" smooth="yes"/>
			<point x="296" y="162"/>
			<point x="284" y="175"/>
			<point x="265" y="175" type="curve" smooth="yes"/>
			<point x="246" y="175"/>
			<point x="234" y="162"/>
			<point x="234" y="145" type="curve" smooth="yes"/>
			<point x="234" y="130"/>
			<point x="246" y="115"/>
		</contour>
		<contour>
			<point x="265" y="492" type="curve" smooth="yes"/>
			<point x="284" y="492"/>
			<point x="296" y="507"/>
			<point x="296" y="522" type="curve" smooth="yes"/>
			<point x="296" y="539"/>
			<point x="284" y="552"/>
			<point x="265" y="552" type="curve" smooth="yes"/>
			<point x="246" y="552"/>
			<point x="234" y="539"/>
			<point x="234" y="522" type="curve" smooth="yes"/>
			<point x="234" y="507"/>
			<point x="246" y="492"/>
		</contour>
		<component base="minus"/>
	</outline>
</glyph>
<glyph name="ugrave" format="2">
	<unicode hex="00F9"/>
	<advance width="604"/>
	<outline>
		<contour>
			<point x="339" y="572" type="line"/>
			<point x="303" y="621"/>
			<point x="266" y="671"/>
			<point x="238" y="707" type="curve" smooth="yes"/>
			<point x="220" y="730"/>
			<point x="214" y="738"/>
			<point x="204" y="738" type="curve" smooth="yes"/>
			<point x="195" y="738"/>
			<point x="187" y="732"/>
			<point x="187" y="721" type="curve" smooth="yes"/>
			<point x="187" y="711"/>
			<point x="196" y="702"/>
			<point x="216" y="681" type="curve" smooth="yes"/>
			<point x="245" y="651"/>
			<point x="286" y="607"/>
			<point x="328" y="563" type="curve"/>
		</contour>
		<component base="u"/>
	</outline>
</glyph>
<glyph name="ucircumflex" format="2">
	<unicode hex="00FB"/>
	<advance width="604"/>
	<outline>
		<contour>
			<point x="401" y="553" type="line"/>
			<point x="412" y="562" type="line"/>
			<point x="299" y="719" type="line"/>
			<point x="285" y="719" type="line"/>
			<point x="172" y="562" type="line"/>
			<point x="183" y="553" type="line"/>
			<point x="299" y="688" type="line"/>
			<point x="285" y="688" type="line"/>
		</contour>
		<component base="u"/>
	</outline>
</glyph>
<glyph name="thorn" format="2">
	<unicode hex="00FE"/>
	<advance width="580"/>
	<outline>
		<contour>
			<point x="137" y="-245" type="curve"/>
			<point x="171" y="-245" type="line"/>
			<point x="169" y="-200"/>
			<point x="168" y="-97"/>
			<point x="168" y="-35" type="curve" smooth="yes"/>
			<point x="168" y="74" type="line"/>
			<point x="168" y="82" type="line"/>
			<point x="168" y="383" type="line"/>
			<point x="168" y="392" type="line"/>
			<point x="168" y="598" type="line"/>
			<point x="170" y="740" type="line"/>
			<point x="154" y="748" type="line"/>
			<point x="49" y="736" type="line"/>
			<point x="49" y="716" type="line"/>
			<point x="140" y="716" type="line"/>
			<point x="140" y="-35" type="line" smooth="yes"/>
			<point x="140" y="-97"/>
			<point x="139" y="-200"/>
		</contour>
		<contour>
			<point x="329" y="-13" type="curve" smooth="yes"/>
			<point x="450" y="-13"/>
			<point x="528" y="85"/>
			<point x="528" y="241" type="curve" smooth="yes"/>
			<point x="528" y="382"/>
			<point x="452" y="483"/>
			<point x="334" y="483" type="curve" smooth="yes"/>
			<point x="276" y="483"/>
			<point x="205" y="457"/>
			<point x="154" y="381" type="curve"/>
			<point x="152" y="381" type="line"/>
			<point x="163" y="366" type="line"/>
			<point x="216" y="433"/>
			<point x="269" y="458"/>
			<point x="328" y="458" type="curve" smooth="yes"/>
			<point x="425" y="458"/>
			<point x="496" y="384"/>
			<point x="496" y="241" type="curve" smooth="yes"/>
			<point x="496" y="77"/>
			<point x="417" y="12"/>
			<point x="328" y="12" type="curve" smooth="yes"/>
			<point x="266" y="12"/>
			<point x="219" y="37"/>
			<point x="163" y="95" type="curve"/>
			<point x="153" y="82" type="line"/>
			<point x="155" y="82" type="line"/>
			<point x="207" y="12"/>
			<point x="272" y="-13"/>
		</contour>
		<contour>
			<point x="48" y="-245" type="line"/>
			<point x="271" y="-245" type="line"/>
			<point x="271" y="-225" type="line"/>
			<point x="157" y="-219" type="line"/>
			<point x="148" y="-219" type="line"/>
			<point x="48" y="-225" type="line"/>
		</contour>
	</outline>
	<anchor name="aboveLC" x="152" y="748"/>
	<anchor name="belowLC" x="394" y="-20"/>
</glyph>
<glyph name="ydieresis" format="2">
	<unicode hex="00FF"/>
	<advance width="492"/>
	<outline>
		<contour>
			<point x="154" y="644" type="curve" smooth="yes"/>
			<point x="169" y="644"/>
			<point x="183" y="655"/>
			<point x="183" y="674" type="curve" smooth="yes"/>
			<point x="183" y="692"/>
			<point x="169" y="703"/>
			<point x="154" y="703" type="curve" smooth="yes"/>
			<point x="139" y="703"/>
			<point x="125" y="692"/>
			<point x="125" y="674" type="curve" smooth="yes"/>
			<point x="125" y="655"/>
			<point x="139" y="644"/>
		</contour>
		<contour>
			<point x="342" y="644" type="curve" smooth="yes"/>
			<point x="357" y="644"/>
			<point x="371" y="655"/>
			<point x="371" y="674" type="curve" smooth="yes"/>
			<point x="371" y="692"/>
			<point x="357" y="703"/>
			<point x="342" y="703" type="curve" smooth="yes"/>
			<point x="327" y="703"/>
			<point x="313" y="692"/>
			<point x="313" y="674" type="curve" smooth="yes"/>
			<point x="313" y="655"/>
			<point x="327" y="644"/>
		</contour>
		<component base="y"/>
	</outline>
</glyph>
<glyph name="aogonek" format="2">
	<unicode hex="0105"/>
	<advance width="505"/>
	<outline>
		<contour>
			<point x="57" y="104" type="curve" smooth="yes"/>
			<point x="57" y="29"/>
			<point x="109" y="-13"/>
			<point x="180" y="-13" type="curve" smooth="yes"/>
			<point x="249" y="-13"/>
			<point x="296" y="19"/>
			<point x="358" y="88" type="curve" smooth="yes"/>
			<point x="367" y="98" type="line"/>
			<point x="367" y="123" type="line"/>
			<point x="356" y="111" type="line" smooth="yes"/>
			<point x="293" y="42"/>
			<point x="245" y="13"/>
			<point x="188" y="13" type="curve" smooth="yes"/>
			<point x="126" y="13"/>
			<point x="87" y="49"/>
			<point x="87" y="110" type="curve" smooth="yes"/>
			<point x="87" y="162"/>
			<point x="126" y="199"/>
			<point x="207" y="229" type="curve" smooth="yes"/>
			<point x="258" y="248"/>
			<point x="318" y="263"/>
			<point x="369" y="275" type="curve"/>
			<point x="369" y="293" type="line"/>
			<point x="318" y="281"/>
			<point x="262" y="270"/>
			<point x="206" y="252" type="curve" smooth="yes"/>
			<point x="108" y="220"/>
			<point x="57" y="176"/>
		</contour>
		<contour>
			<point x="335" y="-126" type="curve" smooth="yes"/>
			<point x="335" y="-184"/>
			<point x="374" y="-215"/>
			<point x="420" y="-215" type="curve" smooth="yes"/>
			<point x="457" y="-215"/>
			<point x="486" y="-199"/>
			<point x="503" y="-175" type="curve"/>
			<point x="493" y="-166" type="line"/>
			<point x="470" y="-185"/>
			<point x="452" y="-191"/>
			<point x="428" y="-191" type="curve" smooth="yes"/>
			<point x="390" y="-191"/>
			<point x="363" y="-166"/>
			<point x="363" y="-116" type="curve" smooth="yes"/>
			<point x="363" y="-75"/>
			<point x="400" y="-37"/>
			<point x="452" y="-6" type="curve" smooth="yes"/>
			<point x="464" y="1"/>
			<point x="476" y="7"/>
			<point x="486" y="17" type="curve"/>
			<point x="477" y="28" type="line"/>
			<point x="459" y="16"/>
			<point x="446" y="12"/>
			<point x="430" y="12" type="curve" smooth="yes"/>
			<point x="400" y="12"/>
			<point x="383" y="37"/>
			<point x="383" y="116" type="curve" smooth="yes"/>
			<point x="383" y="339" type="line" smooth="yes"/>
			<point x="383" y="440"/>
			<point x="333" y="483"/>
			<point x="236" y="483" type="curve" smooth="yes"/>
			<point x="152" y="483"/>
			<point x="90" y="444"/>
			<point x="69" y="370" type="curve"/>
			<point x="72" y="358"/>
			<point x="81" y="351"/>
			<point x="93" y="351" type="curve" smooth="yes"/>
			<point x="103" y="351"/>
			<point x="115" y="357"/>
			<point x="118" y="370" type="curve" smooth="yes"/>
			<point x="132" y="441" type="line"/>
			<point x="107" y="415" type="line"/>
			<point x="147" y="449"/>
			<point x="187" y="463"/>
			<point x="234" y="463" type="curve" smooth="yes"/>
			<point x="314" y="463"/>
			<point x="355" y="435"/>
			<point x="355" y="324" type="curve" smooth="yes"/>
			<point x="355" y="97" type="line" smooth="yes"/>
			<point x="355" y="27"/>
			<point x="373" y="-10"/>
			<point x="425" y="-10" type="curve"/>
			<point x="427" y="-5" type="line"/>
			<point x="380" y="-35"/>
			<point x="335" y="-72"/>
		</contour>
	</outline>
	<anchor name="aboveLC" x="235" y="500"/>
	<anchor name="belowLC" x="242" y="-22"/>
</glyph>
<glyph name="eogonek" format="2">
	<unicode hex="0119"/>
	<advance width="491"/>
	<outline>
		<contour>
			<point x="340" y="-223" type="curve" smooth="yes"/>
			<point x="373" y="-223"/>
			<point x="395" y="-209"/>
			<point x="414" y="-189" type="curve"/>
			<point x="405" y="-178" type="line"/>
			<point x="384" y="-192"/>
			<point x="369" y="-199"/>
			<point x="349" y="-199" type="curve" smooth="yes"/>
			<point x="316" y="-199"/>
			<point x="292" y="-176"/>
			<point x="292" y="-132" type="curve" smooth="yes"/>
			<point x="292" y="-75"/>
			<point x="327" y="-24"/>
			<point x="369" y="5" type="curve" smooth="yes"/>
			<point x="395" y="23"/>
			<point x="421" y="41"/>
			<point x="441" y="66" type="curve"/>
			<point x="430" y="77" type="line"/>
			<point x="390" y="35"/>
			<point x="337" y="13"/>
			<point x="273" y="13" type="curve" smooth="yes"/>
			<point x="178" y="13"/>
			<point x="84" y="83"/>
			<point x="84" y="245" type="curve" smooth="yes"/>
			<point x="84" y="364"/>
			<point x="158" y="463"/>
			<point x="265" y="463" type="curve" smooth="yes"/>
			<point x="363" y="463"/>
			<point x="415" y="386"/>
			<point x="415" y="303" type="curve" smooth="yes"/>
			<point x="415" y="274"/>
			<point x="409" y="264"/>
			<point x="395" y="264" type="curve" smooth="yes"/>
			<point x="70" y="264" type="line"/>
			<point x="70" y="243" type="line"/>
			<point x="439" y="243" type="line"/>
			<point x="443" y="258"/>
			<point x="445" y="276"/>
			<point x="445" y="300" type="curve" smooth="yes"/>
			<point x="445" y="398"/>
			<point x="381" y="483"/>
			<point x="265" y="483" type="curve" smooth="yes"/>
			<point x="154" y="483"/>
			<point x="52" y="389"/>
			<point x="52" y="237" type="curve" smooth="yes"/>
			<point x="52" y="62"/>
			<point x="163" y="-13"/>
			<point x="273" y="-13" type="curve" smooth="yes"/>
			<point x="297" y="-13"/>
			<point x="323" y="-9"/>
			<point x="345" y="-1" type="curve"/>
			<point x="345" y="5" type="line"/>
			<point x="310" y="-25"/>
			<point x="264" y="-72"/>
			<point x="264" y="-143" type="curve" smooth="yes"/>
			<point x="264" y="-195"/>
			<point x="298" y="-223"/>
		</contour>
	</outline>
	<anchor name="aboveLC" x="267" y="490"/>
</glyph>
<glyph name="hbar" format="2">
	<unicode hex="0127"/>
	<advance width="609"/>
	<outline>
		<contour>
			<point x="137" y="0" type="curve"/>
			<point x="171" y="0" type="line"/>
			<point x="169" y="45"/>
			<point x="168" y="148"/>
			<point x="168" y="210" type="curve" smooth="yes"/>
			<point x="168" y="327" type="line"/>
			<point x="168" y="340" type="line"/>
			<point x="168" y="588" type="line"/>
			<point x="170" y="740" type="line"/>
			<point x="154" y="748" type="line"/>
			<point x="49" y="736" type="line"/>
			<point x="49" y="716" type="line"/>
			<point x="140" y="716" type="line"/>
			<point x="140" y="210" type="line" smooth="yes"/>
			<point x="140" y="148"/>
			<point x="139" y="45"/>
		</contour>
		<contour>
			<point x="48" y="0" type="line"/>
			<point x="251" y="0" type="line"/>
			<point x="251" y="20" type="line"/>
			<point x="157" y="26" type="line"/>
			<point x="148" y="26" type="line"/>
			<point x="48" y="20" type="line"/>
		</contour>
		<contour>
			<point x="369" y="0" type="line"/>
			<point x="572" y="0" type="line"/>
			<point x="572" y="20" type="line"/>
			<point x="478" y="26" type="line"/>
			<point x="469" y="26" type="line"/>
			<point x="369" y="20" type="line"/>
		</contour>
		<contour>
			<point x="48" y="585" type="line"/>
			<point x="368" y="585" type="line"/>
			<point x="368" y="609" type="line"/>
			<point x="48" y="609" type="line"/>
		</contour>
		<contour>
			<point x="458" y="0" type="curve"/>
			<point x="492" y="0" type="line"/>
			<point x="490" y="45"/>
			<point x="489" y="146"/>
			<point x="489" y="210" type="curve" smooth="yes"/>
			<point x="489" y="295" type="line" smooth="yes"/>
			<point x="489" y="420"/>
			<point x="442" y="464"/>
			<point x="368" y="464" type="curve" smooth="yes"/>
			<point x="306" y="464"/>
			<point x="235" y="433"/>
			<point x="157" y="339" type="curve"/>
			<point x="146" y="339" type="line"/>
			<point x="161" y="318" type="line"/>
			<point x="245" y="416"/>
			<point x="318" y="436"/>
			<point x="361" y="436" type="curve" smooth="yes"/>
			<point x="420" y="436"/>
			<point x="461" y="398"/>
			<point x="461" y="296" type="curve" smooth="yes"/>
			<point x="461" y="210" type="line" smooth="yes"/>
			<point x="461" y="146"/>
			<point x="460" y="45"/>
		</contour>
	</outline>
</glyph>
<glyph name="Lslash" format="2">
	<unicode hex="0141"/>
	<advance width="564"/>
	<outline>
		<contour>
			<point x="396" y="453" type="line"/>
			<point x="182" y="330" type="line"/>
			<point x="182" y="306" type="line"/>
			<point x="396" y="429" type="line"/>
		</contour>
		<contour>
			<point x="182" y="331" type="line"/>
			<point x="58" y="259" type="line"/>
			<point x="58" y="235" type="line"/>
			<point x="182" y="305" type="line"/>
		</contour>
		<component base="L"/>
	</outline>
</glyph>
<glyph name="eng" format="2">
	<unicode hex="014B"/>
	<advance width="604"/>
	<outline>
		<contour>
			<point x="166" y="0" type="line"/>
			<point x="164" y="45"/>
			<point x="163" y="148"/>
			<point x="163" y="210" type="curve" smooth="yes"/>
			<point x="163" y="364" type="line"/>
			<point x="161" y="472" type="line"/>
			<point x="151" y="478" type="line"/>
			<point x="39" y="466" type="line"/>
			<point x="39" y="446" type="line"/>
			<point x="132" y="446" type="line"/>
			<point x="134" y="395"/>
			<point x="135" y="329"/>
			<point x="135" y="259" type="curve" smooth="yes"/>
			<point x="135" y="210" type="line" smooth="yes"/>
			<point x="135" y="148"/>
			<point x="134" y="45"/>
			<point x="132" y="0" type="curve"/>
		</contour>
		<contour>
			<point x="152" y="26" type="line"/>
			<point x="143" y="26" type="line"/>
			<point x="43" y="20" type="line"/>
			<point x="43" y="0" type="line"/>
			<point x="246" y="0" type="line"/>
			<point x="246" y="20" type="line"/>
		</contour>
		<contour>
			<point x="326" y="-255" type="curve" smooth="yes"/>
			<point x="362" y="-255"/>
			<point x="394" y="-242"/>
			<point x="422" y="-214" type="curve" smooth="yes"/>
			<point x="474" y="-162"/>
			<point x="484" y="-103"/>
			<point x="484" y="135" type="curve" smooth="yes"/>
			<point x="484" y="314" type="line" smooth="yes"/>
			<point x="484" y="439"/>
			<point x="437" y="483"/>
			<point x="363" y="483" type="curve" smooth="yes"/>
			<point x="300" y="483"/>
			<point x="228" y="451"/>
			<point x="149" y="354" type="curve"/>
			<point x="156" y="337" type="line"/>
			<point x="240" y="435"/>
			<point x="313" y="455"/>
			<point x="356" y="455" type="curve" smooth="yes"/>
			<point x="415" y="455"/>
			<point x="456" y="417"/>
			<point x="456" y="315" type="curve" smooth="yes"/>
			<point x="456" y="75" type="line" smooth="yes"/>
			<point x="456" y="-44"/>
			<point x="450" y="-141"/>
			<point x="417" y="-187" type="curve" smooth="yes"/>
			<point x="396" y="-216"/>
			<point x="351" y="-240"/>
			<point x="326" y="-240" type="curve"/>
			<point x="343" y="-251" type="line"/>
			<point x="379" y="-240" type="line"/>
			<point x="350" y="-227" type="line" smooth="yes"/>
			<point x="328" y="-217"/>
			<point x="313" y="-214"/>
			<point x="300" y="-214" type="curve" smooth="yes"/>
			<point x="280" y="-214"/>
			<point x="269" y="-222"/>
			<point x="266" y="-236" type="curve"/>
			<point x="270" y="-245"/>
			<point x="288" y="-255"/>
		</contour>
	</outline>
</glyph>
<glyph name="oe" format="2">
	<unicode hex="0153"/>
	<advance width="888"/>
	<outline>
		<contour>
			<point x="269" y="-13" type="curve" smooth="yes"/>
			<point x="360" y="-13"/>
			<point x="453" y="44"/>
			<point x="476" y="166" type="curve"/>
			<point x="461" y="166" type="line"/>
			<point x="483" y="42"/>
			<point x="567" y="-13"/>
			<point x="672" y="-13" type="curve" smooth="yes"/>
			<point x="740" y="-13"/>
			<point x="804" y="18"/>
			<point x="845" y="69" type="curve"/>
			<point x="834" y="80" type="line"/>
			<point x="793" y="37"/>
			<point x="739" y="13"/>
			<point x="674" y="13" type="curve" smooth="yes"/>
			<point x="564" y="13"/>
			<point x="481" y="82"/>
			<point x="481" y="244" type="curve" smooth="yes"/>
			<point x="481" y="358"/>
			<point x="555" y="463"/>
			<point x="663" y="463" type="curve" smooth="yes"/>
			<point x="760" y="463"/>
			<point x="812" y="385"/>
			<point x="812" y="302" type="curve" smooth="yes"/>
			<point x="812" y="273"/>
			<point x="806" y="263"/>
			<point x="792" y="263" type="curve" smooth="yes"/>
			<point x="467" y="263" type="line"/>
			<point x="467" y="242" type="line"/>
			<point x="836" y="242" type="line"/>
			<point x="840" y="257"/>
			<point x="842" y="275"/>
			<point x="842" y="299" type="curve" smooth="yes"/>
			<point x="842" y="397"/>
			<point x="778" y="483"/>
			<point x="663" y="483" type="curve" smooth="yes"/>
			<point x="567" y="483"/>
			<point x="485" y="412"/>
			<point x="460" y="299" type="curve"/>
			<point x="476" y="299" type="line"/>
			<point x="454" y="426"/>
			<point x="358" y="483"/>
			<point x="269" y="483" type="curve" smooth="yes"/>
			<point x="162" y="483"/>
			<point x="52" y="403"/>
			<point x="52" y="233" type="curve" smooth="yes"/>
			<point x="52" y="63"/>
			<point x="162" y="-13"/>
		</contour>
		<contour>
			<point x="269" y="7" type="curve" smooth="yes"/>
			<point x="158" y="7"/>
			<point x="84" y="93"/>
			<point x="84" y="233" type="curve" smooth="yes"/>
			<point x="84" y="373"/>
			<point x="158" y="463"/>
			<point x="269" y="463" type="curve" smooth="yes"/>
			<point x="380" y="463"/>
			<point x="454" y="372"/>
			<point x="454" y="232" type="curve" smooth="yes"/>
			<point x="454" y="92"/>
			<point x="380" y="7"/>
		</contour>
	</outline>
	<anchor name="aboveLC" x="470" y="490"/>
</glyph>
<glyph name="Scaron" format="2">
	<unicode hex="0160"/>
	<advance width="515"/>
	<outline>
		<contour>
			<point x="161" y="865" type="line"/>
			<point x="150" y="854" type="line"/>
			<point x="261" y="740" type="line"/>
			<point x="281" y="740" type="line"/>
			<point x="392" y="854" type="line"/>
			<point x="381" y="865" type="line"/>
			<point x="262" y="764" type="line"/>
			<point x="280" y="764" type="line"/>
		</contour>
		<component base="S"/>
	</outline>
</glyph>
<glyph name="Tbar" format="2">
	<unicode hex="0166"/>
	<advance width="594"/>
	<outline>
		<contour>
			<point x="72" y="331" type="line"/>
			<point x="522" y="331" type="line"/>
			<point x="522" y="353" type="line"/>
			<point x="72" y="353" type="line"/>
		</contour>
		<component base="T"/>
	</outline>
</glyph>
<glyph name="tbar" format="2">
	<unicode hex="0167"/>
	<advance width="332"/>
	<outline>
		<contour>
			<point x="15" y="285" type="line"/>
			<point x="298" y="285" type="line"/>
			<point x="298" y="309" type="line"/>
			<point x="15" y="309" type="line"/>
		</contour>
		<component base="t"/>
	</outline>
</glyph>
<glyph name="uogonek" format="2">
	<unicode hex="0173"/>
	<advance width="604"/>
	<outline>
		<contour>
			<point x="483" y="-223" type="curve" smooth="yes"/>
			<point x="516" y="-223"/>
			<point x="538" y="-209"/>
			<point x="557" y="-189" type="curve"/>
			<point x="548" y="-178" type="line"/>
			<point x="527" y="-192"/>
			<point x="512" y="-199"/>
			<point x="492" y="-199" type="curve" smooth="yes"/>
			<point x="459" y="-199"/>
			<point x="435" y="-176"/>
			<point x="435" y="-132" type="curve" smooth="yes"/>
			<point x="435" y="-88"/>
			<point x="461" y="-30"/>
			<point x="501" y="5" type="curve"/>
			<point x="482" y="5" type="line"/>
			<point x="482" y="4" type="line"/>
			<point x="444" y="-28"/>
			<point x="407" y="-84"/>
			<point x="407" y="-143" type="curve" smooth="yes"/>
			<point x="407" y="-195"/>
			<point x="441" y="-223"/>
		</contour>
		<component base="u"/>
	</outline>
	<anchor name="aboveLC" x="292" y="490"/>
</glyph>
<glyph name="Ydieresis" format="2">
	<unicode hex="0178"/>
	<advance width="635"/>
	<outline>
		<contour>
			<point x="225" y="756" type="curve" smooth="yes"/>
			<point x="242" y="756"/>
			<point x="257" y="768"/>
			<point x="257" y="788" type="curve" smooth="yes"/>
			<point x="257" y="808"/>
			<point x="242" y="820"/>
			<point x="225" y="820" type="curve" smooth="yes"/>
			<point x="209" y="820"/>
			<point x="193" y="808"/>
			<point x="193" y="788" type="curve" smooth="yes"/>
			<point x="193" y="768"/>
			<point x="209" y="756"/>
		</contour>
		<contour>
			<point x="431" y="756" type="curve" smooth="yes"/>
			<point x="447" y="756"/>
			<point x="463" y="768"/>
			<point x="463" y="788" type="curve" smooth="yes"/>
			<point x="463" y="808"/>
			<point x="447" y="820"/>
			<point x="431" y="820" type="curve" smooth="yes"/>
			<point x="414" y="820"/>
			<point x="399" y="808"/>
			<point x="399" y="788" type="curve" smooth="yes"/>
			<point x="399" y="768"/>
			<point x="414" y="756"/>
		</contour>
		<component base="Y"/>
	</outline>
</glyph>
<glyph name="Zcaron" format="2">
	<unicode hex="017D"/>
	<advance width="555"/>
	<outline>
		<contour>
			<point x="162" y="865" type="line"/>
			<point x="151" y="854" type="line"/>
			<point x="262" y="740" type="line"/>
			<point x="282" y="740" type="line"/>
			<point x="393" y="854" type="line"/>
			<point x="382" y="865" type="line"/>
			<point x="263" y="764" type="line"/>
			<point x="281" y="764" type="line"/>
		</contour>
		<component base="Z"/>
	</outline>
</glyph>
<glyph name="zcaron" format="2">
	<unicode hex="017E"/>
	<advance width="457"/>
	<outline>
		<contour>
			<point x="122" y="716" type="line"/>
			<point x="112" y="706" type="line"/>
			<point x="230" y="570" type="line"/>
			<point x="250" y="570" type="line"/>
			<point x="368" y="706" type="line"/>
			<point x="358" y="716" type="line"/>
			<point x="231" y="599" type="line"/>
			<point x="249" y="599" type="line"/>
		</contour>
		<component base="z"/>
	</outline>
</glyph>
<glyph name="florin" format="2">
	<unicode hex="0192"/>
	<advance width="490"/>
	<outline>
		<contour>
			<point x="65" y="-100" type="curve" smooth="yes"/>
			<point x="98" y="-100"/>
			<point x="131" y="-89"/>
			<point x="167" y="-53" type="curve" smooth="yes"/>
			<point x="216" y="-4"/>
			<point x="237" y="83"/>
			<point x="249" y="224" type="curve" smooth="yes"/>
			<point x="261" y="369" type="line" smooth="yes"/>
			<point x="271" y="495"/>
			<point x="285" y="547"/>
			<point x="323" y="599" type="curve" smooth="yes"/>
			<point x="342" y="625"/>
			<point x="375" y="646"/>
			<point x="418" y="649" type="curve"/>
			<point x="428" y="649" type="line"/>
			<point x="379" y="656" type="line"/>
			<point x="410" y="640" type="line" smooth="yes"/>
			<point x="441" y="624"/>
			<point x="464" y="612"/>
			<point x="482" y="612" type="curve" smooth="yes"/>
			<point x="497" y="612"/>
			<point x="503" y="624"/>
			<point x="503" y="635" type="curve"/>
			<point x="479" y="653"/>
			<point x="450" y="667"/>
			<point x="414" y="667" type="curve" smooth="yes"/>
			<point x="381" y="667"/>
			<point x="347" y="655"/>
			<point x="317" y="625" type="curve" smooth="yes"/>
			<point x="261" y="569"/>
			<point x="242" y="494"/>
			<point x="232" y="370" type="curve" smooth="yes"/>
			<point x="220" y="217" type="line" smooth="yes"/>
			<point x="209" y="75"/>
			<point x="192" y="20"/>
			<point x="156" y="-32" type="curve" smooth="yes"/>
			<point x="138" y="-58"/>
			<point x="104" y="-79"/>
			<point x="61" y="-82" type="curve"/>
			<point x="47" y="-82" type="line"/>
			<point x="97" y="-94" type="line"/>
			<point x="66" y="-76" type="line" smooth="yes"/>
			<point x="36" y="-58"/>
			<point x="14" y="-45"/>
			<point x="-3" y="-45" type="curve" smooth="yes"/>
			<point x="-18" y="-45"/>
			<point x="-24" y="-57"/>
			<point x="-24" y="-68" type="curve"/>
			<point x="0" y="-86"/>
			<point x="29" y="-100"/>
		</contour>
		<contour>
			<point x="101" y="362" type="line"/>
			<point x="408" y="362" type="line"/>
			<point x="408" y="386" type="line"/>
			<point x="101" y="386" type="line"/>
		</contour>
	</outline>
</glyph>
<glyph name="Uhorn" format="2">
	<unicode hex="01AF"/>
	<advance width="737"/>
	<outline>
		<contour>
			<point x="370" y="-13" type="curve" smooth="yes"/>
			<point x="528" y="-13"/>
			<point x="599" y="82"/>
			<point x="599" y="248" type="curve" smooth="yes"/>
			<point x="599" y="676" type="line"/>
			<point x="575" y="676" type="line"/>
			<point x="575" y="274" type="line" smooth="yes"/>
			<point x="575" y="87"/>
			<point x="515" y="13"/>
			<point x="370" y="13" type="curve" smooth="yes"/>
			<point x="254" y="13"/>
			<point x="178" y="80"/>
			<point x="178" y="256" type="curve" smooth="yes"/>
			<point x="178" y="361" type="line" smooth="yes"/>
			<point x="178" y="469"/>
			<point x="178" y="572"/>
			<point x="180" y="676" type="curve"/>
			<point x="146" y="676" type="line"/>
			<point x="148" y="572"/>
			<point x="148" y="467"/>
			<point x="148" y="361" type="curve" smooth="yes"/>
			<point x="148" y="249" type="line" smooth="yes"/>
			<point x="148" y="61"/>
			<point x="234" y="-13"/>
		</contour>
		<contour>
			<point x="590" y="649" type="line"/>
			<point x="688" y="655"/>
			<point x="725" y="687"/>
			<point x="725" y="739" type="curve" smooth="yes"/>
			<point x="725" y="770"/>
			<point x="716" y="791"/>
			<point x="709" y="802" type="curve"/>
			<point x="707" y="803"/>
			<point x="703" y="804"/>
			<point x="698" y="804" type="curve" smooth="yes"/>
			<point x="687" y="804"/>
			<point x="678" y="797"/>
			<point x="678" y="786" type="curve" smooth="yes"/>
			<point x="678" y="771"/>
			<point x="695" y="757"/>
			<point x="695" y="719" type="curve" smooth="yes"/>
			<point x="695" y="695"/>
			<point x="669" y="676"/>
			<point x="590" y="676" type="curve"/>
		</contour>
		<contour>
			<point x="50" y="656" type="line"/>
			<point x="157" y="649" type="line"/>
			<point x="171" y="649" type="line"/>
			<point x="288" y="656" type="line"/>
			<point x="288" y="676" type="line"/>
			<point x="50" y="676" type="line"/>
		</contour>
		<contour>
			<point x="453" y="656" type="line"/>
			<point x="580" y="649" type="line"/>
			<point x="584" y="649" type="line"/>
			<point x="584" y="676" type="line"/>
			<point x="453" y="676" type="line"/>
		</contour>
	</outline>
	<anchor name="aboveUC" x="380" y="696"/>
	<anchor name="belowLC" x="376" y="-20"/>
</glyph>
<glyph name="alphalatin" format="2">
	<unicode hex="0251"/>
	<advance width="547"/>
	<outline>
		<contour>
			<point x="249" y="-13" type="curve" smooth="yes"/>
			<point x="313" y="-13"/>
			<point x="376" y="12"/>
			<point x="426" y="87" type="curve"/>
			<point x="428" y="87" type="line"/>
			<point x="417" y="102" type="line"/>
			<point x="366" y="36"/>
			<point x="316" y="12"/>
			<point x="252" y="12" type="curve" smooth="yes"/>
			<point x="158" y="12"/>
			<point x="84" y="85"/>
			<point x="84" y="227" type="curve" smooth="yes"/>
			<point x="84" y="385"/>
			<point x="164" y="458"/>
			<point x="264" y="458" type="curve" smooth="yes"/>
			<point x="325" y="458"/>
			<point x="371" y="430"/>
			<point x="417" y="374" type="curve"/>
			<point x="427" y="387" type="line"/>
			<point x="425" y="387" type="line"/>
			<point x="378" y="455"/>
			<point x="317" y="483"/>
			<point x="264" y="483" type="curve" smooth="yes"/>
			<point x="144" y="483"/>
			<point x="52" y="387"/>
			<point x="52" y="227" type="curve" smooth="yes"/>
			<point x="52" y="78"/>
			<point x="132" y="-13"/>
		</contour>
		<contour>
			<point x="412" y="89" type="line"/>
			<point x="415" y="78" type="line"/>
			<point x="420" y="17"/>
			<point x="445" y="-13"/>
			<point x="488" y="-13" type="curve" smooth="yes"/>
			<point x="507" y="-13"/>
			<point x="526" y="-1"/>
			<point x="543" y="14" type="curve"/>
			<point x="534" y="27" type="line"/>
			<point x="518" y="15"/>
			<point x="505" y="11"/>
			<point x="490" y="11" type="curve" smooth="yes"/>
			<point x="458" y="11"/>
			<point x="440" y="32"/>
			<point x="440" y="109" type="curve" smooth="yes"/>
			<point x="440" y="335" type="line"/>
			<point x="443" y="470" type="line"/>
			<point x="424" y="473" type="line"/>
			<point x="412" y="400" type="line"/>
			<point x="412" y="398" type="line"/>
		</contour>
	</outline>
	<anchor name="aboveLC" x="271" y="490"/>
	<anchor name="belowLC" x="278" y="-20"/>
</glyph>
<glyph name="gscript" format="2">
	<unicode hex="0261"/>
	<advance width="540"/>
	<outline>
		<contour>
			<point x="244" y="-255" type="curve" smooth="yes"/>
			<point x="302" y="-255"/>
			<point x="348" y="-241"/>
			<point x="385" y="-204" type="curve" smooth="yes"/>
			<point x="438" y="-151"/>
			<point x="444" y="-90"/>
			<point x="440" y="71" type="curve" smooth="yes"/>
			<point x="440" y="335" type="line"/>
			<point x="443" y="470" type="line"/>
			<point x="424" y="473" type="line"/>
			<point x="413" y="400" type="line"/>
			<point x="412" y="400" type="line"/>
			<point x="412" y="100" type="line"/>
			<point x="414" y="93" type="line"/>
			<point x="416" y="59"/>
			<point x="416" y="30"/>
			<point x="416" y="4" type="curve" smooth="yes"/>
			<point x="416" y="-116"/>
			<point x="399" y="-157"/>
			<point x="365" y="-191" type="curve" smooth="yes"/>
			<point x="337" y="-219"/>
			<point x="288" y="-235"/>
			<point x="244" y="-235" type="curve" smooth="yes"/>
			<point x="185" y="-235"/>
			<point x="149" y="-220"/>
			<point x="113" y="-195" type="curve"/>
			<point x="141" y="-228" type="line"/>
			<point x="105" y="-142" type="line" smooth="yes"/>
			<point x="100" y="-131"/>
			<point x="93" y="-126"/>
			<point x="84" y="-126" type="curve" smooth="yes"/>
			<point x="72" y="-126"/>
			<point x="64" y="-134"/>
			<point x="64" y="-145" type="curve"/>
			<point x="91" y="-217"/>
			<point x="154" y="-255"/>
		</contour>
		<contour>
			<point x="249" y="-3" type="curve" smooth="yes"/>
			<point x="313" y="-3"/>
			<point x="376" y="22"/>
			<point x="426" y="97" type="curve"/>
			<point x="428" y="97" type="line"/>
			<point x="417" y="112" type="line"/>
			<point x="366" y="46"/>
			<point x="316" y="22"/>
			<point x="252" y="22" type="curve" smooth="yes"/>
			<point x="158" y="22"/>
			<point x="84" y="94"/>
			<point x="84" y="232" type="curve" smooth="yes"/>
			<point x="84" y="387"/>
			<point x="164" y="458"/>
			<point x="264" y="458" type="curve" smooth="yes"/>
			<point x="325" y="458"/>
			<point x="371" y="430"/>
			<point x="417" y="374" type="curve"/>
			<point x="427" y="387" type="line"/>
			<point x="425" y="387" type="line"/>
			<point x="378" y="455"/>
			<point x="317" y="483"/>
			<point x="264" y="483" type="curve" smooth="yes"/>
			<point x="144" y="483"/>
			<point x="52" y="389"/>
			<point x="52" y="232" type="curve" smooth="yes"/>
			<point x="52" y="86"/>
			<point x="132" y="-3"/>
		</contour>
	</outline>
	<anchor name="aboveLC" x="269" y="490"/>
	<anchor name="belowLC" x="247" y="-265"/>
</glyph>
<glyph name="r.sups" format="2">
	<unicode hex="02B3"/>
	<advance width="264"/>
	<outline>
		<contour>
			<point x="218" y="740" type="curve"/>
			<point x="182" y="739" type="line"/>
			<point x="200" y="730" type="line" smooth="yes"/>
			<point x="214" y="723"/>
			<point x="224" y="719"/>
			<point x="235" y="719" type="curve" smooth="yes"/>
			<point x="248" y="719"/>
			<point x="257" y="726"/>
			<point x="258" y="737" type="curve"/>
			<point x="254" y="750"/>
			<point x="237" y="758"/>
			<point x="221" y="758" type="curve" smooth="yes"/>
			<point x="174" y="758"/>
			<point x="130" y="720"/>
			<point x="110" y="659" type="curve"/>
			<point x="120" y="666" type="line"/>
			<point x="100" y="666" type="line"/>
			<point x="100" y="633" type="line"/>
			<point x="112" y="633" type="line"/>
			<point x="136" y="695"/>
			<point x="168" y="730"/>
		</contour>
		<contour>
			<point x="104" y="460" type="line"/>
			<point x="96" y="460" type="line"/>
			<point x="29" y="453" type="line"/>
			<point x="29" y="437" type="line"/>
			<point x="175" y="437" type="line"/>
			<point x="175" y="453" type="line"/>
		</contour>
		<contour>
			<point x="113" y="437" type="line"/>
			<point x="113" y="662" type="line"/>
			<point x="110" y="748" type="line"/>
			<point x="103" y="753" type="line"/>
			<point x="26" y="736" type="line"/>
			<point x="26" y="720" type="line"/>
			<point x="87" y="718" type="line"/>
			<point x="87" y="437" type="line"/>
		</contour>
	</outline>
</glyph>
<glyph name="w.sups" format="2">
	<unicode hex="02B7"/>
	<advance width="504"/>
	<outline>
		<contour>
			<point x="454" y="723" type="line"/>
			<point x="500" y="729" type="line"/>
			<point x="500" y="746" type="line"/>
			<point x="379" y="746" type="line"/>
			<point x="379" y="729" type="line"/>
			<point x="446" y="723" type="line"/>
		</contour>
		<contour>
			<point x="61" y="723" type="line"/>
			<point x="130" y="729" type="line"/>
			<point x="130" y="746" type="line"/>
			<point x="-3" y="746" type="line"/>
			<point x="-3" y="729" type="line"/>
			<point x="53" y="723" type="line"/>
		</contour>
		<contour>
			<point x="254" y="723" type="line"/>
			<point x="262" y="723" type="line"/>
			<point x="321" y="729" type="line"/>
			<point x="321" y="746" type="line"/>
			<point x="195" y="746" type="line"/>
			<point x="195" y="729" type="line"/>
		</contour>
		<contour>
			<point x="255" y="706" type="line"/>
			<point x="249" y="705" type="line"/>
			<point x="347" y="430" type="line"/>
			<point x="360" y="430" type="line"/>
			<point x="465" y="746" type="line"/>
			<point x="444" y="746" type="line"/>
			<point x="353" y="463" type="line"/>
			<point x="362" y="460" type="line"/>
			<point x="263" y="746" type="line"/>
			<point x="252" y="746" type="line"/>
			<point x="147" y="460" type="line"/>
			<point x="157" y="458" type="line"/>
			<point x="65" y="746" type="line"/>
			<point x="36" y="746" type="line"/>
			<point x="141" y="430" type="line"/>
			<point x="155" y="430" type="line"/>
		</contour>
	</outline>
</glyph>
<glyph name="y.sups" format="2">
	<unicode hex="02B8"/>
	<advance width="332"/>
	<outline>
		<contour>
			<point x="281" y="723" type="line"/>
			<point x="334" y="729" type="line"/>
			<point x="334" y="746" type="line"/>
			<point x="211" y="746" type="line"/>
			<point x="211" y="729" type="line"/>
			<point x="273" y="723" type="line"/>
		</contour>
		<contour>
			<point x="65" y="723" type="line"/>
			<point x="134" y="729" type="line"/>
			<point x="134" y="746" type="line"/>
			<point x="-5" y="746" type="line"/>
			<point x="-5" y="729" type="line"/>
			<point x="57" y="723" type="line"/>
		</contour>
		<contour>
			<point x="178" y="451" type="line"/>
			<point x="65" y="746" type="line"/>
			<point x="36" y="746" type="line"/>
			<point x="165" y="416" type="line"/>
		</contour>
		<contour>
			<point x="44" y="284" type="curve"/>
			<point x="57" y="277" type="line"/>
			<point x="73" y="282" type="line"/>
			<point x="57" y="296" type="line" smooth="yes"/>
			<point x="43" y="307"/>
			<point x="31" y="314"/>
			<point x="19" y="314" type="curve" smooth="yes"/>
			<point x="7" y="314"/>
			<point x="-4" y="308"/>
			<point x="-7" y="296" type="curve"/>
			<point x="-2" y="281"/>
			<point x="20" y="270"/>
			<point x="46" y="270" type="curve" smooth="yes"/>
			<point x="91" y="270"/>
			<point x="131" y="313"/>
			<point x="165" y="403" type="curve" smooth="yes"/>
			<point x="295" y="746" type="line"/>
			<point x="274" y="746" type="line"/>
			<point x="160" y="437" type="line" smooth="yes"/>
			<point x="119" y="325"/>
			<point x="94" y="296"/>
		</contour>
	</outline>
</glyph>
<glyph name="circumflex" format="2">
	<unicode hex="02C6"/>
	<advance width="260"/>
	<outline>
		<contour>
			<point x="239" y="553" type="line"/>
			<point x="250" y="562" type="line"/>
			<point x="137" y="719" type="line"/>
			<point x="123" y="719" type="line"/>
			<point x="10" y="562" type="line"/>
			<point x="21" y="553" type="line"/>
			<point x="137" y="688" type="line"/>
			<point x="123" y="688" type="line"/>
		</contour>
	</outline>
</glyph>
<glyph name="verticallinemod" format="2">
	<unicode hex="02C8"/>
	<advance width="150"/>
	<outline>
		<contour>
			<point x="65" y="560" type="line"/>
			<point x="85" y="560" type="line"/>
			<point x="91" y="748" type="line"/>
			<point x="59" y="748" type="line"/>
		</contour>
	</outline>
</glyph>
<glyph name="tilde" format="2">
	<unicode hex="02DC"/>
	<advance width="400"/>
	<outline>
		<contour>
			<point x="54" y="600" type="curve"/>
			<point x="69" y="595" type="line"/>
			<point x="81" y="643"/>
			<point x="101" y="669"/>
			<point x="134" y="669" type="curve" smooth="yes"/>
			<point x="161" y="669"/>
			<point x="174" y="653"/>
			<point x="193" y="630" type="curve" smooth="yes"/>
			<point x="210" y="609"/>
			<point x="232" y="588"/>
			<point x="267" y="588" type="curve" smooth="yes"/>
			<point x="312" y="588"/>
			<point x="342" y="626"/>
			<point x="350" y="679" type="curve"/>
			<point x="335" y="684" type="line"/>
			<point x="323" y="636"/>
			<point x="303" y="611"/>
			<point x="270" y="611" type="curve" smooth="yes"/>
			<point x="244" y="611"/>
			<point x="230" y="623"/>
			<point x="212" y="648" type="curve" smooth="yes"/>
			<point x="195" y="671"/>
			<point x="170" y="692"/>
			<point x="137" y="692" type="curve" smooth="yes"/>
			<point x="92" y="692"/>
			<point x="62" y="654"/>
		</contour>
	</outline>
</glyph>
<glyph name="s.sups" format="2">
	<unicode hex="02E2"/>
	<advance width="282"/>
	<outline>
		<contour>
			<point x="133" y="427" type="curve" smooth="yes"/>
			<point x="211" y="427"/>
			<point x="248" y="469"/>
			<point x="248" y="515" type="curve" smooth="yes"/>
			<point x="248" y="555"/>
			<point x="226" y="581"/>
			<point x="166" y="603" type="curve" smooth="yes"/>
			<point x="135" y="614" type="line" smooth="yes"/>
			<point x="91" y="631"/>
			<point x="70" y="647"/>
			<point x="70" y="679" type="curve" smooth="yes"/>
			<point x="70" y="714"/>
			<point x="94" y="740"/>
			<point x="146" y="740" type="curve" smooth="yes"/>
			<point x="171" y="740"/>
			<point x="196" y="733"/>
			<point x="222" y="714" type="curve"/>
			<point x="209" y="735" type="line"/>
			<point x="217" y="670" type="line"/>
			<point x="235" y="670" type="line"/>
			<point x="236" y="731" type="line"/>
			<point x="206" y="749"/>
			<point x="183" y="758"/>
			<point x="148" y="758" type="curve" smooth="yes"/>
			<point x="82" y="758"/>
			<point x="44" y="722"/>
			<point x="44" y="673" type="curve" smooth="yes"/>
			<point x="44" y="630"/>
			<point x="75" y="605"/>
			<point x="122" y="588" type="curve" smooth="yes"/>
			<point x="153" y="577" type="line" smooth="yes"/>
			<point x="206" y="558"/>
			<point x="222" y="541"/>
			<point x="222" y="510" type="curve" smooth="yes"/>
			<point x="222" y="473"/>
			<point x="193" y="445"/>
			<point x="134" y="445" type="curve" smooth="yes"/>
			<point x="94" y="445"/>
			<point x="71" y="454"/>
			<point x="48" y="468" type="curve"/>
			<point x="65" y="446" type="line"/>
			<point x="53" y="517" type="line"/>
			<point x="35" y="517" type="line"/>
			<point x="37" y="449" type="line"/>
			<point x="69" y="435"/>
			<point x="96" y="427"/>
		</contour>
	</outline>
</glyph>
<glyph name="x.sups" format="2">
	<unicode hex="02E3"/>
	<advance width="331"/>
	<outline>
		<contour>
			<point x="7" y="430" type="line"/>
			<point x="123" y="430" type="line"/>
			<point x="123" y="446" type="line"/>
			<point x="68" y="452" type="line"/>
			<point x="60" y="452" type="line"/>
			<point x="7" y="446" type="line"/>
		</contour>
		<contour>
			<point x="11" y="722" type="line"/>
			<point x="68" y="716" type="line"/>
			<point x="75" y="716" type="line"/>
			<point x="135" y="722" type="line"/>
			<point x="135" y="739" type="line"/>
			<point x="11" y="739" type="line"/>
		</contour>
		<contour>
			<point x="262" y="430" type="line"/>
			<point x="293" y="430" type="line"/>
			<point x="174" y="596" type="line"/>
			<point x="71" y="739" type="line"/>
			<point x="42" y="739" type="line"/>
			<point x="157" y="578" type="line"/>
		</contour>
		<contour>
			<point x="195" y="430" type="line"/>
			<point x="324" y="430" type="line"/>
			<point x="324" y="446" type="line"/>
			<point x="267" y="453" type="line"/>
			<point x="260" y="453" type="line"/>
			<point x="195" y="446" type="line"/>
		</contour>
		<contour>
			<point x="202" y="722" type="line"/>
			<point x="261" y="716" type="line"/>
			<point x="268" y="716" type="line"/>
			<point x="318" y="722" type="line"/>
			<point x="318" y="739" type="line"/>
			<point x="202" y="739" type="line"/>
		</contour>
		<contour>
			<point x="37" y="430" type="line"/>
			<point x="60" y="430" type="line"/>
			<point x="167" y="576" type="line"/>
			<point x="171" y="576" type="line"/>
			<point x="159" y="592" type="line"/>
		</contour>
		<contour>
			<point x="171" y="578" type="line"/>
			<point x="291" y="739" type="line"/>
			<point x="268" y="739" type="line"/>
			<point x="164" y="596" type="line"/>
			<point x="159" y="596" type="line"/>
		</contour>
	</outline>
</glyph>
<glyph name="acutecmb" format="2">
	<unicode hex="0301"/>
	<outline>
		<contour>
			<point x="-45" y="572" type="curve"/>
			<point x="-34" y="563" type="line"/>
			<point x="8" y="606"/>
			<point x="49" y="650"/>
			<point x="78" y="681" type="curve" smooth="yes"/>
			<point x="98" y="702"/>
			<point x="107" y="711"/>
			<point x="107" y="721" type="curve" smooth="yes"/>
			<point x="107" y="732"/>
			<point x="99" y="738"/>
			<point x="90" y="738" type="curve" smooth="yes"/>
			<point x="80" y="738"/>
			<point x="74" y="730"/>
			<point x="57" y="707" type="curve" smooth="yes"/>
			<point x="29" y="671"/>
			<point x="-8" y="621"/>
		</contour>
	</outline>
	<anchor name="_aboveLC" x="0" y="490"/>
	<anchor name="aboveLC" x="0" y="738"/>
</glyph>
<glyph name="dotaccentcmb" format="2">
	<unicode hex="0307"/>
	<outline>
		<contour>
			<point x="0" y="625" type="curve" smooth="yes"/>
			<point x="16" y="625"/>
			<point x="32" y="638"/>
			<point x="32" y="657" type="curve" smooth="yes"/>
			<point x="32" y="676"/>
			<point x="16" y="689"/>
			<point x="0" y="689" type="curve" smooth="yes"/>
			<point x="-16" y="689"/>
			<point x="-32" y="676"/>
			<point x="-32" y="657" type="curve" smooth="yes"/>
			<point x="-32" y="638"/>
			<point x="-16" y="625"/>
		</contour>
	</outline>
	<anchor name="_aboveLC" x="0" y="490"/>
	<anchor name="aboveLC" x="0" y="689"/>
</glyph>
<glyph name="hoicmb" format="2">
	<unicode hex="0309"/>
	<outline>
		<contour>
			<point x="-18" y="557" type="line"/>
			<point x="39" y="564"/>
			<point x="73" y="596"/>
			<point x="73" y="637" type="curve" smooth="yes"/>
			<point x="73" y="686"/>
			<point x="46" y="718"/>
			<point x="-34" y="729" type="curve"/>
			<point x="-38" y="704" type="line"/>
			<point x="32" y="692"/>
			<point x="46" y="671"/>
			<point x="46" y="634" type="curve" smooth="yes"/>
			<point x="46" y="603"/>
			<point x="26" y="583"/>
			<point x="-22" y="572" type="curve"/>
		</contour>
	</outline>
	<anchor name="_aboveLC" x="0" y="490"/>
	<anchor name="aboveLC" x="0" y="729"/>
</glyph>
<glyph name="commabelowcmb" format="2">
	<unicode hex="0326"/>
	<outline>
		<contour>
			<point x="34" y="-117" type="curve" smooth="yes"/>
			<point x="34" y="-99"/>
			<point x="31" y="-93"/>
			<point x="26" y="-84" type="curve"/>
			<point x="19" y="-79"/>
			<point x="13" y="-75"/>
			<point x="2" y="-75" type="curve" smooth="yes"/>
			<point x="-17" y="-75"/>
			<point x="-27" y="-88"/>
			<point x="-27" y="-103" type="curve" smooth="yes"/>
			<point x="-27" y="-119"/>
			<point x="-16" y="-133"/>
			<point x="17" y="-145" type="curve"/>
			<point x="13" y="-127" type="line"/>
			<point x="4" y="-173"/>
			<point x="-14" y="-199"/>
			<point x="-52" y="-219" type="curve"/>
			<point x="-43" y="-239" type="line"/>
			<point x="15" y="-211"/>
			<point x="34" y="-154"/>
		</contour>
	</outline>
	<anchor name="_belowLC" x="0" y="-20"/>
	<anchor name="belowLC" x="0" y="-239"/>
</glyph>
<glyph name="cedillacmb" format="2">
	<unicode hex="0327"/>
	<outline>
		<contour>
			<point x="-21" y="-77" type="line"/>
			<point x="45" y="-77"/>
			<point x="68" y="-102"/>
			<point x="68" y="-138" type="curve" smooth="yes"/>
			<point x="68" y="-172"/>
			<point x="47" y="-195"/>
			<point x="1" y="-195" type="curve" smooth="yes"/>
			<point x="-15" y="-195"/>
			<point x="-33" y="-192"/>
			<point x="-53" y="-188" type="curve"/>
			<point x="-57" y="-203" type="line"/>
			<point x="-36" y="-210"/>
			<point x="-17" y="-214"/>
			<point x="5" y="-214" type="curve" smooth="yes"/>
			<point x="65" y="-214"/>
			<point x="98" y="-182"/>
			<point x="98" y="-137" type="curve" smooth="yes"/>
			<point x="98" y="-93"/>
			<point x="59" y="-60"/>
			<point x="-6" y="-59" type="curve"/>
			<point x="2" y="-74" type="line"/>
			<point x="12" y="0" type="line"/>
			<point x="-8" y="0" type="line"/>
		</contour>
	</outline>
	<anchor name="_baseLC" x="0" y="0"/>
</glyph>
<glyph name="ogonekcmb" format="2">
	<unicode hex="0328"/>
	<outline>
		<contour>
			<point x="-5" y="-223" type="curve" smooth="yes"/>
			<point x="28.4761904762" y="-223"/>
			<point x="50.0950076867" y="-208.8502419289"/>
			<point x="69" y="-189" type="curve"/>
			<point x="60" y="-178" type="line"/>
			<point x="39.2838730979" y="-192.4112187145"/>
			<point x="24.3636363636" y="-199"/>
			<point x="4" y="-199" type="curve" smooth="yes"/>
			<point x="-29.1791044776" y="-199"/>
			<point x="-53" y="-176.3766233766"/>
			<point x="-53" y="-132" type="curve" smooth="yes"/>
			<point x="-53" y="-87.7716535433"/>
			<point x="-27.3547594296" y="-30.1810723232"/>
			<point x="13" y="5" type="curve"/>
			<point x="-6" y="5" type="line"/>
			<point x="-6" y="4" type="line"/>
			<point x="-44.1370871864" y="-27.9526946697"/>
			<point x="-81" y="-83.9854014599"/>
			<point x="-81" y="-143" type="curve" smooth="yes"/>
			<point x="-81" y="-195.4444444444"/>
			<point x="-46.5348837209" y="-223"/>
		</contour>
	</outline>
	<anchor name="_ogonek" x="0" y="0"/>
</glyph>
<glyph name="verticallinebelowcmb" format="2">
	<unicode hex="0329"/>
	<outline>
		<contour>
			<point x="-16" y="-254" type="line"/>
			<point x="16" y="-254" type="line"/>
			<point x="10" y="-66" type="line"/>
			<point x="-10" y="-66" type="line"/>
		</contour>
	</outline>
	<anchor name="_belowLC" x="0" y="-20"/>
	<anchor name="belowLC" x="0" y="-254"/>
</glyph>
<glyph name="Delta" format="2">
	<unicode hex="0394"/>
	<unicode hex="2206"/>
	<advance width="658"/>
	<outline>
		<contour>
			<point x="54" y="0" type="line"/>
			<point x="75" y="0" type="line"/>
			<point x="321" y="651" type="line"/>
			<point x="324" y="658" type="line"/>
			<point x="312" y="658" type="line"/>
			<point x="569" y="0" type="line"/>
			<point x="592" y="0" type="line"/>
			<point x="592" y="20" type="line"/>
			<point x="330" y="684" type="line"/>
			<point x="310" y="684" type="line"/>
			<point x="54" y="20" type="line"/>
		</contour>
		<contour>
			<point x="67" y="0" type="line"/>
			<point x="581" y="0" type="line"/>
			<point x="581" y="28" type="line"/>
			<point x="67" y="28" type="line"/>
		</contour>
	</outline>
</glyph>
<glyph name="Theta" format="2">
	<unicode hex="0398"/>
	<advance width="706"/>
	<outline>
		<contour>
			<point x="199" y="237" type="line"/>
			<point x="218" y="237" type="line"/>
			<point x="228" y="325" type="line"/>
			<point x="228" y="345" type="line"/>
			<point x="218" y="433" type="line"/>
			<point x="199" y="433" type="line"/>
		</contour>
		<contour>
			<point x="488" y="237" type="line"/>
			<point x="507" y="237" type="line"/>
			<point x="507" y="433" type="line"/>
			<point x="488" y="433" type="line"/>
			<point x="478" y="345" type="line"/>
			<point x="478" y="325" type="line"/>
		</contour>
		<contour>
			<point x="354" y="-13" type="curve" smooth="yes"/>
			<point x="529" y="-13"/>
			<point x="644" y="126"/>
			<point x="644" y="338" type="curve" smooth="yes"/>
			<point x="644" y="551"/>
			<point x="529" y="689"/>
			<point x="354" y="689" type="curve" smooth="yes"/>
			<point x="179" y="689"/>
			<point x="64" y="551"/>
			<point x="64" y="338" type="curve" smooth="yes"/>
			<point x="64" y="126"/>
			<point x="179" y="-13"/>
		</contour>
		<contour>
			<point x="354" y="9" type="curve" smooth="yes"/>
			<point x="184" y="9"/>
			<point x="96" y="158"/>
			<point x="96" y="338" type="curve" smooth="yes"/>
			<point x="96" y="519"/>
			<point x="184" y="667"/>
			<point x="354" y="667" type="curve" smooth="yes"/>
			<point x="524" y="667"/>
			<point x="612" y="519"/>
			<point x="612" y="338" type="curve" smooth="yes"/>
			<point x="612" y="158"/>
			<point x="524" y="9"/>
		</contour>
		<contour>
			<point x="219" y="322" type="line"/>
			<point x="487" y="322" type="line"/>
			<point x="487" y="348" type="line"/>
			<point x="219" y="348" type="line"/>
		</contour>
	</outline>
</glyph>
<glyph name="Lambda" format="2">
	<unicode hex="039B"/>
	<advance width="652"/>
	<outline>
		<contour>
			<point x="535" y="27" type="line"/>
			<point x="412" y="20" type="line"/>
			<point x="412" y="0" type="line"/>
			<point x="650" y="0" type="line"/>
			<point x="650" y="20" type="line"/>
			<point x="545" y="27" type="line"/>
		</contour>
		<contour>
			<point x="108" y="27" type="line"/>
			<point x="12" y="20" type="line"/>
			<point x="12" y="0" type="line"/>
			<point x="240" y="0" type="line"/>
			<point x="240" y="20" type="line"/>
			<point x="122" y="27" type="line"/>
		</contour>
		<contour>
			<point x="314" y="684" type="line"/>
			<point x="93" y="0" type="line"/>
			<point x="123" y="0" type="line"/>
			<point x="327" y="660" type="line"/>
			<point x="315" y="660" type="line"/>
			<point x="532" y="0" type="line"/>
			<point x="564" y="0" type="line"/>
			<point x="334" y="684" type="line"/>
		</contour>
	</outline>
</glyph>
<glyph name="Pi" format="2">
	<unicode hex="03A0"/>
	<advance width="775"/>
	<outline>
		<contour>
			<point x="165" y="0" type="curve"/>
			<point x="199" y="0" type="line"/>
			<point x="197" y="102"/>
			<point x="197" y="196"/>
			<point x="197" y="321" type="curve" smooth="yes"/>
			<point x="197" y="367" type="line" smooth="yes"/>
			<point x="197" y="471"/>
			<point x="197" y="574"/>
			<point x="199" y="676" type="curve"/>
			<point x="165" y="676" type="line"/>
			<point x="167" y="574"/>
			<point x="167" y="471"/>
			<point x="167" y="367" type="curve" smooth="yes"/>
			<point x="167" y="321" type="line" smooth="yes"/>
			<point x="167" y="196"/>
			<point x="167" y="102"/>
		</contour>
		<contour>
			<point x="575" y="0" type="curve"/>
			<point x="609" y="0" type="line"/>
			<point x="607" y="102"/>
			<point x="607" y="196"/>
			<point x="607" y="321" type="curve" smooth="yes"/>
			<point x="607" y="367" type="line" smooth="yes"/>
			<point x="607" y="471"/>
			<point x="607" y="574"/>
			<point x="609" y="676" type="curve"/>
			<point x="575" y="676" type="line"/>
			<point x="577" y="574"/>
			<point x="577" y="471"/>
			<point x="577" y="367" type="curve" smooth="yes"/>
			<point x="577" y="321" type="line" smooth="yes"/>
			<point x="577" y="196"/>
			<point x="577" y="102"/>
		</contour>
		<contour>
			<point x="58" y="0" type="line"/>
			<point x="306" y="0" type="line"/>
			<point x="306" y="20" type="line"/>
			<point x="189" y="27" type="line"/>
			<point x="175" y="27" type="line"/>
			<point x="58" y="20" type="line"/>
		</contour>
		<contour>
			<point x="469" y="0" type="line"/>
			<point x="717" y="0" type="line"/>
			<point x="717" y="20" type="line"/>
			<point x="600" y="27" type="line"/>
			<point x="586" y="27" type="line"/>
			<point x="469" y="20" type="line"/>
		</contour>
		<contour>
			<point x="58" y="656" type="line"/>
			<point x="175" y="649" type="line"/>
			<point x="182" y="649" type="line"/>
			<point x="182" y="676" type="line"/>
			<point x="58" y="676" type="line"/>
		</contour>
		<contour>
			<point x="593" y="649" type="line"/>
			<point x="600" y="649" type="line"/>
			<point x="717" y="656" type="line"/>
			<point x="717" y="676" type="line"/>
			<point x="593" y="676" type="line"/>
		</contour>
		<contour>
			<point x="182" y="654" type="line"/>
			<point x="593" y="654" type="line"/>
			<point x="593" y="676" type="line"/>
			<point x="182" y="676" type="line"/>
		</contour>
	</outline>
</glyph>
<glyph name="Sigma" format="2">
	<unicode hex="03A3"/>
	<advance width="555"/>
	<outline>
		<contour>
			<point x="483" y="514" type="line"/>
			<point x="505" y="514" type="line"/>
			<point x="497" y="677" type="line"/>
			<point x="55" y="677" type="line"/>
			<point x="55" y="655" type="line"/>
			<point x="477" y="655" type="line"/>
			<point x="461" y="677" type="line"/>
		</contour>
		<contour>
			<point x="515" y="0" type="line"/>
			<point x="525" y="169" type="line"/>
			<point x="503" y="169" type="line"/>
			<point x="479" y="6" type="line"/>
			<point x="495" y="28" type="line"/>
			<point x="53" y="28" type="line"/>
			<point x="58" y="19" type="line"/>
			<point x="308" y="341" type="line"/>
			<point x="68" y="677" type="line"/>
			<point x="49" y="677" type="line"/>
			<point x="49" y="657" type="line"/>
			<point x="284" y="330" type="line"/>
			<point x="284" y="347" type="line"/>
			<point x="30" y="20" type="line"/>
			<point x="30" y="0" type="line"/>
		</contour>
	</outline>
</glyph>
<glyph name="Phi" format="2">
	<unicode hex="03A6"/>
	<advance width="686"/>
	<outline>
		<contour>
			<point x="50" y="352" type="curve" smooth="yes"/>
			<point x="50" y="220"/>
			<point x="148" y="125"/>
			<point x="331" y="125" type="curve" smooth="yes"/>
			<point x="343" y="125" type="line"/>
			<point x="343" y="147" type="line"/>
			<point x="331" y="147" type="line" smooth="yes"/>
			<point x="174" y="147"/>
			<point x="79" y="222"/>
			<point x="79" y="352" type="curve" smooth="yes"/>
			<point x="79" y="488"/>
			<point x="173" y="561"/>
			<point x="331" y="561" type="curve" smooth="yes"/>
			<point x="343" y="561" type="line"/>
			<point x="343" y="583" type="line"/>
			<point x="331" y="583" type="line" smooth="yes"/>
			<point x="151" y="583"/>
			<point x="50" y="495"/>
		</contour>
		<contour>
			<point x="343" y="125" type="line"/>
			<point x="354" y="125" type="line" smooth="yes"/>
			<point x="537" y="125"/>
			<point x="636" y="220"/>
			<point x="636" y="352" type="curve" smooth="yes"/>
			<point x="636" y="495"/>
			<point x="534" y="583"/>
			<point x="354" y="583" type="curve" smooth="yes"/>
			<point x="343" y="583" type="line"/>
			<point x="343" y="561" type="line"/>
			<point x="354" y="561" type="line" smooth="yes"/>
			<point x="512" y="561"/>
			<point x="607" y="488"/>
			<point x="607" y="352" type="curve" smooth="yes"/>
			<point x="607" y="222"/>
			<point x="511" y="147"/>
			<point x="354" y="147" type="curve" smooth="yes"/>
			<point x="343" y="147" type="line"/>
		</contour>
		<contour>
			<point x="326" y="0" type="curve"/>
			<point x="360" y="0" type="line"/>
			<point x="358" y="102"/>
			<point x="358" y="206"/>
			<point x="358" y="310" type="curve" smooth="yes"/>
			<point x="358" y="367" type="line" smooth="yes"/>
			<point x="358" y="474"/>
			<point x="358" y="581"/>
			<point x="360" y="686" type="curve"/>
			<point x="326" y="686" type="line"/>
			<point x="328" y="581"/>
			<point x="328" y="474"/>
			<point x="328" y="367" type="curve" smooth="yes"/>
			<point x="328" y="310" type="line" smooth="yes"/>
			<point x="328" y="206"/>
			<point x="328" y="102"/>
		</contour>
		<contour>
			<point x="219" y="666" type="line"/>
			<point x="336" y="659" type="line"/>
			<point x="350" y="659" type="line"/>
			<point x="467" y="666" type="line"/>
			<point x="467" y="686" type="line"/>
			<point x="219" y="686" type="line"/>
		</contour>
		<contour>
			<point x="219" y="0" type="line"/>
			<point x="467" y="0" type="line"/>
			<point x="467" y="20" type="line"/>
			<point x="350" y="27" type="line"/>
			<point x="336" y="27" type="line"/>
			<point x="219" y="20" type="line"/>
		</contour>
	</outline>
</glyph>
<glyph name="Psi" format="2">
	<unicode hex="03A8"/>
	<advance width="716"/>
	<outline>
		<contour>
			<point x="358" y="255" type="curve" smooth="yes"/>
			<point x="529" y="255"/>
			<point x="594" y="316"/>
			<point x="615" y="489" type="curve" smooth="yes"/>
			<point x="626" y="581" type="line" smooth="yes"/>
			<point x="632" y="629"/>
			<point x="655" y="650"/>
			<point x="706" y="654" type="curve" smooth="yes"/>
			<point x="731" y="656" type="line"/>
			<point x="731" y="676" type="line"/>
			<point x="707" y="676" type="line" smooth="yes"/>
			<point x="639" y="676"/>
			<point x="606" y="647"/>
			<point x="597" y="578" type="curve" smooth="yes"/>
			<point x="586" y="490" type="line" smooth="yes"/>
			<point x="565" y="325"/>
			<point x="507" y="277"/>
			<point x="358" y="277" type="curve" smooth="yes"/>
			<point x="209" y="277"/>
			<point x="151" y="325"/>
			<point x="130" y="490" type="curve" smooth="yes"/>
			<point x="118" y="584" type="line" smooth="yes"/>
			<point x="110" y="644"/>
			<point x="82" y="676"/>
			<point x="9" y="676" type="curve" smooth="yes"/>
			<point x="-15" y="676" type="line"/>
			<point x="-15" y="656" type="line"/>
			<point x="10" y="654" type="line" smooth="yes"/>
			<point x="61" y="650"/>
			<point x="84" y="629"/>
			<point x="90" y="581" type="curve" smooth="yes"/>
			<point x="101" y="489" type="line" smooth="yes"/>
			<point x="122" y="316"/>
			<point x="187" y="255"/>
		</contour>
		<contour>
			<point x="341" y="0" type="curve"/>
			<point x="375" y="0" type="line"/>
			<point x="373" y="102"/>
			<point x="373" y="186"/>
			<point x="373" y="290" type="curve" smooth="yes"/>
			<point x="373" y="347" type="line" smooth="yes"/>
			<point x="373" y="451"/>
			<point x="373" y="574"/>
			<point x="375" y="676" type="curve"/>
			<point x="341" y="676" type="line"/>
			<point x="343" y="574"/>
			<point x="343" y="451"/>
			<point x="343" y="347" type="curve" smooth="yes"/>
			<point x="343" y="290" type="line" smooth="yes"/>
			<point x="343" y="186"/>
			<point x="343" y="102"/>
		</contour>
		<contour>
			<point x="234" y="0" type="line"/>
			<point x="482" y="0" type="line"/>
			<point x="482" y="20" type="line"/>
			<point x="365" y="27" type="line"/>
			<point x="351" y="27" type="line"/>
			<point x="234" y="20" type="line"/>
		</contour>
		<contour>
			<point x="244" y="656" type="line"/>
			<point x="351" y="649" type="line"/>
			<point x="365" y="649" type="line"/>
			<point x="472" y="656" type="line"/>
			<point x="472" y="676" type="line"/>
			<point x="244" y="676" type="line"/>
		</contour>
	</outline>
</glyph>
<glyph name="alpha" format="2">
	<unicode hex="03B1"/>
	<advance width="555"/>
	<outline>
		<contour>
			<point x="243" y="-13" type="curve" smooth="yes"/>
			<point x="301" y="-13"/>
			<point x="374" y="21"/>
			<point x="407" y="109" type="curve"/>
			<point x="403" y="109" type="line"/>
			<point x="402" y="21"/>
			<point x="423" y="-13"/>
			<point x="470" y="-13" type="curve" smooth="yes"/>
			<point x="495" y="-13"/>
			<point x="513" y="-1"/>
			<point x="527" y="17" type="curve"/>
			<point x="517" y="31" type="line"/>
			<point x="503" y="21"/>
			<point x="494" y="16"/>
			<point x="476" y="16" type="curve" smooth="yes"/>
			<point x="446" y="16"/>
			<point x="426" y="34"/>
			<point x="426" y="107" type="curve" smooth="yes"/>
			<point x="426" y="163"/>
			<point x="446" y="353"/>
			<point x="461" y="474" type="curve"/>
			<point x="454" y="478" type="line"/>
			<point x="435" y="469" type="line"/>
			<point x="423" y="358" type="line"/>
			<point x="410" y="190" type="line" smooth="yes"/>
			<point x="400" y="60"/>
			<point x="310" y="12"/>
			<point x="244" y="12" type="curve" smooth="yes"/>
			<point x="141" y="12"/>
			<point x="84" y="96"/>
			<point x="84" y="226" type="curve" smooth="yes"/>
			<point x="84" y="397"/>
			<point x="169" y="458"/>
			<point x="255" y="458" type="curve" smooth="yes"/>
			<point x="330" y="458"/>
			<point x="404" y="410"/>
			<point x="426" y="257" type="curve"/>
			<point x="440" y="304" type="line"/>
			<point x="438" y="304" type="line"/>
			<point x="408" y="433"/>
			<point x="341" y="483"/>
			<point x="254" y="483" type="curve" smooth="yes"/>
			<point x="158" y="483"/>
			<point x="52" y="408"/>
			<point x="52" y="228" type="curve" smooth="yes"/>
			<point x="52" y="77"/>
			<point x="132" y="-13"/>
		</contour>
	</outline>
	<anchor name="aboveLC" x="266" y="490"/>
	<anchor name="belowLC" x="256" y="-20"/>
</glyph>
<glyph name="gamma" format="2">
	<unicode hex="03B3"/>
	<advance width="479"/>
	<outline>
		<contour>
			<point x="215" y="-184" type="line"/>
			<point x="225" y="-190" type="line"/>
			<point x="248" y="-182" type="line"/>
			<point x="245" y="38" type="line"/>
			<point x="241" y="38" type="line"/>
			<point x="212" y="171"/>
			<point x="176" y="270"/>
			<point x="149" y="349" type="curve" smooth="yes"/>
			<point x="114" y="450"/>
			<point x="92" y="478"/>
			<point x="53" y="478" type="curve" smooth="yes"/>
			<point x="33" y="478"/>
			<point x="15" y="472"/>
			<point x="0" y="458" type="curve"/>
			<point x="5" y="445" type="line"/>
			<point x="17" y="450"/>
			<point x="29" y="453"/>
			<point x="41" y="453" type="curve" smooth="yes"/>
			<point x="75" y="453"/>
			<point x="85" y="441"/>
			<point x="123" y="340" type="curve" smooth="yes"/>
			<point x="152" y="262"/>
			<point x="188" y="159"/>
			<point x="231" y="1" type="curve"/>
			<point x="227" y="51" type="line"/>
		</contour>
		<contour>
			<point x="244" y="9" type="line"/>
			<point x="338" y="172"/>
			<point x="419" y="349"/>
			<point x="419" y="441" type="curve" smooth="yes"/>
			<point x="419" y="450"/>
			<point x="419" y="462"/>
			<point x="417" y="475" type="curve"/>
			<point x="414" y="480"/>
			<point x="409" y="483"/>
			<point x="401" y="483" type="curve" smooth="yes"/>
			<point x="387" y="483"/>
			<point x="378" y="474"/>
			<point x="378" y="439" type="curve" smooth="yes"/>
			<point x="378" y="412"/>
			<point x="380" y="390"/>
			<point x="386" y="319" type="curve"/>
			<point x="393" y="404" type="line"/>
			<point x="356" y="247"/>
			<point x="309" y="170"/>
			<point x="232" y="23" type="curve"/>
		</contour>
	</outline>
</glyph>
<glyph name="theta" format="2">
	<unicode hex="03B8"/>
	<advance width="500"/>
	<outline>
		<contour>
			<point x="244" y="-13" type="curve" smooth="yes"/>
			<point x="128" y="-13"/>
			<point x="56" y="94"/>
			<point x="56" y="367" type="curve" smooth="yes"/>
			<point x="56" y="640"/>
			<point x="142" y="748"/>
			<point x="254" y="748" type="curve" smooth="yes"/>
			<point x="370" y="748"/>
			<point x="444" y="640"/>
			<point x="444" y="367" type="curve" smooth="yes"/>
			<point x="444" y="94"/>
			<point x="356" y="-13"/>
		</contour>
		<contour>
			<point x="246" y="7" type="curve" smooth="yes"/>
			<point x="340" y="7"/>
			<point x="416" y="98"/>
			<point x="416" y="368" type="curve" smooth="yes"/>
			<point x="416" y="615"/>
			<point x="349" y="728"/>
			<point x="252" y="728" type="curve" smooth="yes"/>
			<point x="160" y="728"/>
			<point x="84" y="636"/>
			<point x="84" y="378" type="curve" smooth="yes"/>
			<point x="84" y="114"/>
			<point x="154" y="7"/>
		</contour>
		<contour>
			<point x="62" y="364" type="line"/>
			<point x="62" y="390" type="line"/>
			<point x="438" y="390" type="line"/>
			<point x="438" y="364" type="line"/>
		</contour>
	</outline>
</glyph>
<glyph name="nu" format="2">
	<unicode hex="03BD"/>
	<advance width="480"/>
	<outline>
		<contour>
			<point x="222" y="-5" type="curve"/>
			<point x="241" y="-5" type="line"/>
			<point x="339" y="164"/>
			<point x="420" y="346"/>
			<point x="420" y="441" type="curve" smooth="yes"/>
			<point x="420" y="450"/>
			<point x="420" y="462"/>
			<point x="418" y="475" type="curve"/>
			<point x="415" y="480"/>
			<point x="410" y="483"/>
			<point x="403" y="483" type="curve" smooth="yes"/>
			<point x="388" y="483"/>
			<point x="379" y="471"/>
			<point x="379" y="439" type="curve" smooth="yes"/>
			<point x="379" y="409"/>
			<point x="383" y="368"/>
			<point x="387" y="315" type="curve"/>
			<point x="401" y="430" type="line"/>
			<point x="363" y="250"/>
			<point x="311" y="168"/>
			<point x="236" y="21" type="curve"/>
			<point x="233" y="14" type="line"/>
			<point x="242" y="14" type="line"/>
			<point x="218" y="157"/>
			<point x="171" y="294"/>
			<point x="133" y="392" type="curve" smooth="yes"/>
			<point x="109" y="452"/>
			<point x="94" y="478"/>
			<point x="53" y="478" type="curve" smooth="yes"/>
			<point x="36" y="478"/>
			<point x="12" y="470"/>
			<point x="0" y="458" type="curve"/>
			<point x="5" y="445" type="line"/>
			<point x="16" y="449"/>
			<point x="29" y="453"/>
			<point x="45" y="453" type="curve" smooth="yes"/>
			<point x="70" y="453"/>
			<point x="82" y="445"/>
			<point x="107" y="384" type="curve" smooth="yes"/>
			<point x="148" y="285"/>
			<point x="195" y="151"/>
		</contour>
	</outline>
</glyph>
<glyph name="xi" format="2">
	<unicode hex="03BE"/>
	<advance width="420"/>
	<outline>
		<contour>
			<point x="320" y="-205" type="curve"/>
			<point x="344" y="-205" type="line"/>
			<point x="370" y="-161"/>
			<point x="382" y="-125"/>
			<point x="382" y="-90" type="curve" smooth="yes"/>
			<point x="382" y="-35"/>
			<point x="366" y="14"/>
			<point x="250" y="40" type="curve" smooth="yes"/>
			<point x="124" y="68"/>
			<point x="85" y="114"/>
			<point x="85" y="195" type="curve" smooth="yes"/>
			<point x="85" y="290"/>
			<point x="151" y="368"/>
			<point x="312" y="368" type="curve" smooth="yes"/>
			<point x="327" y="368"/>
			<point x="357" y="367"/>
			<point x="379" y="367" type="curve"/>
			<point x="379" y="400" type="line"/>
			<point x="360" y="399"/>
			<point x="324" y="399"/>
			<point x="313" y="399" type="curve" smooth="yes"/>
			<point x="176" y="399"/>
			<point x="121" y="459"/>
			<point x="121" y="545" type="curve" smooth="yes"/>
			<point x="121" y="639"/>
			<point x="199" y="708"/>
			<point x="410" y="718" type="curve"/>
			<point x="410" y="738" type="line"/>
			<point x="52" y="745" type="line"/>
			<point x="52" y="718" type="line"/>
			<point x="305" y="718" type="line"/>
			<point x="305" y="711" type="line"/>
			<point x="311" y="724" type="line"/>
			<point x="184" y="710"/>
			<point x="95" y="642"/>
			<point x="95" y="539" type="curve" smooth="yes"/>
			<point x="95" y="463"/>
			<point x="144" y="390"/>
			<point x="270" y="380" type="curve"/>
			<point x="271" y="385" type="line"/>
			<point x="121" y="377"/>
			<point x="55" y="297"/>
			<point x="55" y="193" type="curve" smooth="yes"/>
			<point x="55" y="100"/>
			<point x="105" y="44"/>
			<point x="238" y="14" type="curve" smooth="yes"/>
			<point x="348" y="-11"/>
			<point x="356" y="-53"/>
			<point x="356" y="-92" type="curve" smooth="yes"/>
			<point x="356" y="-119"/>
			<point x="344" y="-155"/>
		</contour>
	</outline>
</glyph>
<glyph name="omicron" format="2">
	<unicode hex="03BF"/>
	<advance width="514"/>
	<outline>
		<contour>
			<point x="257" y="-13" type="curve" smooth="yes"/>
			<point x="347" y="-13"/>
			<point x="462" y="57"/>
			<point x="462" y="238" type="curve" smooth="yes"/>
			<point x="462" y="400"/>
			<point x="377" y="483"/>
			<point x="258" y="483" type="curve" smooth="yes"/>
			<point x="169" y="483"/>
			<point x="52" y="407"/>
			<point x="52" y="238" type="curve" smooth="yes"/>
			<point x="52" y="56"/>
			<point x="156" y="-13"/>
		</contour>
		<contour>
			<point x="257" y="10" type="curve" smooth="yes"/>
			<point x="169" y="10"/>
			<point x="82" y="79"/>
			<point x="82" y="246" type="curve" smooth="yes"/>
			<point x="82" y="377"/>
			<point x="161" y="461"/>
			<point x="261" y="461" type="curve" smooth="yes"/>
			<point x="374" y="461"/>
			<point x="432" y="362"/>
			<point x="432" y="225" type="curve" smooth="yes"/>
			<point x="432" y="104"/>
			<point x="368" y="10"/>
		</contour>
	</outline>
	<anchor name="aboveLC" x="261" y="490"/>
</glyph>
<glyph name="rho" format="2">
	<unicode hex="03C1"/>
	<advance width="548"/>
	<outline>
		<contour>
			<point x="90" y="-182" type="line"/>
			<point x="100" y="-188" type="line"/>
			<point x="122" y="-180" type="line"/>
			<point x="120" y="92" type="line"/>
			<point x="122" y="97" type="line"/>
			<point x="122" y="243" type="line" smooth="yes"/>
			<point x="122" y="376"/>
			<point x="190" y="461"/>
			<point x="296" y="461" type="curve" smooth="yes"/>
			<point x="397" y="461"/>
			<point x="466" y="378"/>
			<point x="466" y="246" type="curve" smooth="yes"/>
			<point x="466" y="103"/>
			<point x="392" y="10"/>
			<point x="282" y="10" type="curve" smooth="yes"/>
			<point x="205" y="10"/>
			<point x="149" y="51"/>
			<point x="114" y="127" type="curve"/>
			<point x="104" y="114" type="line"/>
			<point x="106" y="114" type="line"/>
			<point x="137" y="36"/>
			<point x="199" y="-13"/>
			<point x="283" y="-13" type="curve" smooth="yes"/>
			<point x="404" y="-13"/>
			<point x="496" y="94"/>
			<point x="496" y="245" type="curve" smooth="yes"/>
			<point x="496" y="396"/>
			<point x="420" y="483"/>
			<point x="297" y="483" type="curve" smooth="yes"/>
			<point x="168" y="483"/>
			<point x="94" y="390"/>
			<point x="94" y="228" type="curve" smooth="yes"/>
			<point x="94" y="-21" type="line"/>
		</contour>
	</outline>
	<anchor name="aboveLC" x="298" y="490"/>
</glyph>
<glyph name="sigma.end" format="2">
	<unicode hex="03C2"/>
	<advance width="451"/>
	<outline>
		<contour>
			<point x="315" y="-205" type="curve"/>
			<point x="339" y="-205" type="line"/>
			<point x="360" y="-170"/>
			<point x="377" y="-130"/>
			<point x="377" y="-90" type="curve" smooth="yes"/>
			<point x="377" y="-29"/>
			<point x="356" y="11"/>
			<point x="248" y="40" type="curve" smooth="yes"/>
			<point x="127" y="72"/>
			<point x="81" y="121"/>
			<point x="81" y="227" type="curve" smooth="yes"/>
			<point x="81" y="383"/>
			<point x="160" y="463"/>
			<point x="285" y="463" type="curve" smooth="yes"/>
			<point x="314" y="463"/>
			<point x="328" y="458"/>
			<point x="357" y="446" type="curve"/>
			<point x="302" y="471" type="line"/>
			<point x="352" y="422" type="line" smooth="yes"/>
			<point x="363" y="411"/>
			<point x="369" y="407"/>
			<point x="383" y="407" type="curve" smooth="yes"/>
			<point x="395" y="407"/>
			<point x="410" y="416"/>
			<point x="404" y="437" type="curve"/>
			<point x="370" y="471"/>
			<point x="337" y="483"/>
			<point x="284" y="483" type="curve" smooth="yes"/>
			<point x="158" y="483"/>
			<point x="52" y="403"/>
			<point x="52" y="226" type="curve" smooth="yes"/>
			<point x="52" y="125"/>
			<point x="86" y="53"/>
			<point x="236" y="14" type="curve" smooth="yes"/>
			<point x="339" y="-13"/>
			<point x="351" y="-46"/>
			<point x="351" y="-92" type="curve" smooth="yes"/>
			<point x="351" y="-119"/>
			<point x="339" y="-155"/>
		</contour>
	</outline>
</glyph>
<glyph name="sigma" format="2">
	<unicode hex="03C3"/>
	<advance width="558"/>
	<outline>
		<contour>
			<point x="255" y="-13" type="curve" smooth="yes"/>
			<point x="355" y="-13"/>
			<point x="464" y="62"/>
			<point x="464" y="229" type="curve" smooth="yes"/>
			<point x="464" y="346"/>
			<point x="382" y="456"/>
			<point x="259" y="460" type="curve"/>
			<point x="252" y="454" type="line"/>
			<point x="365" y="439"/>
			<point x="436" y="350"/>
			<point x="436" y="228" type="curve" smooth="yes"/>
			<point x="436" y="91"/>
			<point x="359" y="10"/>
			<point x="263" y="10" type="curve" smooth="yes"/>
			<point x="161" y="10"/>
			<point x="82" y="96"/>
			<point x="82" y="226" type="curve" smooth="yes"/>
			<point x="82" y="361"/>
			<point x="151" y="452"/>
			<point x="305" y="452" type="curve"/>
			<point x="317" y="449" type="line"/>
			<point x="538" y="441" type="line"/>
			<point x="537" y="471" type="line"/>
			<point x="312" y="471" type="line" smooth="yes"/>
			<point x="123" y="471"/>
			<point x="52" y="364"/>
			<point x="52" y="223" type="curve" smooth="yes"/>
			<point x="52" y="77"/>
			<point x="142" y="-13"/>
		</contour>
	</outline>
</glyph>
<glyph name="tau" format="2">
	<unicode hex="03C4"/>
	<advance width="440"/>
	<outline>
		<contour>
			<point x="18" y="435" type="line"/>
			<point x="213" y="446" type="line"/>
			<point x="420" y="444" type="line"/>
			<point x="419" y="470" type="line"/>
			<point x="240" y="470" type="line" smooth="yes"/>
			<point x="147" y="470"/>
			<point x="81" y="464"/>
			<point x="16" y="453" type="curve"/>
		</contour>
		<contour>
			<point x="277" y="-13" type="curve" smooth="yes"/>
			<point x="308" y="-13"/>
			<point x="332" y="3"/>
			<point x="343" y="18" type="curve"/>
			<point x="337" y="31" type="line"/>
			<point x="321" y="21"/>
			<point x="308" y="15"/>
			<point x="281" y="15" type="curve" smooth="yes"/>
			<point x="250" y="15"/>
			<point x="226" y="28"/>
			<point x="226" y="95" type="curve" smooth="yes"/>
			<point x="226" y="458" type="line"/>
			<point x="204" y="458" type="line"/>
			<point x="200" y="339"/>
			<point x="197" y="219"/>
			<point x="197" y="100" type="curve" smooth="yes"/>
			<point x="197" y="14"/>
			<point x="226" y="-13"/>
		</contour>
	</outline>
</glyph>
<glyph name="upsilon" format="2">
	<unicode hex="03C5"/>
	<advance width="533"/>
	<outline>
		<contour>
			<point x="289" y="-13" type="curve" smooth="yes"/>
			<point x="403" y="-13"/>
			<point x="473" y="68"/>
			<point x="473" y="251" type="curve" smooth="yes"/>
			<point x="473" y="336"/>
			<point x="454" y="414"/>
			<point x="438" y="475" type="curve"/>
			<point x="434" y="480"/>
			<point x="426" y="483"/>
			<point x="418" y="483" type="curve" smooth="yes"/>
			<point x="407" y="483"/>
			<point x="401" y="472"/>
			<point x="401" y="460" type="curve" smooth="yes"/>
			<point x="401" y="434"/>
			<point x="420" y="394"/>
			<point x="461" y="308" type="curve"/>
			<point x="453" y="365" type="line"/>
			<point x="441" y="370" type="line"/>
			<point x="449" y="320"/>
			<point x="452" y="290"/>
			<point x="452" y="249" type="curve" smooth="yes"/>
			<point x="452" y="79"/>
			<point x="390" y="10"/>
			<point x="291" y="10" type="curve" smooth="yes"/>
			<point x="189" y="10"/>
			<point x="137" y="59"/>
			<point x="137" y="174" type="curve" smooth="yes"/>
			<point x="137" y="263"/>
			<point x="147" y="309"/>
			<point x="147" y="380" type="curve" smooth="yes"/>
			<point x="147" y="450"/>
			<point x="128" y="480"/>
			<point x="81" y="480" type="curve" smooth="yes"/>
			<point x="58" y="480"/>
			<point x="42" y="471"/>
			<point x="36" y="464" type="curve"/>
			<point x="41" y="452" type="line"/>
			<point x="48" y="454"/>
			<point x="57" y="455"/>
			<point x="66" y="455" type="curve" smooth="yes"/>
			<point x="105" y="455"/>
			<point x="121" y="439"/>
			<point x="121" y="377" type="curve" smooth="yes"/>
			<point x="121" y="323"/>
			<point x="109" y="254"/>
			<point x="109" y="168" type="curve" smooth="yes"/>
			<point x="109" y="37"/>
			<point x="187" y="-13"/>
		</contour>
	</outline>
	<anchor name="aboveLC" x="276" y="490"/>
</glyph>
